%TF.GenerationSoftware,KiCad,Pcbnew,7.0.1*%
%TF.CreationDate,2023-09-03T17:39:20-04:00*%
%TF.ProjectId,syzygy-breakout-flash-LVL,73797a79-6779-42d6-9272-65616b6f7574,r1.0*%
%TF.SameCoordinates,PX66851e0PY4d70380*%
%TF.FileFunction,Legend,Bot*%
%TF.FilePolarity,Positive*%
%FSLAX46Y46*%
G04 Gerber Fmt 4.6, Leading zero omitted, Abs format (unit mm)*
G04 Created by KiCad (PCBNEW 7.0.1) date 2023-09-03 17:39:20*
%MOMM*%
%LPD*%
G01*
G04 APERTURE LIST*
G04 Aperture macros list*
%AMRoundRect*
0 Rectangle with rounded corners*
0 $1 Rounding radius*
0 $2 $3 $4 $5 $6 $7 $8 $9 X,Y pos of 4 corners*
0 Add a 4 corners polygon primitive as box body*
4,1,4,$2,$3,$4,$5,$6,$7,$8,$9,$2,$3,0*
0 Add four circle primitives for the rounded corners*
1,1,$1+$1,$2,$3*
1,1,$1+$1,$4,$5*
1,1,$1+$1,$6,$7*
1,1,$1+$1,$8,$9*
0 Add four rect primitives between the rounded corners*
20,1,$1+$1,$2,$3,$4,$5,0*
20,1,$1+$1,$4,$5,$6,$7,0*
20,1,$1+$1,$6,$7,$8,$9,0*
20,1,$1+$1,$8,$9,$2,$3,0*%
%AMFreePoly0*
4,1,27,0.394441,0.171933,0.429796,0.157288,0.457288,0.129796,0.471933,0.094441,0.475800,0.075000,0.475800,0.045711,0.471933,0.026270,0.457288,-0.009085,0.446276,-0.025565,0.325565,-0.146276,0.309085,-0.157288,0.273730,-0.171933,0.254289,-0.175800,-0.375000,-0.175800,-0.394441,-0.171933,-0.429796,-0.157288,-0.457288,-0.129796,-0.471933,-0.094441,-0.475800,-0.075000,-0.475800,0.075000,
-0.471933,0.094441,-0.457288,0.129796,-0.429796,0.157288,-0.394441,0.171933,-0.375000,0.175800,0.375000,0.175800,0.394441,0.171933,0.394441,0.171933,$1*%
%AMFreePoly1*
4,1,27,0.273730,0.171933,0.309085,0.157288,0.325565,0.146276,0.446276,0.025565,0.457288,0.009085,0.471933,-0.026270,0.475800,-0.045711,0.475800,-0.075000,0.471933,-0.094441,0.457288,-0.129796,0.429796,-0.157288,0.394441,-0.171933,0.375000,-0.175800,-0.375000,-0.175800,-0.394441,-0.171933,-0.429796,-0.157288,-0.457288,-0.129796,-0.471933,-0.094441,-0.475800,-0.075000,-0.475800,0.075000,
-0.471933,0.094441,-0.457288,0.129796,-0.429796,0.157288,-0.394441,0.171933,-0.375000,0.175800,0.254289,0.175800,0.273730,0.171933,0.273730,0.171933,$1*%
%AMFreePoly2*
4,1,27,0.094441,0.471933,0.129796,0.457288,0.157288,0.429796,0.171933,0.394441,0.175800,0.375000,0.175800,-0.375000,0.171933,-0.394441,0.157288,-0.429796,0.129796,-0.457288,0.094441,-0.471933,0.075000,-0.475800,0.045711,-0.475800,0.026270,-0.471933,-0.009085,-0.457288,-0.025565,-0.446276,-0.146276,-0.325565,-0.157288,-0.309085,-0.171933,-0.273730,-0.175800,-0.254289,-0.175800,0.375000,
-0.171933,0.394441,-0.157288,0.429796,-0.129796,0.457288,-0.094441,0.471933,-0.075000,0.475800,0.075000,0.475800,0.094441,0.471933,0.094441,0.471933,$1*%
%AMFreePoly3*
4,1,27,0.094441,0.471933,0.129796,0.457288,0.157288,0.429796,0.171933,0.394441,0.175800,0.375000,0.175800,-0.254289,0.171933,-0.273730,0.157288,-0.309085,0.146276,-0.325565,0.025565,-0.446276,0.009085,-0.457288,-0.026270,-0.471933,-0.045711,-0.475800,-0.075000,-0.475800,-0.094441,-0.471933,-0.129796,-0.457288,-0.157288,-0.429796,-0.171933,-0.394441,-0.175800,-0.375000,-0.175800,0.375000,
-0.171933,0.394441,-0.157288,0.429796,-0.129796,0.457288,-0.094441,0.471933,-0.075000,0.475800,0.075000,0.475800,0.094441,0.471933,0.094441,0.471933,$1*%
%AMFreePoly4*
4,1,27,0.394441,0.171933,0.429796,0.157288,0.457288,0.129796,0.471933,0.094441,0.475800,0.075000,0.475800,-0.075000,0.471933,-0.094441,0.457288,-0.129796,0.429796,-0.157288,0.394441,-0.171933,0.375000,-0.175800,-0.375000,-0.175800,-0.394441,-0.171933,-0.429796,-0.157288,-0.457288,-0.129796,-0.471933,-0.094441,-0.475800,-0.075000,-0.475800,-0.045711,-0.471933,-0.026271,-0.457288,0.009085,
-0.446276,0.025566,-0.325564,0.146276,-0.309084,0.157288,-0.273730,0.171933,-0.254289,0.175800,0.375000,0.175800,0.394441,0.171933,0.394441,0.171933,$1*%
%AMFreePoly5*
4,1,27,0.394441,0.171933,0.429796,0.157288,0.457288,0.129796,0.471933,0.094441,0.475800,0.075000,0.475800,-0.075000,0.471933,-0.094441,0.457288,-0.129796,0.429796,-0.157288,0.394441,-0.171933,0.375000,-0.175800,-0.254289,-0.175800,-0.273730,-0.171933,-0.309085,-0.157288,-0.325565,-0.146276,-0.446276,-0.025565,-0.457288,-0.009085,-0.471933,0.026270,-0.475800,0.045711,-0.475800,0.075000,
-0.471933,0.094441,-0.457288,0.129796,-0.429796,0.157288,-0.394441,0.171933,-0.375000,0.175800,0.375000,0.175800,0.394441,0.171933,0.394441,0.171933,$1*%
%AMFreePoly6*
4,1,27,-0.026270,0.471933,0.009085,0.457288,0.025565,0.446276,0.146276,0.325565,0.157288,0.309085,0.171933,0.273730,0.175800,0.254289,0.175800,-0.375000,0.171933,-0.394441,0.157288,-0.429796,0.129796,-0.457288,0.094441,-0.471933,0.075000,-0.475800,-0.075000,-0.475800,-0.094441,-0.471933,-0.129796,-0.457288,-0.157288,-0.429796,-0.171933,-0.394441,-0.175800,-0.375000,-0.175800,0.375000,
-0.171933,0.394441,-0.157288,0.429796,-0.129796,0.457288,-0.094441,0.471933,-0.075000,0.475800,-0.045711,0.475800,-0.026270,0.471933,-0.026270,0.471933,$1*%
%AMFreePoly7*
4,1,27,0.094441,0.471933,0.129796,0.457288,0.157288,0.429796,0.171933,0.394441,0.175800,0.375000,0.175800,-0.375000,0.171933,-0.394441,0.157288,-0.429796,0.129796,-0.457288,0.094441,-0.471933,0.075000,-0.475800,-0.075000,-0.475800,-0.094441,-0.471933,-0.129796,-0.457288,-0.157288,-0.429796,-0.171933,-0.394441,-0.175800,-0.375000,-0.175800,0.254289,-0.171933,0.273730,-0.157288,0.309085,
-0.146276,0.325565,-0.025565,0.446276,-0.009085,0.457288,0.026270,0.471933,0.045711,0.475800,0.075000,0.475800,0.094441,0.471933,0.094441,0.471933,$1*%
G04 Aperture macros list end*
%ADD10C,0.150000*%
%ADD11C,0.200000*%
%ADD12C,0.120000*%
%ADD13C,0.127000*%
%ADD14RoundRect,0.050800X-0.850000X-0.850000X0.850000X-0.850000X0.850000X0.850000X-0.850000X0.850000X0*%
%ADD15O,1.801600X1.801600*%
%ADD16RoundRect,0.050800X0.850000X0.850000X-0.850000X0.850000X-0.850000X-0.850000X0.850000X-0.850000X0*%
%ADD17C,6.301600*%
%ADD18C,1.051600*%
%ADD19RoundRect,0.110800X0.090000X1.040000X-0.090000X1.040000X-0.090000X-1.040000X0.090000X-1.040000X0*%
%ADD20RoundRect,0.150800X-1.100000X0.150000X-1.100000X-0.150000X1.100000X-0.150000X1.100000X0.150000X0*%
%ADD21RoundRect,0.150800X-2.075000X0.150000X-2.075000X-0.150000X2.075000X-0.150000X2.075000X0.150000X0*%
%ADD22RoundRect,0.150800X-1.150000X0.150000X-1.150000X-0.150000X1.150000X-0.150000X1.150000X0.150000X0*%
%ADD23RoundRect,0.288300X0.237500X-0.300000X0.237500X0.300000X-0.237500X0.300000X-0.237500X-0.300000X0*%
%ADD24RoundRect,0.288300X-0.237500X0.300000X-0.237500X-0.300000X0.237500X-0.300000X0.237500X0.300000X0*%
%ADD25RoundRect,0.288300X-0.250000X-0.237500X0.250000X-0.237500X0.250000X0.237500X-0.250000X0.237500X0*%
%ADD26RoundRect,0.163300X0.187500X0.112500X-0.187500X0.112500X-0.187500X-0.112500X0.187500X-0.112500X0*%
%ADD27RoundRect,0.288300X-0.300000X-0.237500X0.300000X-0.237500X0.300000X0.237500X-0.300000X0.237500X0*%
%ADD28RoundRect,0.200800X-0.250000X-0.150000X0.250000X-0.150000X0.250000X0.150000X-0.250000X0.150000X0*%
%ADD29RoundRect,0.288300X0.300000X0.237500X-0.300000X0.237500X-0.300000X-0.237500X0.300000X-0.237500X0*%
%ADD30RoundRect,0.050800X-0.475000X-1.075000X0.475000X-1.075000X0.475000X1.075000X-0.475000X1.075000X0*%
%ADD31RoundRect,0.050800X-1.625000X-1.075000X1.625000X-1.075000X1.625000X1.075000X-1.625000X1.075000X0*%
%ADD32RoundRect,0.288300X0.237500X-0.250000X0.237500X0.250000X-0.237500X0.250000X-0.237500X-0.250000X0*%
%ADD33FreePoly0,90.000000*%
%ADD34RoundRect,0.113300X0.062500X-0.362500X0.062500X0.362500X-0.062500X0.362500X-0.062500X-0.362500X0*%
%ADD35FreePoly1,90.000000*%
%ADD36FreePoly2,90.000000*%
%ADD37RoundRect,0.113300X0.362500X-0.062500X0.362500X0.062500X-0.362500X0.062500X-0.362500X-0.062500X0*%
%ADD38FreePoly3,90.000000*%
%ADD39FreePoly4,90.000000*%
%ADD40FreePoly5,90.000000*%
%ADD41FreePoly6,90.000000*%
%ADD42FreePoly7,90.000000*%
%ADD43RoundRect,0.050800X0.800000X-0.800000X0.800000X0.800000X-0.800000X0.800000X-0.800000X-0.800000X0*%
G04 APERTURE END LIST*
D10*
X1327866Y-17058980D02*
X1375485Y-17106600D01*
X1375485Y-17106600D02*
X1518342Y-17154219D01*
X1518342Y-17154219D02*
X1613580Y-17154219D01*
X1613580Y-17154219D02*
X1756437Y-17106600D01*
X1756437Y-17106600D02*
X1851675Y-17011361D01*
X1851675Y-17011361D02*
X1899294Y-16916123D01*
X1899294Y-16916123D02*
X1946913Y-16725647D01*
X1946913Y-16725647D02*
X1946913Y-16582790D01*
X1946913Y-16582790D02*
X1899294Y-16392314D01*
X1899294Y-16392314D02*
X1851675Y-16297076D01*
X1851675Y-16297076D02*
X1756437Y-16201838D01*
X1756437Y-16201838D02*
X1613580Y-16154219D01*
X1613580Y-16154219D02*
X1518342Y-16154219D01*
X1518342Y-16154219D02*
X1375485Y-16201838D01*
X1375485Y-16201838D02*
X1327866Y-16249457D01*
X423104Y-16154219D02*
X899294Y-16154219D01*
X899294Y-16154219D02*
X946913Y-16630409D01*
X946913Y-16630409D02*
X899294Y-16582790D01*
X899294Y-16582790D02*
X804056Y-16535171D01*
X804056Y-16535171D02*
X565961Y-16535171D01*
X565961Y-16535171D02*
X470723Y-16582790D01*
X470723Y-16582790D02*
X423104Y-16630409D01*
X423104Y-16630409D02*
X375485Y-16725647D01*
X375485Y-16725647D02*
X375485Y-16963742D01*
X375485Y-16963742D02*
X423104Y-17058980D01*
X423104Y-17058980D02*
X470723Y-17106600D01*
X470723Y-17106600D02*
X565961Y-17154219D01*
X565961Y-17154219D02*
X804056Y-17154219D01*
X804056Y-17154219D02*
X899294Y-17106600D01*
X899294Y-17106600D02*
X946913Y-17058980D01*
X16894457Y-32716580D02*
X16942076Y-32764200D01*
X16942076Y-32764200D02*
X17084933Y-32811819D01*
X17084933Y-32811819D02*
X17180171Y-32811819D01*
X17180171Y-32811819D02*
X17323028Y-32764200D01*
X17323028Y-32764200D02*
X17418266Y-32668961D01*
X17418266Y-32668961D02*
X17465885Y-32573723D01*
X17465885Y-32573723D02*
X17513504Y-32383247D01*
X17513504Y-32383247D02*
X17513504Y-32240390D01*
X17513504Y-32240390D02*
X17465885Y-32049914D01*
X17465885Y-32049914D02*
X17418266Y-31954676D01*
X17418266Y-31954676D02*
X17323028Y-31859438D01*
X17323028Y-31859438D02*
X17180171Y-31811819D01*
X17180171Y-31811819D02*
X17084933Y-31811819D01*
X17084933Y-31811819D02*
X16942076Y-31859438D01*
X16942076Y-31859438D02*
X16894457Y-31907057D01*
X15942076Y-32811819D02*
X16513504Y-32811819D01*
X16227790Y-32811819D02*
X16227790Y-31811819D01*
X16227790Y-31811819D02*
X16323028Y-31954676D01*
X16323028Y-31954676D02*
X16418266Y-32049914D01*
X16418266Y-32049914D02*
X16513504Y-32097533D01*
X15561123Y-31907057D02*
X15513504Y-31859438D01*
X15513504Y-31859438D02*
X15418266Y-31811819D01*
X15418266Y-31811819D02*
X15180171Y-31811819D01*
X15180171Y-31811819D02*
X15084933Y-31859438D01*
X15084933Y-31859438D02*
X15037314Y-31907057D01*
X15037314Y-31907057D02*
X14989695Y-32002295D01*
X14989695Y-32002295D02*
X14989695Y-32097533D01*
X14989695Y-32097533D02*
X15037314Y-32240390D01*
X15037314Y-32240390D02*
X15608742Y-32811819D01*
X15608742Y-32811819D02*
X14989695Y-32811819D01*
X10014666Y-10256619D02*
X10347999Y-9780428D01*
X10586094Y-10256619D02*
X10586094Y-9256619D01*
X10586094Y-9256619D02*
X10205142Y-9256619D01*
X10205142Y-9256619D02*
X10109904Y-9304238D01*
X10109904Y-9304238D02*
X10062285Y-9351857D01*
X10062285Y-9351857D02*
X10014666Y-9447095D01*
X10014666Y-9447095D02*
X10014666Y-9589952D01*
X10014666Y-9589952D02*
X10062285Y-9685190D01*
X10062285Y-9685190D02*
X10109904Y-9732809D01*
X10109904Y-9732809D02*
X10205142Y-9780428D01*
X10205142Y-9780428D02*
X10586094Y-9780428D01*
X9062285Y-10256619D02*
X9633713Y-10256619D01*
X9347999Y-10256619D02*
X9347999Y-9256619D01*
X9347999Y-9256619D02*
X9443237Y-9399476D01*
X9443237Y-9399476D02*
X9538475Y-9494714D01*
X9538475Y-9494714D02*
X9633713Y-9542333D01*
X32938094Y-14766619D02*
X32938094Y-13766619D01*
X32938094Y-13766619D02*
X32699999Y-13766619D01*
X32699999Y-13766619D02*
X32557142Y-13814238D01*
X32557142Y-13814238D02*
X32461904Y-13909476D01*
X32461904Y-13909476D02*
X32414285Y-14004714D01*
X32414285Y-14004714D02*
X32366666Y-14195190D01*
X32366666Y-14195190D02*
X32366666Y-14338047D01*
X32366666Y-14338047D02*
X32414285Y-14528523D01*
X32414285Y-14528523D02*
X32461904Y-14623761D01*
X32461904Y-14623761D02*
X32557142Y-14719000D01*
X32557142Y-14719000D02*
X32699999Y-14766619D01*
X32699999Y-14766619D02*
X32938094Y-14766619D01*
X31414285Y-14766619D02*
X31985713Y-14766619D01*
X31699999Y-14766619D02*
X31699999Y-13766619D01*
X31699999Y-13766619D02*
X31795237Y-13909476D01*
X31795237Y-13909476D02*
X31890475Y-14004714D01*
X31890475Y-14004714D02*
X31985713Y-14052333D01*
X8897066Y-20411780D02*
X8944685Y-20459400D01*
X8944685Y-20459400D02*
X9087542Y-20507019D01*
X9087542Y-20507019D02*
X9182780Y-20507019D01*
X9182780Y-20507019D02*
X9325637Y-20459400D01*
X9325637Y-20459400D02*
X9420875Y-20364161D01*
X9420875Y-20364161D02*
X9468494Y-20268923D01*
X9468494Y-20268923D02*
X9516113Y-20078447D01*
X9516113Y-20078447D02*
X9516113Y-19935590D01*
X9516113Y-19935590D02*
X9468494Y-19745114D01*
X9468494Y-19745114D02*
X9420875Y-19649876D01*
X9420875Y-19649876D02*
X9325637Y-19554638D01*
X9325637Y-19554638D02*
X9182780Y-19507019D01*
X9182780Y-19507019D02*
X9087542Y-19507019D01*
X9087542Y-19507019D02*
X8944685Y-19554638D01*
X8944685Y-19554638D02*
X8897066Y-19602257D01*
X7944685Y-20507019D02*
X8516113Y-20507019D01*
X8230399Y-20507019D02*
X8230399Y-19507019D01*
X8230399Y-19507019D02*
X8325637Y-19649876D01*
X8325637Y-19649876D02*
X8420875Y-19745114D01*
X8420875Y-19745114D02*
X8516113Y-19792733D01*
X4833066Y-14874580D02*
X4880685Y-14922200D01*
X4880685Y-14922200D02*
X5023542Y-14969819D01*
X5023542Y-14969819D02*
X5118780Y-14969819D01*
X5118780Y-14969819D02*
X5261637Y-14922200D01*
X5261637Y-14922200D02*
X5356875Y-14826961D01*
X5356875Y-14826961D02*
X5404494Y-14731723D01*
X5404494Y-14731723D02*
X5452113Y-14541247D01*
X5452113Y-14541247D02*
X5452113Y-14398390D01*
X5452113Y-14398390D02*
X5404494Y-14207914D01*
X5404494Y-14207914D02*
X5356875Y-14112676D01*
X5356875Y-14112676D02*
X5261637Y-14017438D01*
X5261637Y-14017438D02*
X5118780Y-13969819D01*
X5118780Y-13969819D02*
X5023542Y-13969819D01*
X5023542Y-13969819D02*
X4880685Y-14017438D01*
X4880685Y-14017438D02*
X4833066Y-14065057D01*
X3975923Y-14303152D02*
X3975923Y-14969819D01*
X4214018Y-13922200D02*
X4452113Y-14636485D01*
X4452113Y-14636485D02*
X3833066Y-14636485D01*
X8120323Y-13284019D02*
X7453657Y-14284019D01*
X7453657Y-13284019D02*
X8120323Y-14284019D01*
X6548895Y-14284019D02*
X7120323Y-14284019D01*
X6834609Y-14284019D02*
X6834609Y-13284019D01*
X6834609Y-13284019D02*
X6929847Y-13426876D01*
X6929847Y-13426876D02*
X7025085Y-13522114D01*
X7025085Y-13522114D02*
X7120323Y-13569733D01*
X27693066Y-39004580D02*
X27740685Y-39052200D01*
X27740685Y-39052200D02*
X27883542Y-39099819D01*
X27883542Y-39099819D02*
X27978780Y-39099819D01*
X27978780Y-39099819D02*
X28121637Y-39052200D01*
X28121637Y-39052200D02*
X28216875Y-38956961D01*
X28216875Y-38956961D02*
X28264494Y-38861723D01*
X28264494Y-38861723D02*
X28312113Y-38671247D01*
X28312113Y-38671247D02*
X28312113Y-38528390D01*
X28312113Y-38528390D02*
X28264494Y-38337914D01*
X28264494Y-38337914D02*
X28216875Y-38242676D01*
X28216875Y-38242676D02*
X28121637Y-38147438D01*
X28121637Y-38147438D02*
X27978780Y-38099819D01*
X27978780Y-38099819D02*
X27883542Y-38099819D01*
X27883542Y-38099819D02*
X27740685Y-38147438D01*
X27740685Y-38147438D02*
X27693066Y-38195057D01*
X27216875Y-39099819D02*
X27026399Y-39099819D01*
X27026399Y-39099819D02*
X26931161Y-39052200D01*
X26931161Y-39052200D02*
X26883542Y-39004580D01*
X26883542Y-39004580D02*
X26788304Y-38861723D01*
X26788304Y-38861723D02*
X26740685Y-38671247D01*
X26740685Y-38671247D02*
X26740685Y-38290295D01*
X26740685Y-38290295D02*
X26788304Y-38195057D01*
X26788304Y-38195057D02*
X26835923Y-38147438D01*
X26835923Y-38147438D02*
X26931161Y-38099819D01*
X26931161Y-38099819D02*
X27121637Y-38099819D01*
X27121637Y-38099819D02*
X27216875Y-38147438D01*
X27216875Y-38147438D02*
X27264494Y-38195057D01*
X27264494Y-38195057D02*
X27312113Y-38290295D01*
X27312113Y-38290295D02*
X27312113Y-38528390D01*
X27312113Y-38528390D02*
X27264494Y-38623628D01*
X27264494Y-38623628D02*
X27216875Y-38671247D01*
X27216875Y-38671247D02*
X27121637Y-38718866D01*
X27121637Y-38718866D02*
X26931161Y-38718866D01*
X26931161Y-38718866D02*
X26835923Y-38671247D01*
X26835923Y-38671247D02*
X26788304Y-38623628D01*
X26788304Y-38623628D02*
X26740685Y-38528390D01*
X24645066Y-32705380D02*
X24692685Y-32753000D01*
X24692685Y-32753000D02*
X24835542Y-32800619D01*
X24835542Y-32800619D02*
X24930780Y-32800619D01*
X24930780Y-32800619D02*
X25073637Y-32753000D01*
X25073637Y-32753000D02*
X25168875Y-32657761D01*
X25168875Y-32657761D02*
X25216494Y-32562523D01*
X25216494Y-32562523D02*
X25264113Y-32372047D01*
X25264113Y-32372047D02*
X25264113Y-32229190D01*
X25264113Y-32229190D02*
X25216494Y-32038714D01*
X25216494Y-32038714D02*
X25168875Y-31943476D01*
X25168875Y-31943476D02*
X25073637Y-31848238D01*
X25073637Y-31848238D02*
X24930780Y-31800619D01*
X24930780Y-31800619D02*
X24835542Y-31800619D01*
X24835542Y-31800619D02*
X24692685Y-31848238D01*
X24692685Y-31848238D02*
X24645066Y-31895857D01*
X23787923Y-31800619D02*
X23978399Y-31800619D01*
X23978399Y-31800619D02*
X24073637Y-31848238D01*
X24073637Y-31848238D02*
X24121256Y-31895857D01*
X24121256Y-31895857D02*
X24216494Y-32038714D01*
X24216494Y-32038714D02*
X24264113Y-32229190D01*
X24264113Y-32229190D02*
X24264113Y-32610142D01*
X24264113Y-32610142D02*
X24216494Y-32705380D01*
X24216494Y-32705380D02*
X24168875Y-32753000D01*
X24168875Y-32753000D02*
X24073637Y-32800619D01*
X24073637Y-32800619D02*
X23883161Y-32800619D01*
X23883161Y-32800619D02*
X23787923Y-32753000D01*
X23787923Y-32753000D02*
X23740304Y-32705380D01*
X23740304Y-32705380D02*
X23692685Y-32610142D01*
X23692685Y-32610142D02*
X23692685Y-32372047D01*
X23692685Y-32372047D02*
X23740304Y-32276809D01*
X23740304Y-32276809D02*
X23787923Y-32229190D01*
X23787923Y-32229190D02*
X23883161Y-32181571D01*
X23883161Y-32181571D02*
X24073637Y-32181571D01*
X24073637Y-32181571D02*
X24168875Y-32229190D01*
X24168875Y-32229190D02*
X24216494Y-32276809D01*
X24216494Y-32276809D02*
X24264113Y-32372047D01*
X35617866Y-39005680D02*
X35665485Y-39053300D01*
X35665485Y-39053300D02*
X35808342Y-39100919D01*
X35808342Y-39100919D02*
X35903580Y-39100919D01*
X35903580Y-39100919D02*
X36046437Y-39053300D01*
X36046437Y-39053300D02*
X36141675Y-38958061D01*
X36141675Y-38958061D02*
X36189294Y-38862823D01*
X36189294Y-38862823D02*
X36236913Y-38672347D01*
X36236913Y-38672347D02*
X36236913Y-38529490D01*
X36236913Y-38529490D02*
X36189294Y-38339014D01*
X36189294Y-38339014D02*
X36141675Y-38243776D01*
X36141675Y-38243776D02*
X36046437Y-38148538D01*
X36046437Y-38148538D02*
X35903580Y-38100919D01*
X35903580Y-38100919D02*
X35808342Y-38100919D01*
X35808342Y-38100919D02*
X35665485Y-38148538D01*
X35665485Y-38148538D02*
X35617866Y-38196157D01*
X35046437Y-38529490D02*
X35141675Y-38481871D01*
X35141675Y-38481871D02*
X35189294Y-38434252D01*
X35189294Y-38434252D02*
X35236913Y-38339014D01*
X35236913Y-38339014D02*
X35236913Y-38291395D01*
X35236913Y-38291395D02*
X35189294Y-38196157D01*
X35189294Y-38196157D02*
X35141675Y-38148538D01*
X35141675Y-38148538D02*
X35046437Y-38100919D01*
X35046437Y-38100919D02*
X34855961Y-38100919D01*
X34855961Y-38100919D02*
X34760723Y-38148538D01*
X34760723Y-38148538D02*
X34713104Y-38196157D01*
X34713104Y-38196157D02*
X34665485Y-38291395D01*
X34665485Y-38291395D02*
X34665485Y-38339014D01*
X34665485Y-38339014D02*
X34713104Y-38434252D01*
X34713104Y-38434252D02*
X34760723Y-38481871D01*
X34760723Y-38481871D02*
X34855961Y-38529490D01*
X34855961Y-38529490D02*
X35046437Y-38529490D01*
X35046437Y-38529490D02*
X35141675Y-38577109D01*
X35141675Y-38577109D02*
X35189294Y-38624728D01*
X35189294Y-38624728D02*
X35236913Y-38719966D01*
X35236913Y-38719966D02*
X35236913Y-38910442D01*
X35236913Y-38910442D02*
X35189294Y-39005680D01*
X35189294Y-39005680D02*
X35141675Y-39053300D01*
X35141675Y-39053300D02*
X35046437Y-39100919D01*
X35046437Y-39100919D02*
X34855961Y-39100919D01*
X34855961Y-39100919D02*
X34760723Y-39053300D01*
X34760723Y-39053300D02*
X34713104Y-39005680D01*
X34713104Y-39005680D02*
X34665485Y-38910442D01*
X34665485Y-38910442D02*
X34665485Y-38719966D01*
X34665485Y-38719966D02*
X34713104Y-38624728D01*
X34713104Y-38624728D02*
X34760723Y-38577109D01*
X34760723Y-38577109D02*
X34855961Y-38529490D01*
X11862457Y-39055380D02*
X11910076Y-39103000D01*
X11910076Y-39103000D02*
X12052933Y-39150619D01*
X12052933Y-39150619D02*
X12148171Y-39150619D01*
X12148171Y-39150619D02*
X12291028Y-39103000D01*
X12291028Y-39103000D02*
X12386266Y-39007761D01*
X12386266Y-39007761D02*
X12433885Y-38912523D01*
X12433885Y-38912523D02*
X12481504Y-38722047D01*
X12481504Y-38722047D02*
X12481504Y-38579190D01*
X12481504Y-38579190D02*
X12433885Y-38388714D01*
X12433885Y-38388714D02*
X12386266Y-38293476D01*
X12386266Y-38293476D02*
X12291028Y-38198238D01*
X12291028Y-38198238D02*
X12148171Y-38150619D01*
X12148171Y-38150619D02*
X12052933Y-38150619D01*
X12052933Y-38150619D02*
X11910076Y-38198238D01*
X11910076Y-38198238D02*
X11862457Y-38245857D01*
X10910076Y-39150619D02*
X11481504Y-39150619D01*
X11195790Y-39150619D02*
X11195790Y-38150619D01*
X11195790Y-38150619D02*
X11291028Y-38293476D01*
X11291028Y-38293476D02*
X11386266Y-38388714D01*
X11386266Y-38388714D02*
X11481504Y-38436333D01*
X10291028Y-38150619D02*
X10195790Y-38150619D01*
X10195790Y-38150619D02*
X10100552Y-38198238D01*
X10100552Y-38198238D02*
X10052933Y-38245857D01*
X10052933Y-38245857D02*
X10005314Y-38341095D01*
X10005314Y-38341095D02*
X9957695Y-38531571D01*
X9957695Y-38531571D02*
X9957695Y-38769666D01*
X9957695Y-38769666D02*
X10005314Y-38960142D01*
X10005314Y-38960142D02*
X10052933Y-39055380D01*
X10052933Y-39055380D02*
X10100552Y-39103000D01*
X10100552Y-39103000D02*
X10195790Y-39150619D01*
X10195790Y-39150619D02*
X10291028Y-39150619D01*
X10291028Y-39150619D02*
X10386266Y-39103000D01*
X10386266Y-39103000D02*
X10433885Y-39055380D01*
X10433885Y-39055380D02*
X10481504Y-38960142D01*
X10481504Y-38960142D02*
X10529123Y-38769666D01*
X10529123Y-38769666D02*
X10529123Y-38531571D01*
X10529123Y-38531571D02*
X10481504Y-38341095D01*
X10481504Y-38341095D02*
X10433885Y-38245857D01*
X10433885Y-38245857D02*
X10386266Y-38198238D01*
X10386266Y-38198238D02*
X10291028Y-38150619D01*
X3817066Y-32400580D02*
X3864685Y-32448200D01*
X3864685Y-32448200D02*
X4007542Y-32495819D01*
X4007542Y-32495819D02*
X4102780Y-32495819D01*
X4102780Y-32495819D02*
X4245637Y-32448200D01*
X4245637Y-32448200D02*
X4340875Y-32352961D01*
X4340875Y-32352961D02*
X4388494Y-32257723D01*
X4388494Y-32257723D02*
X4436113Y-32067247D01*
X4436113Y-32067247D02*
X4436113Y-31924390D01*
X4436113Y-31924390D02*
X4388494Y-31733914D01*
X4388494Y-31733914D02*
X4340875Y-31638676D01*
X4340875Y-31638676D02*
X4245637Y-31543438D01*
X4245637Y-31543438D02*
X4102780Y-31495819D01*
X4102780Y-31495819D02*
X4007542Y-31495819D01*
X4007542Y-31495819D02*
X3864685Y-31543438D01*
X3864685Y-31543438D02*
X3817066Y-31591057D01*
X3436113Y-31591057D02*
X3388494Y-31543438D01*
X3388494Y-31543438D02*
X3293256Y-31495819D01*
X3293256Y-31495819D02*
X3055161Y-31495819D01*
X3055161Y-31495819D02*
X2959923Y-31543438D01*
X2959923Y-31543438D02*
X2912304Y-31591057D01*
X2912304Y-31591057D02*
X2864685Y-31686295D01*
X2864685Y-31686295D02*
X2864685Y-31781533D01*
X2864685Y-31781533D02*
X2912304Y-31924390D01*
X2912304Y-31924390D02*
X3483732Y-32495819D01*
X3483732Y-32495819D02*
X2864685Y-32495819D01*
X6050266Y-4170780D02*
X6097885Y-4218400D01*
X6097885Y-4218400D02*
X6240742Y-4266019D01*
X6240742Y-4266019D02*
X6335980Y-4266019D01*
X6335980Y-4266019D02*
X6478837Y-4218400D01*
X6478837Y-4218400D02*
X6574075Y-4123161D01*
X6574075Y-4123161D02*
X6621694Y-4027923D01*
X6621694Y-4027923D02*
X6669313Y-3837447D01*
X6669313Y-3837447D02*
X6669313Y-3694590D01*
X6669313Y-3694590D02*
X6621694Y-3504114D01*
X6621694Y-3504114D02*
X6574075Y-3408876D01*
X6574075Y-3408876D02*
X6478837Y-3313638D01*
X6478837Y-3313638D02*
X6335980Y-3266019D01*
X6335980Y-3266019D02*
X6240742Y-3266019D01*
X6240742Y-3266019D02*
X6097885Y-3313638D01*
X6097885Y-3313638D02*
X6050266Y-3361257D01*
X5716932Y-3266019D02*
X5097885Y-3266019D01*
X5097885Y-3266019D02*
X5431218Y-3646971D01*
X5431218Y-3646971D02*
X5288361Y-3646971D01*
X5288361Y-3646971D02*
X5193123Y-3694590D01*
X5193123Y-3694590D02*
X5145504Y-3742209D01*
X5145504Y-3742209D02*
X5097885Y-3837447D01*
X5097885Y-3837447D02*
X5097885Y-4075542D01*
X5097885Y-4075542D02*
X5145504Y-4170780D01*
X5145504Y-4170780D02*
X5193123Y-4218400D01*
X5193123Y-4218400D02*
X5288361Y-4266019D01*
X5288361Y-4266019D02*
X5574075Y-4266019D01*
X5574075Y-4266019D02*
X5669313Y-4218400D01*
X5669313Y-4218400D02*
X5716932Y-4170780D01*
X9695504Y-24688619D02*
X9695504Y-25498142D01*
X9695504Y-25498142D02*
X9647885Y-25593380D01*
X9647885Y-25593380D02*
X9600266Y-25641000D01*
X9600266Y-25641000D02*
X9505028Y-25688619D01*
X9505028Y-25688619D02*
X9314552Y-25688619D01*
X9314552Y-25688619D02*
X9219314Y-25641000D01*
X9219314Y-25641000D02*
X9171695Y-25593380D01*
X9171695Y-25593380D02*
X9124076Y-25498142D01*
X9124076Y-25498142D02*
X9124076Y-24688619D01*
X8124076Y-25688619D02*
X8695504Y-25688619D01*
X8409790Y-25688619D02*
X8409790Y-24688619D01*
X8409790Y-24688619D02*
X8505028Y-24831476D01*
X8505028Y-24831476D02*
X8600266Y-24926714D01*
X8600266Y-24926714D02*
X8695504Y-24974333D01*
X19939657Y-39055380D02*
X19987276Y-39103000D01*
X19987276Y-39103000D02*
X20130133Y-39150619D01*
X20130133Y-39150619D02*
X20225371Y-39150619D01*
X20225371Y-39150619D02*
X20368228Y-39103000D01*
X20368228Y-39103000D02*
X20463466Y-39007761D01*
X20463466Y-39007761D02*
X20511085Y-38912523D01*
X20511085Y-38912523D02*
X20558704Y-38722047D01*
X20558704Y-38722047D02*
X20558704Y-38579190D01*
X20558704Y-38579190D02*
X20511085Y-38388714D01*
X20511085Y-38388714D02*
X20463466Y-38293476D01*
X20463466Y-38293476D02*
X20368228Y-38198238D01*
X20368228Y-38198238D02*
X20225371Y-38150619D01*
X20225371Y-38150619D02*
X20130133Y-38150619D01*
X20130133Y-38150619D02*
X19987276Y-38198238D01*
X19987276Y-38198238D02*
X19939657Y-38245857D01*
X18987276Y-39150619D02*
X19558704Y-39150619D01*
X19272990Y-39150619D02*
X19272990Y-38150619D01*
X19272990Y-38150619D02*
X19368228Y-38293476D01*
X19368228Y-38293476D02*
X19463466Y-38388714D01*
X19463466Y-38388714D02*
X19558704Y-38436333D01*
X18034895Y-39150619D02*
X18606323Y-39150619D01*
X18320609Y-39150619D02*
X18320609Y-38150619D01*
X18320609Y-38150619D02*
X18415847Y-38293476D01*
X18415847Y-38293476D02*
X18511085Y-38388714D01*
X18511085Y-38388714D02*
X18606323Y-38436333D01*
X8662057Y-32806980D02*
X8709676Y-32854600D01*
X8709676Y-32854600D02*
X8852533Y-32902219D01*
X8852533Y-32902219D02*
X8947771Y-32902219D01*
X8947771Y-32902219D02*
X9090628Y-32854600D01*
X9090628Y-32854600D02*
X9185866Y-32759361D01*
X9185866Y-32759361D02*
X9233485Y-32664123D01*
X9233485Y-32664123D02*
X9281104Y-32473647D01*
X9281104Y-32473647D02*
X9281104Y-32330790D01*
X9281104Y-32330790D02*
X9233485Y-32140314D01*
X9233485Y-32140314D02*
X9185866Y-32045076D01*
X9185866Y-32045076D02*
X9090628Y-31949838D01*
X9090628Y-31949838D02*
X8947771Y-31902219D01*
X8947771Y-31902219D02*
X8852533Y-31902219D01*
X8852533Y-31902219D02*
X8709676Y-31949838D01*
X8709676Y-31949838D02*
X8662057Y-31997457D01*
X7709676Y-32902219D02*
X8281104Y-32902219D01*
X7995390Y-32902219D02*
X7995390Y-31902219D01*
X7995390Y-31902219D02*
X8090628Y-32045076D01*
X8090628Y-32045076D02*
X8185866Y-32140314D01*
X8185866Y-32140314D02*
X8281104Y-32187933D01*
X7376342Y-31902219D02*
X6757295Y-31902219D01*
X6757295Y-31902219D02*
X7090628Y-32283171D01*
X7090628Y-32283171D02*
X6947771Y-32283171D01*
X6947771Y-32283171D02*
X6852533Y-32330790D01*
X6852533Y-32330790D02*
X6804914Y-32378409D01*
X6804914Y-32378409D02*
X6757295Y-32473647D01*
X6757295Y-32473647D02*
X6757295Y-32711742D01*
X6757295Y-32711742D02*
X6804914Y-32806980D01*
X6804914Y-32806980D02*
X6852533Y-32854600D01*
X6852533Y-32854600D02*
X6947771Y-32902219D01*
X6947771Y-32902219D02*
X7233485Y-32902219D01*
X7233485Y-32902219D02*
X7328723Y-32854600D01*
X7328723Y-32854600D02*
X7376342Y-32806980D01*
X11617637Y-16159819D02*
X11950970Y-15683628D01*
X12189065Y-16159819D02*
X12189065Y-15159819D01*
X12189065Y-15159819D02*
X11808113Y-15159819D01*
X11808113Y-15159819D02*
X11712875Y-15207438D01*
X11712875Y-15207438D02*
X11665256Y-15255057D01*
X11665256Y-15255057D02*
X11617637Y-15350295D01*
X11617637Y-15350295D02*
X11617637Y-15493152D01*
X11617637Y-15493152D02*
X11665256Y-15588390D01*
X11665256Y-15588390D02*
X11712875Y-15636009D01*
X11712875Y-15636009D02*
X11808113Y-15683628D01*
X11808113Y-15683628D02*
X12189065Y-15683628D01*
X11236684Y-15255057D02*
X11189065Y-15207438D01*
X11189065Y-15207438D02*
X11093827Y-15159819D01*
X11093827Y-15159819D02*
X10855732Y-15159819D01*
X10855732Y-15159819D02*
X10760494Y-15207438D01*
X10760494Y-15207438D02*
X10712875Y-15255057D01*
X10712875Y-15255057D02*
X10665256Y-15350295D01*
X10665256Y-15350295D02*
X10665256Y-15445533D01*
X10665256Y-15445533D02*
X10712875Y-15588390D01*
X10712875Y-15588390D02*
X11284303Y-16159819D01*
X11284303Y-16159819D02*
X10665256Y-16159819D01*
X12187504Y-1687419D02*
X12187504Y-2496942D01*
X12187504Y-2496942D02*
X12139885Y-2592180D01*
X12139885Y-2592180D02*
X12092266Y-2639800D01*
X12092266Y-2639800D02*
X11997028Y-2687419D01*
X11997028Y-2687419D02*
X11806552Y-2687419D01*
X11806552Y-2687419D02*
X11711314Y-2639800D01*
X11711314Y-2639800D02*
X11663695Y-2592180D01*
X11663695Y-2592180D02*
X11616076Y-2496942D01*
X11616076Y-2496942D02*
X11616076Y-1687419D01*
X11187504Y-1782657D02*
X11139885Y-1735038D01*
X11139885Y-1735038D02*
X11044647Y-1687419D01*
X11044647Y-1687419D02*
X10806552Y-1687419D01*
X10806552Y-1687419D02*
X10711314Y-1735038D01*
X10711314Y-1735038D02*
X10663695Y-1782657D01*
X10663695Y-1782657D02*
X10616076Y-1877895D01*
X10616076Y-1877895D02*
X10616076Y-1973133D01*
X10616076Y-1973133D02*
X10663695Y-2115990D01*
X10663695Y-2115990D02*
X11235123Y-2687419D01*
X11235123Y-2687419D02*
X10616076Y-2687419D01*
X32674266Y-32614980D02*
X32721885Y-32662600D01*
X32721885Y-32662600D02*
X32864742Y-32710219D01*
X32864742Y-32710219D02*
X32959980Y-32710219D01*
X32959980Y-32710219D02*
X33102837Y-32662600D01*
X33102837Y-32662600D02*
X33198075Y-32567361D01*
X33198075Y-32567361D02*
X33245694Y-32472123D01*
X33245694Y-32472123D02*
X33293313Y-32281647D01*
X33293313Y-32281647D02*
X33293313Y-32138790D01*
X33293313Y-32138790D02*
X33245694Y-31948314D01*
X33245694Y-31948314D02*
X33198075Y-31853076D01*
X33198075Y-31853076D02*
X33102837Y-31757838D01*
X33102837Y-31757838D02*
X32959980Y-31710219D01*
X32959980Y-31710219D02*
X32864742Y-31710219D01*
X32864742Y-31710219D02*
X32721885Y-31757838D01*
X32721885Y-31757838D02*
X32674266Y-31805457D01*
X32340932Y-31710219D02*
X31674266Y-31710219D01*
X31674266Y-31710219D02*
X32102837Y-32710219D01*
D11*
X32582000Y-12386000D02*
X30582000Y-12386000D01*
X32582000Y-7786000D02*
X32582000Y-12286000D01*
X31082000Y-6286000D02*
X32582000Y-7786000D01*
X14282000Y-13386000D02*
X14282000Y-12386000D01*
X14282000Y-12386000D02*
X12382000Y-12386000D01*
X12382000Y-12386000D02*
X12382000Y-7886000D01*
X12382000Y-7886000D02*
X14082000Y-6186000D01*
D12*
X2375200Y-16970167D02*
X2375200Y-16677633D01*
X3395200Y-16970167D02*
X3395200Y-16677633D01*
X16761600Y-34589433D02*
X16761600Y-34881967D01*
X15741600Y-34589433D02*
X15741600Y-34881967D01*
X9950776Y-7849300D02*
X10460224Y-7849300D01*
X9950776Y-8894300D02*
X10460224Y-8894300D01*
X33844000Y-16932000D02*
X31184000Y-16932000D01*
X33844000Y-15232000D02*
X33844000Y-16932000D01*
X33844000Y-15232000D02*
X31184000Y-15232000D01*
X5840933Y-19483600D02*
X6133467Y-19483600D01*
X5840933Y-20503600D02*
X6133467Y-20503600D01*
X4152100Y-16965967D02*
X4152100Y-16673433D01*
X5172100Y-16965967D02*
X5172100Y-16673433D01*
X5935100Y-14722200D02*
X8435100Y-14722200D01*
X7185100Y-18142200D02*
X8435100Y-18142200D01*
X26914800Y-36343967D02*
X26914800Y-36051433D01*
X27934800Y-36343967D02*
X27934800Y-36051433D01*
X24991200Y-34540833D02*
X24991200Y-34833367D01*
X23971200Y-34540833D02*
X23971200Y-34833367D01*
X34941200Y-36345067D02*
X34941200Y-36052533D01*
X35961200Y-36345067D02*
X35961200Y-36052533D01*
X10608000Y-36343967D02*
X10608000Y-36051433D01*
X11628000Y-36343967D02*
X11628000Y-36051433D01*
X3899367Y-30866800D02*
X3606833Y-30866800D01*
X3899367Y-29846800D02*
X3606833Y-29846800D01*
X6033767Y-5685000D02*
X5741233Y-5685000D01*
X6033767Y-4665000D02*
X5741233Y-4665000D01*
D13*
X7865600Y-23344600D02*
X7865600Y-26844600D01*
X1365600Y-23344600D02*
X1365600Y-26844600D01*
X7865600Y-26844600D02*
X6625600Y-26844600D01*
X1365600Y-26844600D02*
X2605600Y-26844600D01*
D11*
X2415600Y-20494600D02*
G75*
G03*
X2415600Y-20494600I-100000J0D01*
G01*
D12*
X18786800Y-36395867D02*
X18786800Y-36103333D01*
X19806800Y-36395867D02*
X19806800Y-36103333D01*
X8532000Y-34642433D02*
X8532000Y-34934967D01*
X7512000Y-34642433D02*
X7512000Y-34934967D01*
X9136200Y-16055424D02*
X9136200Y-15545976D01*
X10181200Y-16055424D02*
X10181200Y-15545976D01*
X8698000Y-6813000D02*
X9023000Y-6813000D01*
X8698000Y-6488000D02*
X8698000Y-6813000D01*
X11918000Y-6488000D02*
X11918000Y-6813000D01*
X8698000Y-3918000D02*
X8698000Y-3593000D01*
X11918000Y-3918000D02*
X11918000Y-3593000D01*
X8698000Y-3593000D02*
X9023000Y-3593000D01*
X11918000Y-3593000D02*
X11593000Y-3593000D01*
X33068400Y-34437033D02*
X33068400Y-34729567D01*
X32048400Y-34437033D02*
X32048400Y-34729567D01*
%LPC*%
D14*
X40534000Y-34427000D03*
D15*
X40534000Y-36967000D03*
D14*
X30120000Y-50180000D03*
D15*
X30120000Y-52720000D03*
X30120000Y-55260000D03*
X30120000Y-57800000D03*
X30120000Y-60340000D03*
X30120000Y-62880000D03*
X30120000Y-65420000D03*
X30120000Y-67960000D03*
X30120000Y-70500000D03*
X30120000Y-73040000D03*
X30120000Y-75580000D03*
X30120000Y-78120000D03*
X30120000Y-80660000D03*
X30120000Y-83200000D03*
D14*
X36089000Y-19130000D03*
D15*
X36089000Y-21670000D03*
X36089000Y-24210000D03*
X36089000Y-26750000D03*
D14*
X32159300Y-19102400D03*
D15*
X32159300Y-21642400D03*
X32159300Y-24182400D03*
D16*
X14877200Y-83200000D03*
D15*
X14877200Y-80660000D03*
X14877200Y-78120000D03*
X14877200Y-75580000D03*
X14877200Y-73040000D03*
X14877200Y-70500000D03*
X14877200Y-67960000D03*
X14877200Y-65420000D03*
X14877200Y-62880000D03*
X14877200Y-60340000D03*
X14877200Y-57800000D03*
X14877200Y-55260000D03*
X14877200Y-52720000D03*
X14877200Y-50180000D03*
D14*
X38248000Y-50180000D03*
D15*
X38248000Y-52720000D03*
X38248000Y-55260000D03*
X38248000Y-57800000D03*
X38248000Y-60340000D03*
X38248000Y-62880000D03*
X38248000Y-65420000D03*
X38248000Y-67960000D03*
X38248000Y-70500000D03*
X38248000Y-73040000D03*
X38248000Y-75580000D03*
X38248000Y-78120000D03*
X38248000Y-80660000D03*
X38248000Y-83200000D03*
D16*
X6749200Y-83290400D03*
D15*
X6749200Y-80750400D03*
X6749200Y-78210400D03*
X6749200Y-75670400D03*
X6749200Y-73130400D03*
X6749200Y-70590400D03*
X6749200Y-68050400D03*
X6749200Y-65510400D03*
X6749200Y-62970400D03*
X6749200Y-60430400D03*
X6749200Y-57890400D03*
X6749200Y-55350400D03*
X6749200Y-52810400D03*
X6749200Y-50270400D03*
D17*
X39482000Y-9286000D03*
D18*
X31722000Y-11436000D03*
X13242000Y-11436000D03*
D17*
X5482000Y-9286000D03*
D19*
X14882000Y-12486000D03*
X14882000Y-6086000D03*
X15682000Y-12486000D03*
X15682000Y-6086000D03*
X16482000Y-12486000D03*
X16482000Y-6086000D03*
X17282000Y-12486000D03*
X17282000Y-6086000D03*
X18082000Y-12486000D03*
X18082000Y-6086000D03*
X18882000Y-12486000D03*
X18882000Y-6086000D03*
X19682000Y-12486000D03*
X19682000Y-6086000D03*
X20482000Y-12486000D03*
X20482000Y-6086000D03*
X21282000Y-12486000D03*
X21282000Y-6086000D03*
X22082000Y-12486000D03*
X22082000Y-6086000D03*
X22882000Y-12486000D03*
X22882000Y-6086000D03*
X23682000Y-12486000D03*
X23682000Y-6086000D03*
X24482000Y-12486000D03*
X24482000Y-6086000D03*
X25282000Y-12486000D03*
X25282000Y-6086000D03*
X26082000Y-12486000D03*
X26082000Y-6086000D03*
X26882000Y-12486000D03*
X26882000Y-6086000D03*
X27682000Y-12486000D03*
X27682000Y-6086000D03*
X28482000Y-12486000D03*
X28482000Y-6086000D03*
X29282000Y-12486000D03*
X29282000Y-6086000D03*
X30082000Y-12486000D03*
X30082000Y-6086000D03*
D20*
X30532000Y-9286000D03*
D21*
X25632000Y-9286000D03*
X19332000Y-9286000D03*
D22*
X14432000Y-9286000D03*
D23*
X2885200Y-17686400D03*
X2885200Y-15961400D03*
D24*
X16251600Y-33873200D03*
X16251600Y-35598200D03*
D25*
X9293000Y-8371800D03*
X11118000Y-8371800D03*
D26*
X33284000Y-16082000D03*
X31184000Y-16082000D03*
D27*
X5124700Y-19993600D03*
X6849700Y-19993600D03*
D23*
X4662100Y-17682200D03*
X4662100Y-15957200D03*
D28*
X6360100Y-17682200D03*
X6360100Y-16432200D03*
X6360100Y-15182200D03*
X8010100Y-15182200D03*
X8010100Y-16432200D03*
X8010100Y-17682200D03*
D23*
X27424800Y-37060200D03*
X27424800Y-35335200D03*
D24*
X24481200Y-33824600D03*
X24481200Y-35549600D03*
D23*
X35451200Y-37061300D03*
X35451200Y-35336300D03*
X11118000Y-37060200D03*
X11118000Y-35335200D03*
D29*
X4615600Y-30356800D03*
X2890600Y-30356800D03*
X6750000Y-5175000D03*
X5025000Y-5175000D03*
D30*
X2315600Y-22194600D03*
X4615600Y-22194600D03*
X6915600Y-22194600D03*
D31*
X4615600Y-27994600D03*
D23*
X19296800Y-37112100D03*
X19296800Y-35387100D03*
D24*
X8022000Y-33926200D03*
X8022000Y-35651200D03*
D32*
X9658700Y-16713200D03*
X9658700Y-14888200D03*
D33*
X11208000Y-6653000D03*
D34*
X10758000Y-6653000D03*
X10308000Y-6653000D03*
X9858000Y-6653000D03*
D35*
X9408000Y-6653000D03*
D36*
X8858000Y-6103000D03*
D37*
X8858000Y-5653000D03*
X8858000Y-5203000D03*
X8858000Y-4753000D03*
D38*
X8858000Y-4303000D03*
D39*
X9408000Y-3753000D03*
D34*
X9858000Y-3753000D03*
X10308000Y-3753000D03*
X10758000Y-3753000D03*
D40*
X11208000Y-3753000D03*
D41*
X11758000Y-4303000D03*
D37*
X11758000Y-4753000D03*
X11758000Y-5203000D03*
X11758000Y-5653000D03*
D42*
X11758000Y-6103000D03*
D43*
X10308000Y-5203000D03*
D24*
X32558400Y-33720800D03*
X32558400Y-35445800D03*
M02*
