%TF.GenerationSoftware,KiCad,Pcbnew,7.0.1*%
%TF.CreationDate,2023-09-03T17:39:20-04:00*%
%TF.ProjectId,syzygy-breakout-flash-LVL,73797a79-6779-42d6-9272-65616b6f7574,r1.0*%
%TF.SameCoordinates,PX66851e0PY4d70380*%
%TF.FileFunction,Legend,Top*%
%TF.FilePolarity,Positive*%
%FSLAX46Y46*%
G04 Gerber Fmt 4.6, Leading zero omitted, Abs format (unit mm)*
G04 Created by KiCad (PCBNEW 7.0.1) date 2023-09-03 17:39:20*
%MOMM*%
%LPD*%
G01*
G04 APERTURE LIST*
G04 Aperture macros list*
%AMRoundRect*
0 Rectangle with rounded corners*
0 $1 Rounding radius*
0 $2 $3 $4 $5 $6 $7 $8 $9 X,Y pos of 4 corners*
0 Add a 4 corners polygon primitive as box body*
4,1,4,$2,$3,$4,$5,$6,$7,$8,$9,$2,$3,0*
0 Add four circle primitives for the rounded corners*
1,1,$1+$1,$2,$3*
1,1,$1+$1,$4,$5*
1,1,$1+$1,$6,$7*
1,1,$1+$1,$8,$9*
0 Add four rect primitives between the rounded corners*
20,1,$1+$1,$2,$3,$4,$5,0*
20,1,$1+$1,$4,$5,$6,$7,0*
20,1,$1+$1,$6,$7,$8,$9,0*
20,1,$1+$1,$8,$9,$2,$3,0*%
G04 Aperture macros list end*
%ADD10C,0.150000*%
%ADD11C,0.200000*%
%ADD12C,0.300000*%
%ADD13C,0.127000*%
%ADD14C,0.120000*%
%ADD15RoundRect,0.071300X-0.184500X0.764500X-0.184500X-0.764500X0.184500X-0.764500X0.184500X0.764500X0*%
%ADD16RoundRect,0.050800X-0.850000X-0.850000X0.850000X-0.850000X0.850000X0.850000X-0.850000X0.850000X0*%
%ADD17O,1.801600X1.801600*%
%ADD18RoundRect,0.050800X0.850000X0.850000X-0.850000X0.850000X-0.850000X-0.850000X0.850000X-0.850000X0*%
%ADD19C,0.886460*%
%ADD20C,6.301600*%
%ADD21C,1.051600*%
G04 APERTURE END LIST*
D10*
X39524476Y-39882095D02*
X39524476Y-39082095D01*
X39524476Y-39082095D02*
X39714952Y-39082095D01*
X39714952Y-39082095D02*
X39829238Y-39120190D01*
X39829238Y-39120190D02*
X39905428Y-39196380D01*
X39905428Y-39196380D02*
X39943523Y-39272571D01*
X39943523Y-39272571D02*
X39981619Y-39424952D01*
X39981619Y-39424952D02*
X39981619Y-39539238D01*
X39981619Y-39539238D02*
X39943523Y-39691619D01*
X39943523Y-39691619D02*
X39905428Y-39767809D01*
X39905428Y-39767809D02*
X39829238Y-39844000D01*
X39829238Y-39844000D02*
X39714952Y-39882095D01*
X39714952Y-39882095D02*
X39524476Y-39882095D01*
X40476857Y-39082095D02*
X40553047Y-39082095D01*
X40553047Y-39082095D02*
X40629238Y-39120190D01*
X40629238Y-39120190D02*
X40667333Y-39158285D01*
X40667333Y-39158285D02*
X40705428Y-39234476D01*
X40705428Y-39234476D02*
X40743523Y-39386857D01*
X40743523Y-39386857D02*
X40743523Y-39577333D01*
X40743523Y-39577333D02*
X40705428Y-39729714D01*
X40705428Y-39729714D02*
X40667333Y-39805904D01*
X40667333Y-39805904D02*
X40629238Y-39844000D01*
X40629238Y-39844000D02*
X40553047Y-39882095D01*
X40553047Y-39882095D02*
X40476857Y-39882095D01*
X40476857Y-39882095D02*
X40400666Y-39844000D01*
X40400666Y-39844000D02*
X40362571Y-39805904D01*
X40362571Y-39805904D02*
X40324476Y-39729714D01*
X40324476Y-39729714D02*
X40286380Y-39577333D01*
X40286380Y-39577333D02*
X40286380Y-39386857D01*
X40286380Y-39386857D02*
X40324476Y-39234476D01*
X40324476Y-39234476D02*
X40362571Y-39158285D01*
X40362571Y-39158285D02*
X40400666Y-39120190D01*
X40400666Y-39120190D02*
X40476857Y-39082095D01*
X41086381Y-39882095D02*
X41086381Y-39082095D01*
X41086381Y-39082095D02*
X41543524Y-39882095D01*
X41543524Y-39882095D02*
X41543524Y-39082095D01*
D11*
X34971428Y-50709109D02*
X34914285Y-50766252D01*
X34914285Y-50766252D02*
X34742857Y-50823394D01*
X34742857Y-50823394D02*
X34628571Y-50823394D01*
X34628571Y-50823394D02*
X34457142Y-50766252D01*
X34457142Y-50766252D02*
X34342857Y-50651966D01*
X34342857Y-50651966D02*
X34285714Y-50537680D01*
X34285714Y-50537680D02*
X34228571Y-50309109D01*
X34228571Y-50309109D02*
X34228571Y-50137680D01*
X34228571Y-50137680D02*
X34285714Y-49909109D01*
X34285714Y-49909109D02*
X34342857Y-49794823D01*
X34342857Y-49794823D02*
X34457142Y-49680537D01*
X34457142Y-49680537D02*
X34628571Y-49623394D01*
X34628571Y-49623394D02*
X34742857Y-49623394D01*
X34742857Y-49623394D02*
X34914285Y-49680537D01*
X34914285Y-49680537D02*
X34971428Y-49737680D01*
X35371428Y-49623394D02*
X36114285Y-49623394D01*
X36114285Y-49623394D02*
X35714285Y-50080537D01*
X35714285Y-50080537D02*
X35885714Y-50080537D01*
X35885714Y-50080537D02*
X36000000Y-50137680D01*
X36000000Y-50137680D02*
X36057142Y-50194823D01*
X36057142Y-50194823D02*
X36114285Y-50309109D01*
X36114285Y-50309109D02*
X36114285Y-50594823D01*
X36114285Y-50594823D02*
X36057142Y-50709109D01*
X36057142Y-50709109D02*
X36000000Y-50766252D01*
X36000000Y-50766252D02*
X35885714Y-50823394D01*
X35885714Y-50823394D02*
X35542857Y-50823394D01*
X35542857Y-50823394D02*
X35428571Y-50766252D01*
X35428571Y-50766252D02*
X35371428Y-50709109D01*
X9357142Y-60869843D02*
X8785714Y-60869843D01*
X8785714Y-60869843D02*
X8785714Y-59669843D01*
X10385714Y-60869843D02*
X9700000Y-60869843D01*
X10042857Y-60869843D02*
X10042857Y-59669843D01*
X10042857Y-59669843D02*
X9928571Y-59841272D01*
X9928571Y-59841272D02*
X9814286Y-59955558D01*
X9814286Y-59955558D02*
X9700000Y-60012701D01*
D12*
X12720952Y-1611809D02*
X13673333Y-1611809D01*
X12530476Y-2183238D02*
X13197142Y-183238D01*
X13197142Y-183238D02*
X13863809Y-2183238D01*
X15387619Y-2183238D02*
X15387619Y-183238D01*
X15387619Y-2088000D02*
X15197143Y-2183238D01*
X15197143Y-2183238D02*
X14816190Y-2183238D01*
X14816190Y-2183238D02*
X14625714Y-2088000D01*
X14625714Y-2088000D02*
X14530476Y-1992761D01*
X14530476Y-1992761D02*
X14435238Y-1802285D01*
X14435238Y-1802285D02*
X14435238Y-1230857D01*
X14435238Y-1230857D02*
X14530476Y-1040380D01*
X14530476Y-1040380D02*
X14625714Y-945142D01*
X14625714Y-945142D02*
X14816190Y-849904D01*
X14816190Y-849904D02*
X15197143Y-849904D01*
X15197143Y-849904D02*
X15387619Y-945142D01*
X17197143Y-2183238D02*
X17197143Y-1135619D01*
X17197143Y-1135619D02*
X17101905Y-945142D01*
X17101905Y-945142D02*
X16911429Y-849904D01*
X16911429Y-849904D02*
X16530476Y-849904D01*
X16530476Y-849904D02*
X16340000Y-945142D01*
X17197143Y-2088000D02*
X17006667Y-2183238D01*
X17006667Y-2183238D02*
X16530476Y-2183238D01*
X16530476Y-2183238D02*
X16340000Y-2088000D01*
X16340000Y-2088000D02*
X16244762Y-1897523D01*
X16244762Y-1897523D02*
X16244762Y-1707047D01*
X16244762Y-1707047D02*
X16340000Y-1516571D01*
X16340000Y-1516571D02*
X16530476Y-1421333D01*
X16530476Y-1421333D02*
X17006667Y-1421333D01*
X17006667Y-1421333D02*
X17197143Y-1326095D01*
X18149524Y-2183238D02*
X18149524Y-849904D01*
X18149524Y-1040380D02*
X18244762Y-945142D01*
X18244762Y-945142D02*
X18435238Y-849904D01*
X18435238Y-849904D02*
X18720953Y-849904D01*
X18720953Y-849904D02*
X18911429Y-945142D01*
X18911429Y-945142D02*
X19006667Y-1135619D01*
X19006667Y-1135619D02*
X19006667Y-2183238D01*
X19006667Y-1135619D02*
X19101905Y-945142D01*
X19101905Y-945142D02*
X19292381Y-849904D01*
X19292381Y-849904D02*
X19578095Y-849904D01*
X19578095Y-849904D02*
X19768572Y-945142D01*
X19768572Y-945142D02*
X19863810Y-1135619D01*
X19863810Y-1135619D02*
X19863810Y-2183238D01*
X23482858Y-1992761D02*
X23387620Y-2088000D01*
X23387620Y-2088000D02*
X23101906Y-2183238D01*
X23101906Y-2183238D02*
X22911430Y-2183238D01*
X22911430Y-2183238D02*
X22625715Y-2088000D01*
X22625715Y-2088000D02*
X22435239Y-1897523D01*
X22435239Y-1897523D02*
X22340001Y-1707047D01*
X22340001Y-1707047D02*
X22244763Y-1326095D01*
X22244763Y-1326095D02*
X22244763Y-1040380D01*
X22244763Y-1040380D02*
X22340001Y-659428D01*
X22340001Y-659428D02*
X22435239Y-468952D01*
X22435239Y-468952D02*
X22625715Y-278476D01*
X22625715Y-278476D02*
X22911430Y-183238D01*
X22911430Y-183238D02*
X23101906Y-183238D01*
X23101906Y-183238D02*
X23387620Y-278476D01*
X23387620Y-278476D02*
X23482858Y-373714D01*
X24340001Y-2183238D02*
X24340001Y-849904D01*
X24340001Y-1230857D02*
X24435239Y-1040380D01*
X24435239Y-1040380D02*
X24530477Y-945142D01*
X24530477Y-945142D02*
X24720953Y-849904D01*
X24720953Y-849904D02*
X24911430Y-849904D01*
X25578096Y-2183238D02*
X25578096Y-849904D01*
X25578096Y-183238D02*
X25482858Y-278476D01*
X25482858Y-278476D02*
X25578096Y-373714D01*
X25578096Y-373714D02*
X25673334Y-278476D01*
X25673334Y-278476D02*
X25578096Y-183238D01*
X25578096Y-183238D02*
X25578096Y-373714D01*
X26244763Y-849904D02*
X27006667Y-849904D01*
X26530477Y-183238D02*
X26530477Y-1897523D01*
X26530477Y-1897523D02*
X26625715Y-2088000D01*
X26625715Y-2088000D02*
X26816191Y-2183238D01*
X26816191Y-2183238D02*
X27006667Y-2183238D01*
X28530477Y-2088000D02*
X28340001Y-2183238D01*
X28340001Y-2183238D02*
X27959048Y-2183238D01*
X27959048Y-2183238D02*
X27768572Y-2088000D01*
X27768572Y-2088000D02*
X27673334Y-1992761D01*
X27673334Y-1992761D02*
X27578096Y-1802285D01*
X27578096Y-1802285D02*
X27578096Y-1230857D01*
X27578096Y-1230857D02*
X27673334Y-1040380D01*
X27673334Y-1040380D02*
X27768572Y-945142D01*
X27768572Y-945142D02*
X27959048Y-849904D01*
X27959048Y-849904D02*
X28340001Y-849904D01*
X28340001Y-849904D02*
X28530477Y-945142D01*
X29387620Y-2183238D02*
X29387620Y-183238D01*
X30244763Y-2183238D02*
X30244763Y-1135619D01*
X30244763Y-1135619D02*
X30149525Y-945142D01*
X30149525Y-945142D02*
X29959049Y-849904D01*
X29959049Y-849904D02*
X29673334Y-849904D01*
X29673334Y-849904D02*
X29482858Y-945142D01*
X29482858Y-945142D02*
X29387620Y-1040380D01*
X31482858Y-2183238D02*
X31292382Y-2088000D01*
X31292382Y-2088000D02*
X31197144Y-1897523D01*
X31197144Y-1897523D02*
X31197144Y-183238D01*
X33006668Y-2088000D02*
X32816192Y-2183238D01*
X32816192Y-2183238D02*
X32435239Y-2183238D01*
X32435239Y-2183238D02*
X32244763Y-2088000D01*
X32244763Y-2088000D02*
X32149525Y-1897523D01*
X32149525Y-1897523D02*
X32149525Y-1135619D01*
X32149525Y-1135619D02*
X32244763Y-945142D01*
X32244763Y-945142D02*
X32435239Y-849904D01*
X32435239Y-849904D02*
X32816192Y-849904D01*
X32816192Y-849904D02*
X33006668Y-945142D01*
X33006668Y-945142D02*
X33101906Y-1135619D01*
X33101906Y-1135619D02*
X33101906Y-1326095D01*
X33101906Y-1326095D02*
X32149525Y-1516571D01*
X33768573Y-849904D02*
X34244763Y-2183238D01*
X34720954Y-849904D02*
X34244763Y-2183238D01*
X34244763Y-2183238D02*
X34054287Y-2659428D01*
X34054287Y-2659428D02*
X33959049Y-2754666D01*
X33959049Y-2754666D02*
X33768573Y-2849904D01*
D11*
X7911142Y-15417942D02*
X7339714Y-15417942D01*
X7339714Y-15417942D02*
X7339714Y-14217942D01*
X8825429Y-14617942D02*
X8825429Y-15417942D01*
X8539714Y-14160800D02*
X8254000Y-15017942D01*
X8254000Y-15017942D02*
X8996857Y-15017942D01*
D10*
X2037820Y-83578248D02*
X2037820Y-82778248D01*
X2037820Y-82778248D02*
X2228296Y-82778248D01*
X2228296Y-82778248D02*
X2342582Y-82816343D01*
X2342582Y-82816343D02*
X2418772Y-82892533D01*
X2418772Y-82892533D02*
X2456867Y-82968724D01*
X2456867Y-82968724D02*
X2494963Y-83121105D01*
X2494963Y-83121105D02*
X2494963Y-83235391D01*
X2494963Y-83235391D02*
X2456867Y-83387772D01*
X2456867Y-83387772D02*
X2418772Y-83463962D01*
X2418772Y-83463962D02*
X2342582Y-83540153D01*
X2342582Y-83540153D02*
X2228296Y-83578248D01*
X2228296Y-83578248D02*
X2037820Y-83578248D01*
X3256867Y-83578248D02*
X2799724Y-83578248D01*
X3028296Y-83578248D02*
X3028296Y-82778248D01*
X3028296Y-82778248D02*
X2952105Y-82892533D01*
X2952105Y-82892533D02*
X2875915Y-82968724D01*
X2875915Y-82968724D02*
X2799724Y-83006819D01*
X3599725Y-83578248D02*
X3599725Y-82778248D01*
X3599725Y-82778248D02*
X3904487Y-82778248D01*
X3904487Y-82778248D02*
X3980677Y-82816343D01*
X3980677Y-82816343D02*
X4018772Y-82854438D01*
X4018772Y-82854438D02*
X4056868Y-82930629D01*
X4056868Y-82930629D02*
X4056868Y-83044914D01*
X4056868Y-83044914D02*
X4018772Y-83121105D01*
X4018772Y-83121105D02*
X3980677Y-83159200D01*
X3980677Y-83159200D02*
X3904487Y-83197295D01*
X3904487Y-83197295D02*
X3599725Y-83197295D01*
D11*
X8785714Y-83693142D02*
X8785714Y-82493142D01*
X8785714Y-82493142D02*
X9471428Y-83693142D01*
X9471428Y-83693142D02*
X9471428Y-82493142D01*
X9985714Y-82607428D02*
X10042857Y-82550285D01*
X10042857Y-82550285D02*
X10157143Y-82493142D01*
X10157143Y-82493142D02*
X10442857Y-82493142D01*
X10442857Y-82493142D02*
X10557143Y-82550285D01*
X10557143Y-82550285D02*
X10614285Y-82607428D01*
X10614285Y-82607428D02*
X10671428Y-82721714D01*
X10671428Y-82721714D02*
X10671428Y-82836000D01*
X10671428Y-82836000D02*
X10614285Y-83007428D01*
X10614285Y-83007428D02*
X9928571Y-83693142D01*
X9928571Y-83693142D02*
X10671428Y-83693142D01*
X7938143Y-17449942D02*
X7366715Y-17449942D01*
X7366715Y-17449942D02*
X7366715Y-16249942D01*
X8223858Y-16249942D02*
X8966715Y-16249942D01*
X8966715Y-16249942D02*
X8566715Y-16707085D01*
X8566715Y-16707085D02*
X8738144Y-16707085D01*
X8738144Y-16707085D02*
X8852430Y-16764228D01*
X8852430Y-16764228D02*
X8909572Y-16821371D01*
X8909572Y-16821371D02*
X8966715Y-16935657D01*
X8966715Y-16935657D02*
X8966715Y-17221371D01*
X8966715Y-17221371D02*
X8909572Y-17335657D01*
X8909572Y-17335657D02*
X8852430Y-17392800D01*
X8852430Y-17392800D02*
X8738144Y-17449942D01*
X8738144Y-17449942D02*
X8395287Y-17449942D01*
X8395287Y-17449942D02*
X8281001Y-17392800D01*
X8281001Y-17392800D02*
X8223858Y-17335657D01*
D10*
X40757918Y-60536863D02*
X40872204Y-60574958D01*
X40872204Y-60574958D02*
X41062680Y-60574958D01*
X41062680Y-60574958D02*
X41138871Y-60536863D01*
X41138871Y-60536863D02*
X41176966Y-60498767D01*
X41176966Y-60498767D02*
X41215061Y-60422577D01*
X41215061Y-60422577D02*
X41215061Y-60346386D01*
X41215061Y-60346386D02*
X41176966Y-60270196D01*
X41176966Y-60270196D02*
X41138871Y-60232101D01*
X41138871Y-60232101D02*
X41062680Y-60194005D01*
X41062680Y-60194005D02*
X40910299Y-60155910D01*
X40910299Y-60155910D02*
X40834109Y-60117815D01*
X40834109Y-60117815D02*
X40796014Y-60079720D01*
X40796014Y-60079720D02*
X40757918Y-60003529D01*
X40757918Y-60003529D02*
X40757918Y-59927339D01*
X40757918Y-59927339D02*
X40796014Y-59851148D01*
X40796014Y-59851148D02*
X40834109Y-59813053D01*
X40834109Y-59813053D02*
X40910299Y-59774958D01*
X40910299Y-59774958D02*
X41100776Y-59774958D01*
X41100776Y-59774958D02*
X41215061Y-59813053D01*
X41976966Y-60574958D02*
X41519823Y-60574958D01*
X41748395Y-60574958D02*
X41748395Y-59774958D01*
X41748395Y-59774958D02*
X41672204Y-59889243D01*
X41672204Y-59889243D02*
X41596014Y-59965434D01*
X41596014Y-59965434D02*
X41519823Y-60003529D01*
X42434109Y-60117815D02*
X42357919Y-60079720D01*
X42357919Y-60079720D02*
X42319824Y-60041624D01*
X42319824Y-60041624D02*
X42281728Y-59965434D01*
X42281728Y-59965434D02*
X42281728Y-59927339D01*
X42281728Y-59927339D02*
X42319824Y-59851148D01*
X42319824Y-59851148D02*
X42357919Y-59813053D01*
X42357919Y-59813053D02*
X42434109Y-59774958D01*
X42434109Y-59774958D02*
X42586490Y-59774958D01*
X42586490Y-59774958D02*
X42662681Y-59813053D01*
X42662681Y-59813053D02*
X42700776Y-59851148D01*
X42700776Y-59851148D02*
X42738871Y-59927339D01*
X42738871Y-59927339D02*
X42738871Y-59965434D01*
X42738871Y-59965434D02*
X42700776Y-60041624D01*
X42700776Y-60041624D02*
X42662681Y-60079720D01*
X42662681Y-60079720D02*
X42586490Y-60117815D01*
X42586490Y-60117815D02*
X42434109Y-60117815D01*
X42434109Y-60117815D02*
X42357919Y-60155910D01*
X42357919Y-60155910D02*
X42319824Y-60194005D01*
X42319824Y-60194005D02*
X42281728Y-60270196D01*
X42281728Y-60270196D02*
X42281728Y-60422577D01*
X42281728Y-60422577D02*
X42319824Y-60498767D01*
X42319824Y-60498767D02*
X42357919Y-60536863D01*
X42357919Y-60536863D02*
X42434109Y-60574958D01*
X42434109Y-60574958D02*
X42586490Y-60574958D01*
X42586490Y-60574958D02*
X42662681Y-60536863D01*
X42662681Y-60536863D02*
X42700776Y-60498767D01*
X42700776Y-60498767D02*
X42738871Y-60422577D01*
X42738871Y-60422577D02*
X42738871Y-60270196D01*
X42738871Y-60270196D02*
X42700776Y-60194005D01*
X42700776Y-60194005D02*
X42662681Y-60155910D01*
X42662681Y-60155910D02*
X42586490Y-60117815D01*
X2018772Y-81067093D02*
X2018772Y-80267093D01*
X2018772Y-80267093D02*
X2209248Y-80267093D01*
X2209248Y-80267093D02*
X2323534Y-80305188D01*
X2323534Y-80305188D02*
X2399724Y-80381378D01*
X2399724Y-80381378D02*
X2437819Y-80457569D01*
X2437819Y-80457569D02*
X2475915Y-80609950D01*
X2475915Y-80609950D02*
X2475915Y-80724236D01*
X2475915Y-80724236D02*
X2437819Y-80876617D01*
X2437819Y-80876617D02*
X2399724Y-80952807D01*
X2399724Y-80952807D02*
X2323534Y-81028998D01*
X2323534Y-81028998D02*
X2209248Y-81067093D01*
X2209248Y-81067093D02*
X2018772Y-81067093D01*
X3237819Y-81067093D02*
X2780676Y-81067093D01*
X3009248Y-81067093D02*
X3009248Y-80267093D01*
X3009248Y-80267093D02*
X2933057Y-80381378D01*
X2933057Y-80381378D02*
X2856867Y-80457569D01*
X2856867Y-80457569D02*
X2780676Y-80495664D01*
X3580677Y-81067093D02*
X3580677Y-80267093D01*
X3580677Y-80267093D02*
X4037820Y-81067093D01*
X4037820Y-81067093D02*
X4037820Y-80267093D01*
D11*
X27173714Y-23495285D02*
X27059429Y-23438142D01*
X27059429Y-23438142D02*
X26888000Y-23438142D01*
X26888000Y-23438142D02*
X26716571Y-23495285D01*
X26716571Y-23495285D02*
X26602286Y-23609571D01*
X26602286Y-23609571D02*
X26545143Y-23723857D01*
X26545143Y-23723857D02*
X26488000Y-23952428D01*
X26488000Y-23952428D02*
X26488000Y-24123857D01*
X26488000Y-24123857D02*
X26545143Y-24352428D01*
X26545143Y-24352428D02*
X26602286Y-24466714D01*
X26602286Y-24466714D02*
X26716571Y-24581000D01*
X26716571Y-24581000D02*
X26888000Y-24638142D01*
X26888000Y-24638142D02*
X27002286Y-24638142D01*
X27002286Y-24638142D02*
X27173714Y-24581000D01*
X27173714Y-24581000D02*
X27230857Y-24523857D01*
X27230857Y-24523857D02*
X27230857Y-24123857D01*
X27230857Y-24123857D02*
X27002286Y-24123857D01*
X27745143Y-24638142D02*
X27745143Y-23438142D01*
X27745143Y-23438142D02*
X28430857Y-24638142D01*
X28430857Y-24638142D02*
X28430857Y-23438142D01*
X29002286Y-24638142D02*
X29002286Y-23438142D01*
X29002286Y-23438142D02*
X29288000Y-23438142D01*
X29288000Y-23438142D02*
X29459429Y-23495285D01*
X29459429Y-23495285D02*
X29573714Y-23609571D01*
X29573714Y-23609571D02*
X29630857Y-23723857D01*
X29630857Y-23723857D02*
X29688000Y-23952428D01*
X29688000Y-23952428D02*
X29688000Y-24123857D01*
X29688000Y-24123857D02*
X29630857Y-24352428D01*
X29630857Y-24352428D02*
X29573714Y-24466714D01*
X29573714Y-24466714D02*
X29459429Y-24581000D01*
X29459429Y-24581000D02*
X29288000Y-24638142D01*
X29288000Y-24638142D02*
X29002286Y-24638142D01*
D10*
X41524667Y-80291025D02*
X41486571Y-80329121D01*
X41486571Y-80329121D02*
X41372286Y-80367216D01*
X41372286Y-80367216D02*
X41296095Y-80367216D01*
X41296095Y-80367216D02*
X41181809Y-80329121D01*
X41181809Y-80329121D02*
X41105619Y-80252930D01*
X41105619Y-80252930D02*
X41067524Y-80176740D01*
X41067524Y-80176740D02*
X41029428Y-80024359D01*
X41029428Y-80024359D02*
X41029428Y-79910073D01*
X41029428Y-79910073D02*
X41067524Y-79757692D01*
X41067524Y-79757692D02*
X41105619Y-79681501D01*
X41105619Y-79681501D02*
X41181809Y-79605311D01*
X41181809Y-79605311D02*
X41296095Y-79567216D01*
X41296095Y-79567216D02*
X41372286Y-79567216D01*
X41372286Y-79567216D02*
X41486571Y-79605311D01*
X41486571Y-79605311D02*
X41524667Y-79643406D01*
X41829428Y-79643406D02*
X41867524Y-79605311D01*
X41867524Y-79605311D02*
X41943714Y-79567216D01*
X41943714Y-79567216D02*
X42134190Y-79567216D01*
X42134190Y-79567216D02*
X42210381Y-79605311D01*
X42210381Y-79605311D02*
X42248476Y-79643406D01*
X42248476Y-79643406D02*
X42286571Y-79719597D01*
X42286571Y-79719597D02*
X42286571Y-79795787D01*
X42286571Y-79795787D02*
X42248476Y-79910073D01*
X42248476Y-79910073D02*
X41791333Y-80367216D01*
X41791333Y-80367216D02*
X42286571Y-80367216D01*
X42629429Y-80367216D02*
X42629429Y-79567216D01*
X42629429Y-79567216D02*
X42934191Y-79567216D01*
X42934191Y-79567216D02*
X43010381Y-79605311D01*
X43010381Y-79605311D02*
X43048476Y-79643406D01*
X43048476Y-79643406D02*
X43086572Y-79719597D01*
X43086572Y-79719597D02*
X43086572Y-79833882D01*
X43086572Y-79833882D02*
X43048476Y-79910073D01*
X43048476Y-79910073D02*
X43010381Y-79948168D01*
X43010381Y-79948168D02*
X42934191Y-79986263D01*
X42934191Y-79986263D02*
X42629429Y-79986263D01*
X40229429Y-81358454D02*
X40838953Y-81358454D01*
X41677048Y-81587025D02*
X41638952Y-81625121D01*
X41638952Y-81625121D02*
X41524667Y-81663216D01*
X41524667Y-81663216D02*
X41448476Y-81663216D01*
X41448476Y-81663216D02*
X41334190Y-81625121D01*
X41334190Y-81625121D02*
X41258000Y-81548930D01*
X41258000Y-81548930D02*
X41219905Y-81472740D01*
X41219905Y-81472740D02*
X41181809Y-81320359D01*
X41181809Y-81320359D02*
X41181809Y-81206073D01*
X41181809Y-81206073D02*
X41219905Y-81053692D01*
X41219905Y-81053692D02*
X41258000Y-80977501D01*
X41258000Y-80977501D02*
X41334190Y-80901311D01*
X41334190Y-80901311D02*
X41448476Y-80863216D01*
X41448476Y-80863216D02*
X41524667Y-80863216D01*
X41524667Y-80863216D02*
X41638952Y-80901311D01*
X41638952Y-80901311D02*
X41677048Y-80939406D01*
X42400857Y-81663216D02*
X42019905Y-81663216D01*
X42019905Y-81663216D02*
X42019905Y-80863216D01*
X42667524Y-81663216D02*
X42667524Y-80863216D01*
X43124667Y-81663216D02*
X42781809Y-81206073D01*
X43124667Y-80863216D02*
X42667524Y-81320359D01*
X43467524Y-81663216D02*
X43467524Y-80863216D01*
X43467524Y-80863216D02*
X43772286Y-80863216D01*
X43772286Y-80863216D02*
X43848476Y-80901311D01*
X43848476Y-80901311D02*
X43886571Y-80939406D01*
X43886571Y-80939406D02*
X43924667Y-81015597D01*
X43924667Y-81015597D02*
X43924667Y-81129882D01*
X43924667Y-81129882D02*
X43886571Y-81206073D01*
X43886571Y-81206073D02*
X43848476Y-81244168D01*
X43848476Y-81244168D02*
X43772286Y-81282263D01*
X43772286Y-81282263D02*
X43467524Y-81282263D01*
D11*
X34285714Y-62723594D02*
X34685714Y-62723594D01*
X34857142Y-63352165D02*
X34285714Y-63352165D01*
X34285714Y-63352165D02*
X34285714Y-62152165D01*
X34285714Y-62152165D02*
X34857142Y-62152165D01*
X35885714Y-62552165D02*
X35885714Y-63352165D01*
X35599999Y-62095023D02*
X35314285Y-62952165D01*
X35314285Y-62952165D02*
X36057142Y-62952165D01*
D10*
X40784919Y-52976398D02*
X40899205Y-53014493D01*
X40899205Y-53014493D02*
X41089681Y-53014493D01*
X41089681Y-53014493D02*
X41165872Y-52976398D01*
X41165872Y-52976398D02*
X41203967Y-52938302D01*
X41203967Y-52938302D02*
X41242062Y-52862112D01*
X41242062Y-52862112D02*
X41242062Y-52785921D01*
X41242062Y-52785921D02*
X41203967Y-52709731D01*
X41203967Y-52709731D02*
X41165872Y-52671636D01*
X41165872Y-52671636D02*
X41089681Y-52633540D01*
X41089681Y-52633540D02*
X40937300Y-52595445D01*
X40937300Y-52595445D02*
X40861110Y-52557350D01*
X40861110Y-52557350D02*
X40823015Y-52519255D01*
X40823015Y-52519255D02*
X40784919Y-52443064D01*
X40784919Y-52443064D02*
X40784919Y-52366874D01*
X40784919Y-52366874D02*
X40823015Y-52290683D01*
X40823015Y-52290683D02*
X40861110Y-52252588D01*
X40861110Y-52252588D02*
X40937300Y-52214493D01*
X40937300Y-52214493D02*
X41127777Y-52214493D01*
X41127777Y-52214493D02*
X41242062Y-52252588D01*
X41546824Y-52290683D02*
X41584920Y-52252588D01*
X41584920Y-52252588D02*
X41661110Y-52214493D01*
X41661110Y-52214493D02*
X41851586Y-52214493D01*
X41851586Y-52214493D02*
X41927777Y-52252588D01*
X41927777Y-52252588D02*
X41965872Y-52290683D01*
X41965872Y-52290683D02*
X42003967Y-52366874D01*
X42003967Y-52366874D02*
X42003967Y-52443064D01*
X42003967Y-52443064D02*
X41965872Y-52557350D01*
X41965872Y-52557350D02*
X41508729Y-53014493D01*
X41508729Y-53014493D02*
X42003967Y-53014493D01*
X42689682Y-52481159D02*
X42689682Y-53014493D01*
X42499206Y-52176398D02*
X42308729Y-52747826D01*
X42308729Y-52747826D02*
X42803968Y-52747826D01*
D11*
X27231128Y-18231142D02*
X27631128Y-19431142D01*
X27631128Y-19431142D02*
X28031128Y-18231142D01*
X28431128Y-19431142D02*
X28431128Y-18231142D01*
X29002557Y-19431142D02*
X29002557Y-18231142D01*
X29002557Y-18231142D02*
X29688271Y-19431142D01*
X29688271Y-19431142D02*
X29688271Y-18231142D01*
D10*
X40738871Y-75857899D02*
X40738871Y-75057899D01*
X40738871Y-75057899D02*
X40929347Y-75057899D01*
X40929347Y-75057899D02*
X41043633Y-75095994D01*
X41043633Y-75095994D02*
X41119823Y-75172184D01*
X41119823Y-75172184D02*
X41157918Y-75248375D01*
X41157918Y-75248375D02*
X41196014Y-75400756D01*
X41196014Y-75400756D02*
X41196014Y-75515042D01*
X41196014Y-75515042D02*
X41157918Y-75667423D01*
X41157918Y-75667423D02*
X41119823Y-75743613D01*
X41119823Y-75743613D02*
X41043633Y-75819804D01*
X41043633Y-75819804D02*
X40929347Y-75857899D01*
X40929347Y-75857899D02*
X40738871Y-75857899D01*
X41500775Y-75134089D02*
X41538871Y-75095994D01*
X41538871Y-75095994D02*
X41615061Y-75057899D01*
X41615061Y-75057899D02*
X41805537Y-75057899D01*
X41805537Y-75057899D02*
X41881728Y-75095994D01*
X41881728Y-75095994D02*
X41919823Y-75134089D01*
X41919823Y-75134089D02*
X41957918Y-75210280D01*
X41957918Y-75210280D02*
X41957918Y-75286470D01*
X41957918Y-75286470D02*
X41919823Y-75400756D01*
X41919823Y-75400756D02*
X41462680Y-75857899D01*
X41462680Y-75857899D02*
X41957918Y-75857899D01*
X42300776Y-75857899D02*
X42300776Y-75057899D01*
X42300776Y-75057899D02*
X42757919Y-75857899D01*
X42757919Y-75857899D02*
X42757919Y-75057899D01*
D11*
X9185714Y-55173177D02*
X8785714Y-55173177D01*
X8785714Y-55801748D02*
X8785714Y-54601748D01*
X8785714Y-54601748D02*
X9357142Y-54601748D01*
X9757142Y-54716034D02*
X9814285Y-54658891D01*
X9814285Y-54658891D02*
X9928571Y-54601748D01*
X9928571Y-54601748D02*
X10214285Y-54601748D01*
X10214285Y-54601748D02*
X10328571Y-54658891D01*
X10328571Y-54658891D02*
X10385713Y-54716034D01*
X10385713Y-54716034D02*
X10442856Y-54830320D01*
X10442856Y-54830320D02*
X10442856Y-54944606D01*
X10442856Y-54944606D02*
X10385713Y-55116034D01*
X10385713Y-55116034D02*
X9699999Y-55801748D01*
X9699999Y-55801748D02*
X10442856Y-55801748D01*
X34285714Y-53334548D02*
X34285714Y-52134548D01*
X34285714Y-52134548D02*
X34571428Y-52134548D01*
X34571428Y-52134548D02*
X34742857Y-52191691D01*
X34742857Y-52191691D02*
X34857142Y-52305977D01*
X34857142Y-52305977D02*
X34914285Y-52420263D01*
X34914285Y-52420263D02*
X34971428Y-52648834D01*
X34971428Y-52648834D02*
X34971428Y-52820263D01*
X34971428Y-52820263D02*
X34914285Y-53048834D01*
X34914285Y-53048834D02*
X34857142Y-53163120D01*
X34857142Y-53163120D02*
X34742857Y-53277406D01*
X34742857Y-53277406D02*
X34571428Y-53334548D01*
X34571428Y-53334548D02*
X34285714Y-53334548D01*
X35371428Y-52134548D02*
X36114285Y-52134548D01*
X36114285Y-52134548D02*
X35714285Y-52591691D01*
X35714285Y-52591691D02*
X35885714Y-52591691D01*
X35885714Y-52591691D02*
X36000000Y-52648834D01*
X36000000Y-52648834D02*
X36057142Y-52705977D01*
X36057142Y-52705977D02*
X36114285Y-52820263D01*
X36114285Y-52820263D02*
X36114285Y-53105977D01*
X36114285Y-53105977D02*
X36057142Y-53220263D01*
X36057142Y-53220263D02*
X36000000Y-53277406D01*
X36000000Y-53277406D02*
X35885714Y-53334548D01*
X35885714Y-53334548D02*
X35542857Y-53334548D01*
X35542857Y-53334548D02*
X35428571Y-53277406D01*
X35428571Y-53277406D02*
X35371428Y-53220263D01*
D10*
X40811922Y-73346744D02*
X40811922Y-72546744D01*
X40811922Y-72546744D02*
X41002398Y-72546744D01*
X41002398Y-72546744D02*
X41116684Y-72584839D01*
X41116684Y-72584839D02*
X41192874Y-72661029D01*
X41192874Y-72661029D02*
X41230969Y-72737220D01*
X41230969Y-72737220D02*
X41269065Y-72889601D01*
X41269065Y-72889601D02*
X41269065Y-73003887D01*
X41269065Y-73003887D02*
X41230969Y-73156268D01*
X41230969Y-73156268D02*
X41192874Y-73232458D01*
X41192874Y-73232458D02*
X41116684Y-73308649D01*
X41116684Y-73308649D02*
X41002398Y-73346744D01*
X41002398Y-73346744D02*
X40811922Y-73346744D01*
X41954779Y-72813410D02*
X41954779Y-73346744D01*
X41764303Y-72508649D02*
X41573826Y-73080077D01*
X41573826Y-73080077D02*
X42069065Y-73080077D01*
X42373827Y-73346744D02*
X42373827Y-72546744D01*
X42373827Y-72546744D02*
X42678589Y-72546744D01*
X42678589Y-72546744D02*
X42754779Y-72584839D01*
X42754779Y-72584839D02*
X42792874Y-72622934D01*
X42792874Y-72622934D02*
X42830970Y-72699125D01*
X42830970Y-72699125D02*
X42830970Y-72813410D01*
X42830970Y-72813410D02*
X42792874Y-72889601D01*
X42792874Y-72889601D02*
X42754779Y-72927696D01*
X42754779Y-72927696D02*
X42678589Y-72965791D01*
X42678589Y-72965791D02*
X42373827Y-72965791D01*
X9576906Y-17264895D02*
X9576906Y-16464895D01*
X9576906Y-16464895D02*
X9881668Y-16464895D01*
X9881668Y-16464895D02*
X9957858Y-16502990D01*
X9957858Y-16502990D02*
X9995953Y-16541085D01*
X9995953Y-16541085D02*
X10034049Y-16617276D01*
X10034049Y-16617276D02*
X10034049Y-16731561D01*
X10034049Y-16731561D02*
X9995953Y-16807752D01*
X9995953Y-16807752D02*
X9957858Y-16845847D01*
X9957858Y-16845847D02*
X9881668Y-16883942D01*
X9881668Y-16883942D02*
X9576906Y-16883942D01*
X10338810Y-16541085D02*
X10376906Y-16502990D01*
X10376906Y-16502990D02*
X10453096Y-16464895D01*
X10453096Y-16464895D02*
X10643572Y-16464895D01*
X10643572Y-16464895D02*
X10719763Y-16502990D01*
X10719763Y-16502990D02*
X10757858Y-16541085D01*
X10757858Y-16541085D02*
X10795953Y-16617276D01*
X10795953Y-16617276D02*
X10795953Y-16693466D01*
X10795953Y-16693466D02*
X10757858Y-16807752D01*
X10757858Y-16807752D02*
X10300715Y-17264895D01*
X10300715Y-17264895D02*
X10795953Y-17264895D01*
X11595954Y-17188704D02*
X11557858Y-17226800D01*
X11557858Y-17226800D02*
X11443573Y-17264895D01*
X11443573Y-17264895D02*
X11367382Y-17264895D01*
X11367382Y-17264895D02*
X11253096Y-17226800D01*
X11253096Y-17226800D02*
X11176906Y-17150609D01*
X11176906Y-17150609D02*
X11138811Y-17074419D01*
X11138811Y-17074419D02*
X11100715Y-16922038D01*
X11100715Y-16922038D02*
X11100715Y-16807752D01*
X11100715Y-16807752D02*
X11138811Y-16655371D01*
X11138811Y-16655371D02*
X11176906Y-16579180D01*
X11176906Y-16579180D02*
X11253096Y-16502990D01*
X11253096Y-16502990D02*
X11367382Y-16464895D01*
X11367382Y-16464895D02*
X11443573Y-16464895D01*
X11443573Y-16464895D02*
X11557858Y-16502990D01*
X11557858Y-16502990D02*
X11595954Y-16541085D01*
X11748335Y-17341085D02*
X12357858Y-17341085D01*
X13005478Y-17188704D02*
X12967382Y-17226800D01*
X12967382Y-17226800D02*
X12853097Y-17264895D01*
X12853097Y-17264895D02*
X12776906Y-17264895D01*
X12776906Y-17264895D02*
X12662620Y-17226800D01*
X12662620Y-17226800D02*
X12586430Y-17150609D01*
X12586430Y-17150609D02*
X12548335Y-17074419D01*
X12548335Y-17074419D02*
X12510239Y-16922038D01*
X12510239Y-16922038D02*
X12510239Y-16807752D01*
X12510239Y-16807752D02*
X12548335Y-16655371D01*
X12548335Y-16655371D02*
X12586430Y-16579180D01*
X12586430Y-16579180D02*
X12662620Y-16502990D01*
X12662620Y-16502990D02*
X12776906Y-16464895D01*
X12776906Y-16464895D02*
X12853097Y-16464895D01*
X12853097Y-16464895D02*
X12967382Y-16502990D01*
X12967382Y-16502990D02*
X13005478Y-16541085D01*
X13729287Y-17264895D02*
X13348335Y-17264895D01*
X13348335Y-17264895D02*
X13348335Y-16464895D01*
X13995954Y-17264895D02*
X13995954Y-16464895D01*
X14453097Y-17264895D02*
X14110239Y-16807752D01*
X14453097Y-16464895D02*
X13995954Y-16922038D01*
X14795954Y-17264895D02*
X14795954Y-16464895D01*
X14795954Y-16464895D02*
X15253097Y-17264895D01*
X15253097Y-17264895D02*
X15253097Y-16464895D01*
X41524667Y-65008085D02*
X41486571Y-65046181D01*
X41486571Y-65046181D02*
X41372286Y-65084276D01*
X41372286Y-65084276D02*
X41296095Y-65084276D01*
X41296095Y-65084276D02*
X41181809Y-65046181D01*
X41181809Y-65046181D02*
X41105619Y-64969990D01*
X41105619Y-64969990D02*
X41067524Y-64893800D01*
X41067524Y-64893800D02*
X41029428Y-64741419D01*
X41029428Y-64741419D02*
X41029428Y-64627133D01*
X41029428Y-64627133D02*
X41067524Y-64474752D01*
X41067524Y-64474752D02*
X41105619Y-64398561D01*
X41105619Y-64398561D02*
X41181809Y-64322371D01*
X41181809Y-64322371D02*
X41296095Y-64284276D01*
X41296095Y-64284276D02*
X41372286Y-64284276D01*
X41372286Y-64284276D02*
X41486571Y-64322371D01*
X41486571Y-64322371D02*
X41524667Y-64360466D01*
X41829428Y-64360466D02*
X41867524Y-64322371D01*
X41867524Y-64322371D02*
X41943714Y-64284276D01*
X41943714Y-64284276D02*
X42134190Y-64284276D01*
X42134190Y-64284276D02*
X42210381Y-64322371D01*
X42210381Y-64322371D02*
X42248476Y-64360466D01*
X42248476Y-64360466D02*
X42286571Y-64436657D01*
X42286571Y-64436657D02*
X42286571Y-64512847D01*
X42286571Y-64512847D02*
X42248476Y-64627133D01*
X42248476Y-64627133D02*
X41791333Y-65084276D01*
X41791333Y-65084276D02*
X42286571Y-65084276D01*
X42629429Y-65084276D02*
X42629429Y-64284276D01*
X42629429Y-64284276D02*
X42934191Y-64284276D01*
X42934191Y-64284276D02*
X43010381Y-64322371D01*
X43010381Y-64322371D02*
X43048476Y-64360466D01*
X43048476Y-64360466D02*
X43086572Y-64436657D01*
X43086572Y-64436657D02*
X43086572Y-64550942D01*
X43086572Y-64550942D02*
X43048476Y-64627133D01*
X43048476Y-64627133D02*
X43010381Y-64665228D01*
X43010381Y-64665228D02*
X42934191Y-64703323D01*
X42934191Y-64703323D02*
X42629429Y-64703323D01*
X40210381Y-66075514D02*
X40819905Y-66075514D01*
X41658000Y-66304085D02*
X41619904Y-66342181D01*
X41619904Y-66342181D02*
X41505619Y-66380276D01*
X41505619Y-66380276D02*
X41429428Y-66380276D01*
X41429428Y-66380276D02*
X41315142Y-66342181D01*
X41315142Y-66342181D02*
X41238952Y-66265990D01*
X41238952Y-66265990D02*
X41200857Y-66189800D01*
X41200857Y-66189800D02*
X41162761Y-66037419D01*
X41162761Y-66037419D02*
X41162761Y-65923133D01*
X41162761Y-65923133D02*
X41200857Y-65770752D01*
X41200857Y-65770752D02*
X41238952Y-65694561D01*
X41238952Y-65694561D02*
X41315142Y-65618371D01*
X41315142Y-65618371D02*
X41429428Y-65580276D01*
X41429428Y-65580276D02*
X41505619Y-65580276D01*
X41505619Y-65580276D02*
X41619904Y-65618371D01*
X41619904Y-65618371D02*
X41658000Y-65656466D01*
X42381809Y-66380276D02*
X42000857Y-66380276D01*
X42000857Y-66380276D02*
X42000857Y-65580276D01*
X42648476Y-66380276D02*
X42648476Y-65580276D01*
X43105619Y-66380276D02*
X42762761Y-65923133D01*
X43105619Y-65580276D02*
X42648476Y-66037419D01*
X43448476Y-66380276D02*
X43448476Y-65580276D01*
X43448476Y-65580276D02*
X43905619Y-66380276D01*
X43905619Y-66380276D02*
X43905619Y-65580276D01*
X2072775Y-70887467D02*
X2072775Y-70087467D01*
X2072775Y-70087467D02*
X2263251Y-70087467D01*
X2263251Y-70087467D02*
X2377537Y-70125562D01*
X2377537Y-70125562D02*
X2453727Y-70201752D01*
X2453727Y-70201752D02*
X2491822Y-70277943D01*
X2491822Y-70277943D02*
X2529918Y-70430324D01*
X2529918Y-70430324D02*
X2529918Y-70544610D01*
X2529918Y-70544610D02*
X2491822Y-70696991D01*
X2491822Y-70696991D02*
X2453727Y-70773181D01*
X2453727Y-70773181D02*
X2377537Y-70849372D01*
X2377537Y-70849372D02*
X2263251Y-70887467D01*
X2263251Y-70887467D02*
X2072775Y-70887467D01*
X3253727Y-70087467D02*
X2872775Y-70087467D01*
X2872775Y-70087467D02*
X2834679Y-70468419D01*
X2834679Y-70468419D02*
X2872775Y-70430324D01*
X2872775Y-70430324D02*
X2948965Y-70392229D01*
X2948965Y-70392229D02*
X3139441Y-70392229D01*
X3139441Y-70392229D02*
X3215632Y-70430324D01*
X3215632Y-70430324D02*
X3253727Y-70468419D01*
X3253727Y-70468419D02*
X3291822Y-70544610D01*
X3291822Y-70544610D02*
X3291822Y-70735086D01*
X3291822Y-70735086D02*
X3253727Y-70811276D01*
X3253727Y-70811276D02*
X3215632Y-70849372D01*
X3215632Y-70849372D02*
X3139441Y-70887467D01*
X3139441Y-70887467D02*
X2948965Y-70887467D01*
X2948965Y-70887467D02*
X2872775Y-70849372D01*
X2872775Y-70849372D02*
X2834679Y-70811276D01*
X3634680Y-70887467D02*
X3634680Y-70087467D01*
X3634680Y-70087467D02*
X4091823Y-70887467D01*
X4091823Y-70887467D02*
X4091823Y-70087467D01*
D11*
X34285714Y-83225388D02*
X34285714Y-82025388D01*
X34285714Y-82596817D02*
X34971428Y-82596817D01*
X34971428Y-83225388D02*
X34971428Y-82025388D01*
X35485714Y-82139674D02*
X35542857Y-82082531D01*
X35542857Y-82082531D02*
X35657143Y-82025388D01*
X35657143Y-82025388D02*
X35942857Y-82025388D01*
X35942857Y-82025388D02*
X36057143Y-82082531D01*
X36057143Y-82082531D02*
X36114285Y-82139674D01*
X36114285Y-82139674D02*
X36171428Y-82253960D01*
X36171428Y-82253960D02*
X36171428Y-82368246D01*
X36171428Y-82368246D02*
X36114285Y-82539674D01*
X36114285Y-82539674D02*
X35428571Y-83225388D01*
X35428571Y-83225388D02*
X36171428Y-83225388D01*
X8785714Y-53267701D02*
X8785714Y-52067701D01*
X8785714Y-52067701D02*
X9471428Y-53267701D01*
X9471428Y-53267701D02*
X9471428Y-52067701D01*
X9928571Y-52067701D02*
X10671428Y-52067701D01*
X10671428Y-52067701D02*
X10271428Y-52524844D01*
X10271428Y-52524844D02*
X10442857Y-52524844D01*
X10442857Y-52524844D02*
X10557143Y-52581987D01*
X10557143Y-52581987D02*
X10614285Y-52639130D01*
X10614285Y-52639130D02*
X10671428Y-52753416D01*
X10671428Y-52753416D02*
X10671428Y-53039130D01*
X10671428Y-53039130D02*
X10614285Y-53153416D01*
X10614285Y-53153416D02*
X10557143Y-53210559D01*
X10557143Y-53210559D02*
X10442857Y-53267701D01*
X10442857Y-53267701D02*
X10100000Y-53267701D01*
X10100000Y-53267701D02*
X9985714Y-53210559D01*
X9985714Y-53210559D02*
X9928571Y-53153416D01*
D10*
X40730916Y-63048018D02*
X40845202Y-63086113D01*
X40845202Y-63086113D02*
X41035678Y-63086113D01*
X41035678Y-63086113D02*
X41111869Y-63048018D01*
X41111869Y-63048018D02*
X41149964Y-63009922D01*
X41149964Y-63009922D02*
X41188059Y-62933732D01*
X41188059Y-62933732D02*
X41188059Y-62857541D01*
X41188059Y-62857541D02*
X41149964Y-62781351D01*
X41149964Y-62781351D02*
X41111869Y-62743256D01*
X41111869Y-62743256D02*
X41035678Y-62705160D01*
X41035678Y-62705160D02*
X40883297Y-62667065D01*
X40883297Y-62667065D02*
X40807107Y-62628970D01*
X40807107Y-62628970D02*
X40769012Y-62590875D01*
X40769012Y-62590875D02*
X40730916Y-62514684D01*
X40730916Y-62514684D02*
X40730916Y-62438494D01*
X40730916Y-62438494D02*
X40769012Y-62362303D01*
X40769012Y-62362303D02*
X40807107Y-62324208D01*
X40807107Y-62324208D02*
X40883297Y-62286113D01*
X40883297Y-62286113D02*
X41073774Y-62286113D01*
X41073774Y-62286113D02*
X41188059Y-62324208D01*
X41949964Y-63086113D02*
X41492821Y-63086113D01*
X41721393Y-63086113D02*
X41721393Y-62286113D01*
X41721393Y-62286113D02*
X41645202Y-62400398D01*
X41645202Y-62400398D02*
X41569012Y-62476589D01*
X41569012Y-62476589D02*
X41492821Y-62514684D01*
X42635679Y-62286113D02*
X42483298Y-62286113D01*
X42483298Y-62286113D02*
X42407107Y-62324208D01*
X42407107Y-62324208D02*
X42369012Y-62362303D01*
X42369012Y-62362303D02*
X42292822Y-62476589D01*
X42292822Y-62476589D02*
X42254726Y-62628970D01*
X42254726Y-62628970D02*
X42254726Y-62933732D01*
X42254726Y-62933732D02*
X42292822Y-63009922D01*
X42292822Y-63009922D02*
X42330917Y-63048018D01*
X42330917Y-63048018D02*
X42407107Y-63086113D01*
X42407107Y-63086113D02*
X42559488Y-63086113D01*
X42559488Y-63086113D02*
X42635679Y-63048018D01*
X42635679Y-63048018D02*
X42673774Y-63009922D01*
X42673774Y-63009922D02*
X42711869Y-62933732D01*
X42711869Y-62933732D02*
X42711869Y-62743256D01*
X42711869Y-62743256D02*
X42673774Y-62667065D01*
X42673774Y-62667065D02*
X42635679Y-62628970D01*
X42635679Y-62628970D02*
X42559488Y-62590875D01*
X42559488Y-62590875D02*
X42407107Y-62590875D01*
X42407107Y-62590875D02*
X42330917Y-62628970D01*
X42330917Y-62628970D02*
X42292822Y-62667065D01*
X42292822Y-62667065D02*
X42254726Y-62743256D01*
D11*
X34914285Y-74468062D02*
X34800000Y-74410919D01*
X34800000Y-74410919D02*
X34628571Y-74410919D01*
X34628571Y-74410919D02*
X34457142Y-74468062D01*
X34457142Y-74468062D02*
X34342857Y-74582348D01*
X34342857Y-74582348D02*
X34285714Y-74696634D01*
X34285714Y-74696634D02*
X34228571Y-74925205D01*
X34228571Y-74925205D02*
X34228571Y-75096634D01*
X34228571Y-75096634D02*
X34285714Y-75325205D01*
X34285714Y-75325205D02*
X34342857Y-75439491D01*
X34342857Y-75439491D02*
X34457142Y-75553777D01*
X34457142Y-75553777D02*
X34628571Y-75610919D01*
X34628571Y-75610919D02*
X34742857Y-75610919D01*
X34742857Y-75610919D02*
X34914285Y-75553777D01*
X34914285Y-75553777D02*
X34971428Y-75496634D01*
X34971428Y-75496634D02*
X34971428Y-75096634D01*
X34971428Y-75096634D02*
X34742857Y-75096634D01*
X36000000Y-74810919D02*
X36000000Y-75610919D01*
X35714285Y-74353777D02*
X35428571Y-75210919D01*
X35428571Y-75210919D02*
X36171428Y-75210919D01*
D10*
X40784919Y-55487552D02*
X40899205Y-55525647D01*
X40899205Y-55525647D02*
X41089681Y-55525647D01*
X41089681Y-55525647D02*
X41165872Y-55487552D01*
X41165872Y-55487552D02*
X41203967Y-55449456D01*
X41203967Y-55449456D02*
X41242062Y-55373266D01*
X41242062Y-55373266D02*
X41242062Y-55297075D01*
X41242062Y-55297075D02*
X41203967Y-55220885D01*
X41203967Y-55220885D02*
X41165872Y-55182790D01*
X41165872Y-55182790D02*
X41089681Y-55144694D01*
X41089681Y-55144694D02*
X40937300Y-55106599D01*
X40937300Y-55106599D02*
X40861110Y-55068504D01*
X40861110Y-55068504D02*
X40823015Y-55030409D01*
X40823015Y-55030409D02*
X40784919Y-54954218D01*
X40784919Y-54954218D02*
X40784919Y-54878028D01*
X40784919Y-54878028D02*
X40823015Y-54801837D01*
X40823015Y-54801837D02*
X40861110Y-54763742D01*
X40861110Y-54763742D02*
X40937300Y-54725647D01*
X40937300Y-54725647D02*
X41127777Y-54725647D01*
X41127777Y-54725647D02*
X41242062Y-54763742D01*
X41546824Y-54801837D02*
X41584920Y-54763742D01*
X41584920Y-54763742D02*
X41661110Y-54725647D01*
X41661110Y-54725647D02*
X41851586Y-54725647D01*
X41851586Y-54725647D02*
X41927777Y-54763742D01*
X41927777Y-54763742D02*
X41965872Y-54801837D01*
X41965872Y-54801837D02*
X42003967Y-54878028D01*
X42003967Y-54878028D02*
X42003967Y-54954218D01*
X42003967Y-54954218D02*
X41965872Y-55068504D01*
X41965872Y-55068504D02*
X41508729Y-55525647D01*
X41508729Y-55525647D02*
X42003967Y-55525647D01*
X42308729Y-54801837D02*
X42346825Y-54763742D01*
X42346825Y-54763742D02*
X42423015Y-54725647D01*
X42423015Y-54725647D02*
X42613491Y-54725647D01*
X42613491Y-54725647D02*
X42689682Y-54763742D01*
X42689682Y-54763742D02*
X42727777Y-54801837D01*
X42727777Y-54801837D02*
X42765872Y-54878028D01*
X42765872Y-54878028D02*
X42765872Y-54954218D01*
X42765872Y-54954218D02*
X42727777Y-55068504D01*
X42727777Y-55068504D02*
X42270634Y-55525647D01*
X42270634Y-55525647D02*
X42765872Y-55525647D01*
X2064820Y-53028275D02*
X2179106Y-53066370D01*
X2179106Y-53066370D02*
X2369582Y-53066370D01*
X2369582Y-53066370D02*
X2445773Y-53028275D01*
X2445773Y-53028275D02*
X2483868Y-52990179D01*
X2483868Y-52990179D02*
X2521963Y-52913989D01*
X2521963Y-52913989D02*
X2521963Y-52837798D01*
X2521963Y-52837798D02*
X2483868Y-52761608D01*
X2483868Y-52761608D02*
X2445773Y-52723513D01*
X2445773Y-52723513D02*
X2369582Y-52685417D01*
X2369582Y-52685417D02*
X2217201Y-52647322D01*
X2217201Y-52647322D02*
X2141011Y-52609227D01*
X2141011Y-52609227D02*
X2102916Y-52571132D01*
X2102916Y-52571132D02*
X2064820Y-52494941D01*
X2064820Y-52494941D02*
X2064820Y-52418751D01*
X2064820Y-52418751D02*
X2102916Y-52342560D01*
X2102916Y-52342560D02*
X2141011Y-52304465D01*
X2141011Y-52304465D02*
X2217201Y-52266370D01*
X2217201Y-52266370D02*
X2407678Y-52266370D01*
X2407678Y-52266370D02*
X2521963Y-52304465D01*
X2826725Y-52342560D02*
X2864821Y-52304465D01*
X2864821Y-52304465D02*
X2941011Y-52266370D01*
X2941011Y-52266370D02*
X3131487Y-52266370D01*
X3131487Y-52266370D02*
X3207678Y-52304465D01*
X3207678Y-52304465D02*
X3245773Y-52342560D01*
X3245773Y-52342560D02*
X3283868Y-52418751D01*
X3283868Y-52418751D02*
X3283868Y-52494941D01*
X3283868Y-52494941D02*
X3245773Y-52609227D01*
X3245773Y-52609227D02*
X2788630Y-53066370D01*
X2788630Y-53066370D02*
X3283868Y-53066370D01*
X4007678Y-52266370D02*
X3626726Y-52266370D01*
X3626726Y-52266370D02*
X3588630Y-52647322D01*
X3588630Y-52647322D02*
X3626726Y-52609227D01*
X3626726Y-52609227D02*
X3702916Y-52571132D01*
X3702916Y-52571132D02*
X3893392Y-52571132D01*
X3893392Y-52571132D02*
X3969583Y-52609227D01*
X3969583Y-52609227D02*
X4007678Y-52647322D01*
X4007678Y-52647322D02*
X4045773Y-52723513D01*
X4045773Y-52723513D02*
X4045773Y-52913989D01*
X4045773Y-52913989D02*
X4007678Y-52990179D01*
X4007678Y-52990179D02*
X3969583Y-53028275D01*
X3969583Y-53028275D02*
X3893392Y-53066370D01*
X3893392Y-53066370D02*
X3702916Y-53066370D01*
X3702916Y-53066370D02*
X3626726Y-53028275D01*
X3626726Y-53028275D02*
X3588630Y-52990179D01*
D11*
X34914285Y-66870989D02*
X34800000Y-66813846D01*
X34800000Y-66813846D02*
X34628571Y-66813846D01*
X34628571Y-66813846D02*
X34457142Y-66870989D01*
X34457142Y-66870989D02*
X34342857Y-66985275D01*
X34342857Y-66985275D02*
X34285714Y-67099561D01*
X34285714Y-67099561D02*
X34228571Y-67328132D01*
X34228571Y-67328132D02*
X34228571Y-67499561D01*
X34228571Y-67499561D02*
X34285714Y-67728132D01*
X34285714Y-67728132D02*
X34342857Y-67842418D01*
X34342857Y-67842418D02*
X34457142Y-67956704D01*
X34457142Y-67956704D02*
X34628571Y-68013846D01*
X34628571Y-68013846D02*
X34742857Y-68013846D01*
X34742857Y-68013846D02*
X34914285Y-67956704D01*
X34914285Y-67956704D02*
X34971428Y-67899561D01*
X34971428Y-67899561D02*
X34971428Y-67499561D01*
X34971428Y-67499561D02*
X34742857Y-67499561D01*
X36114285Y-68013846D02*
X35428571Y-68013846D01*
X35771428Y-68013846D02*
X35771428Y-66813846D01*
X35771428Y-66813846D02*
X35657142Y-66985275D01*
X35657142Y-66985275D02*
X35542857Y-67099561D01*
X35542857Y-67099561D02*
X35428571Y-67156704D01*
D10*
X40784919Y-58025709D02*
X40899205Y-58063804D01*
X40899205Y-58063804D02*
X41089681Y-58063804D01*
X41089681Y-58063804D02*
X41165872Y-58025709D01*
X41165872Y-58025709D02*
X41203967Y-57987613D01*
X41203967Y-57987613D02*
X41242062Y-57911423D01*
X41242062Y-57911423D02*
X41242062Y-57835232D01*
X41242062Y-57835232D02*
X41203967Y-57759042D01*
X41203967Y-57759042D02*
X41165872Y-57720947D01*
X41165872Y-57720947D02*
X41089681Y-57682851D01*
X41089681Y-57682851D02*
X40937300Y-57644756D01*
X40937300Y-57644756D02*
X40861110Y-57606661D01*
X40861110Y-57606661D02*
X40823015Y-57568566D01*
X40823015Y-57568566D02*
X40784919Y-57492375D01*
X40784919Y-57492375D02*
X40784919Y-57416185D01*
X40784919Y-57416185D02*
X40823015Y-57339994D01*
X40823015Y-57339994D02*
X40861110Y-57301899D01*
X40861110Y-57301899D02*
X40937300Y-57263804D01*
X40937300Y-57263804D02*
X41127777Y-57263804D01*
X41127777Y-57263804D02*
X41242062Y-57301899D01*
X41546824Y-57339994D02*
X41584920Y-57301899D01*
X41584920Y-57301899D02*
X41661110Y-57263804D01*
X41661110Y-57263804D02*
X41851586Y-57263804D01*
X41851586Y-57263804D02*
X41927777Y-57301899D01*
X41927777Y-57301899D02*
X41965872Y-57339994D01*
X41965872Y-57339994D02*
X42003967Y-57416185D01*
X42003967Y-57416185D02*
X42003967Y-57492375D01*
X42003967Y-57492375D02*
X41965872Y-57606661D01*
X41965872Y-57606661D02*
X41508729Y-58063804D01*
X41508729Y-58063804D02*
X42003967Y-58063804D01*
X42499206Y-57263804D02*
X42575396Y-57263804D01*
X42575396Y-57263804D02*
X42651587Y-57301899D01*
X42651587Y-57301899D02*
X42689682Y-57339994D01*
X42689682Y-57339994D02*
X42727777Y-57416185D01*
X42727777Y-57416185D02*
X42765872Y-57568566D01*
X42765872Y-57568566D02*
X42765872Y-57759042D01*
X42765872Y-57759042D02*
X42727777Y-57911423D01*
X42727777Y-57911423D02*
X42689682Y-57987613D01*
X42689682Y-57987613D02*
X42651587Y-58025709D01*
X42651587Y-58025709D02*
X42575396Y-58063804D01*
X42575396Y-58063804D02*
X42499206Y-58063804D01*
X42499206Y-58063804D02*
X42423015Y-58025709D01*
X42423015Y-58025709D02*
X42384920Y-57987613D01*
X42384920Y-57987613D02*
X42346825Y-57911423D01*
X42346825Y-57911423D02*
X42308729Y-57759042D01*
X42308729Y-57759042D02*
X42308729Y-57568566D01*
X42308729Y-57568566D02*
X42346825Y-57416185D01*
X42346825Y-57416185D02*
X42384920Y-57339994D01*
X42384920Y-57339994D02*
X42423015Y-57301899D01*
X42423015Y-57301899D02*
X42499206Y-57263804D01*
X2145825Y-50517120D02*
X2260111Y-50555215D01*
X2260111Y-50555215D02*
X2450587Y-50555215D01*
X2450587Y-50555215D02*
X2526778Y-50517120D01*
X2526778Y-50517120D02*
X2564873Y-50479024D01*
X2564873Y-50479024D02*
X2602968Y-50402834D01*
X2602968Y-50402834D02*
X2602968Y-50326643D01*
X2602968Y-50326643D02*
X2564873Y-50250453D01*
X2564873Y-50250453D02*
X2526778Y-50212358D01*
X2526778Y-50212358D02*
X2450587Y-50174262D01*
X2450587Y-50174262D02*
X2298206Y-50136167D01*
X2298206Y-50136167D02*
X2222016Y-50098072D01*
X2222016Y-50098072D02*
X2183921Y-50059977D01*
X2183921Y-50059977D02*
X2145825Y-49983786D01*
X2145825Y-49983786D02*
X2145825Y-49907596D01*
X2145825Y-49907596D02*
X2183921Y-49831405D01*
X2183921Y-49831405D02*
X2222016Y-49793310D01*
X2222016Y-49793310D02*
X2298206Y-49755215D01*
X2298206Y-49755215D02*
X2488683Y-49755215D01*
X2488683Y-49755215D02*
X2602968Y-49793310D01*
X2907730Y-49831405D02*
X2945826Y-49793310D01*
X2945826Y-49793310D02*
X3022016Y-49755215D01*
X3022016Y-49755215D02*
X3212492Y-49755215D01*
X3212492Y-49755215D02*
X3288683Y-49793310D01*
X3288683Y-49793310D02*
X3326778Y-49831405D01*
X3326778Y-49831405D02*
X3364873Y-49907596D01*
X3364873Y-49907596D02*
X3364873Y-49983786D01*
X3364873Y-49983786D02*
X3326778Y-50098072D01*
X3326778Y-50098072D02*
X2869635Y-50555215D01*
X2869635Y-50555215D02*
X3364873Y-50555215D01*
X3631540Y-49755215D02*
X4164874Y-49755215D01*
X4164874Y-49755215D02*
X3822016Y-50555215D01*
X2045773Y-65784153D02*
X2045773Y-64984153D01*
X2045773Y-64984153D02*
X2236249Y-64984153D01*
X2236249Y-64984153D02*
X2350535Y-65022248D01*
X2350535Y-65022248D02*
X2426725Y-65098438D01*
X2426725Y-65098438D02*
X2464820Y-65174629D01*
X2464820Y-65174629D02*
X2502916Y-65327010D01*
X2502916Y-65327010D02*
X2502916Y-65441296D01*
X2502916Y-65441296D02*
X2464820Y-65593677D01*
X2464820Y-65593677D02*
X2426725Y-65669867D01*
X2426725Y-65669867D02*
X2350535Y-65746058D01*
X2350535Y-65746058D02*
X2236249Y-65784153D01*
X2236249Y-65784153D02*
X2045773Y-65784153D01*
X2769582Y-64984153D02*
X3302916Y-64984153D01*
X3302916Y-64984153D02*
X2960058Y-65784153D01*
X3607678Y-65784153D02*
X3607678Y-64984153D01*
X3607678Y-64984153D02*
X4064821Y-65784153D01*
X4064821Y-65784153D02*
X4064821Y-64984153D01*
D12*
X16194285Y-12297800D02*
X16522857Y-12397800D01*
X16522857Y-12397800D02*
X16632380Y-12497800D01*
X16632380Y-12497800D02*
X16741904Y-12697800D01*
X16741904Y-12697800D02*
X16741904Y-12997800D01*
X16741904Y-12997800D02*
X16632380Y-13197800D01*
X16632380Y-13197800D02*
X16522857Y-13297800D01*
X16522857Y-13297800D02*
X16303809Y-13397800D01*
X16303809Y-13397800D02*
X15427619Y-13397800D01*
X15427619Y-13397800D02*
X15427619Y-11297800D01*
X15427619Y-11297800D02*
X16194285Y-11297800D01*
X16194285Y-11297800D02*
X16413333Y-11397800D01*
X16413333Y-11397800D02*
X16522857Y-11497800D01*
X16522857Y-11497800D02*
X16632380Y-11697800D01*
X16632380Y-11697800D02*
X16632380Y-11897800D01*
X16632380Y-11897800D02*
X16522857Y-12097800D01*
X16522857Y-12097800D02*
X16413333Y-12197800D01*
X16413333Y-12197800D02*
X16194285Y-12297800D01*
X16194285Y-12297800D02*
X15427619Y-12297800D01*
X17727619Y-13397800D02*
X17727619Y-11997800D01*
X17727619Y-12397800D02*
X17837142Y-12197800D01*
X17837142Y-12197800D02*
X17946666Y-12097800D01*
X17946666Y-12097800D02*
X18165714Y-11997800D01*
X18165714Y-11997800D02*
X18384761Y-11997800D01*
X20027619Y-13297800D02*
X19808571Y-13397800D01*
X19808571Y-13397800D02*
X19370476Y-13397800D01*
X19370476Y-13397800D02*
X19151429Y-13297800D01*
X19151429Y-13297800D02*
X19041905Y-13097800D01*
X19041905Y-13097800D02*
X19041905Y-12297800D01*
X19041905Y-12297800D02*
X19151429Y-12097800D01*
X19151429Y-12097800D02*
X19370476Y-11997800D01*
X19370476Y-11997800D02*
X19808571Y-11997800D01*
X19808571Y-11997800D02*
X20027619Y-12097800D01*
X20027619Y-12097800D02*
X20137143Y-12297800D01*
X20137143Y-12297800D02*
X20137143Y-12497800D01*
X20137143Y-12497800D02*
X19041905Y-12697800D01*
X22108572Y-13397800D02*
X22108572Y-12297800D01*
X22108572Y-12297800D02*
X21999048Y-12097800D01*
X21999048Y-12097800D02*
X21780000Y-11997800D01*
X21780000Y-11997800D02*
X21341905Y-11997800D01*
X21341905Y-11997800D02*
X21122858Y-12097800D01*
X22108572Y-13297800D02*
X21889524Y-13397800D01*
X21889524Y-13397800D02*
X21341905Y-13397800D01*
X21341905Y-13397800D02*
X21122858Y-13297800D01*
X21122858Y-13297800D02*
X21013334Y-13097800D01*
X21013334Y-13097800D02*
X21013334Y-12897800D01*
X21013334Y-12897800D02*
X21122858Y-12697800D01*
X21122858Y-12697800D02*
X21341905Y-12597800D01*
X21341905Y-12597800D02*
X21889524Y-12597800D01*
X21889524Y-12597800D02*
X22108572Y-12497800D01*
X23203810Y-13397800D02*
X23203810Y-11297800D01*
X23422857Y-12597800D02*
X24080000Y-13397800D01*
X24080000Y-11997800D02*
X23203810Y-12797800D01*
X25394286Y-13397800D02*
X25175238Y-13297800D01*
X25175238Y-13297800D02*
X25065715Y-13197800D01*
X25065715Y-13197800D02*
X24956191Y-12997800D01*
X24956191Y-12997800D02*
X24956191Y-12397800D01*
X24956191Y-12397800D02*
X25065715Y-12197800D01*
X25065715Y-12197800D02*
X25175238Y-12097800D01*
X25175238Y-12097800D02*
X25394286Y-11997800D01*
X25394286Y-11997800D02*
X25722857Y-11997800D01*
X25722857Y-11997800D02*
X25941905Y-12097800D01*
X25941905Y-12097800D02*
X26051429Y-12197800D01*
X26051429Y-12197800D02*
X26160953Y-12397800D01*
X26160953Y-12397800D02*
X26160953Y-12997800D01*
X26160953Y-12997800D02*
X26051429Y-13197800D01*
X26051429Y-13197800D02*
X25941905Y-13297800D01*
X25941905Y-13297800D02*
X25722857Y-13397800D01*
X25722857Y-13397800D02*
X25394286Y-13397800D01*
X28132381Y-11997800D02*
X28132381Y-13397800D01*
X27146667Y-11997800D02*
X27146667Y-13097800D01*
X27146667Y-13097800D02*
X27256190Y-13297800D01*
X27256190Y-13297800D02*
X27475238Y-13397800D01*
X27475238Y-13397800D02*
X27803809Y-13397800D01*
X27803809Y-13397800D02*
X28022857Y-13297800D01*
X28022857Y-13297800D02*
X28132381Y-13197800D01*
X28899047Y-11997800D02*
X29775238Y-11997800D01*
X29227619Y-11297800D02*
X29227619Y-13097800D01*
X29227619Y-13097800D02*
X29337142Y-13297800D01*
X29337142Y-13297800D02*
X29556190Y-13397800D01*
X29556190Y-13397800D02*
X29775238Y-13397800D01*
D10*
X2037819Y-60588740D02*
X2152105Y-60626835D01*
X2152105Y-60626835D02*
X2342581Y-60626835D01*
X2342581Y-60626835D02*
X2418772Y-60588740D01*
X2418772Y-60588740D02*
X2456867Y-60550644D01*
X2456867Y-60550644D02*
X2494962Y-60474454D01*
X2494962Y-60474454D02*
X2494962Y-60398263D01*
X2494962Y-60398263D02*
X2456867Y-60322073D01*
X2456867Y-60322073D02*
X2418772Y-60283978D01*
X2418772Y-60283978D02*
X2342581Y-60245882D01*
X2342581Y-60245882D02*
X2190200Y-60207787D01*
X2190200Y-60207787D02*
X2114010Y-60169692D01*
X2114010Y-60169692D02*
X2075915Y-60131597D01*
X2075915Y-60131597D02*
X2037819Y-60055406D01*
X2037819Y-60055406D02*
X2037819Y-59979216D01*
X2037819Y-59979216D02*
X2075915Y-59903025D01*
X2075915Y-59903025D02*
X2114010Y-59864930D01*
X2114010Y-59864930D02*
X2190200Y-59826835D01*
X2190200Y-59826835D02*
X2380677Y-59826835D01*
X2380677Y-59826835D02*
X2494962Y-59864930D01*
X3256867Y-60626835D02*
X2799724Y-60626835D01*
X3028296Y-60626835D02*
X3028296Y-59826835D01*
X3028296Y-59826835D02*
X2952105Y-59941120D01*
X2952105Y-59941120D02*
X2875915Y-60017311D01*
X2875915Y-60017311D02*
X2799724Y-60055406D01*
X3637820Y-60626835D02*
X3790201Y-60626835D01*
X3790201Y-60626835D02*
X3866391Y-60588740D01*
X3866391Y-60588740D02*
X3904487Y-60550644D01*
X3904487Y-60550644D02*
X3980677Y-60436359D01*
X3980677Y-60436359D02*
X4018772Y-60283978D01*
X4018772Y-60283978D02*
X4018772Y-59979216D01*
X4018772Y-59979216D02*
X3980677Y-59903025D01*
X3980677Y-59903025D02*
X3942582Y-59864930D01*
X3942582Y-59864930D02*
X3866391Y-59826835D01*
X3866391Y-59826835D02*
X3714010Y-59826835D01*
X3714010Y-59826835D02*
X3637820Y-59864930D01*
X3637820Y-59864930D02*
X3599725Y-59903025D01*
X3599725Y-59903025D02*
X3561629Y-59979216D01*
X3561629Y-59979216D02*
X3561629Y-60169692D01*
X3561629Y-60169692D02*
X3599725Y-60245882D01*
X3599725Y-60245882D02*
X3637820Y-60283978D01*
X3637820Y-60283978D02*
X3714010Y-60322073D01*
X3714010Y-60322073D02*
X3866391Y-60322073D01*
X3866391Y-60322073D02*
X3942582Y-60283978D01*
X3942582Y-60283978D02*
X3980677Y-60245882D01*
X3980677Y-60245882D02*
X4018772Y-60169692D01*
D11*
X34285714Y-55791699D02*
X34285714Y-54591699D01*
X34285714Y-54591699D02*
X34571428Y-54591699D01*
X34571428Y-54591699D02*
X34742857Y-54648842D01*
X34742857Y-54648842D02*
X34857142Y-54763128D01*
X34857142Y-54763128D02*
X34914285Y-54877414D01*
X34914285Y-54877414D02*
X34971428Y-55105985D01*
X34971428Y-55105985D02*
X34971428Y-55277414D01*
X34971428Y-55277414D02*
X34914285Y-55505985D01*
X34914285Y-55505985D02*
X34857142Y-55620271D01*
X34857142Y-55620271D02*
X34742857Y-55734557D01*
X34742857Y-55734557D02*
X34571428Y-55791699D01*
X34571428Y-55791699D02*
X34285714Y-55791699D01*
X36114285Y-55791699D02*
X35428571Y-55791699D01*
X35771428Y-55791699D02*
X35771428Y-54591699D01*
X35771428Y-54591699D02*
X35657142Y-54763128D01*
X35657142Y-54763128D02*
X35542857Y-54877414D01*
X35542857Y-54877414D02*
X35428571Y-54934557D01*
X34285714Y-60320446D02*
X34685714Y-60320446D01*
X34857142Y-60949017D02*
X34285714Y-60949017D01*
X34285714Y-60949017D02*
X34285714Y-59749017D01*
X34285714Y-59749017D02*
X34857142Y-59749017D01*
X35257142Y-59749017D02*
X35999999Y-59749017D01*
X35999999Y-59749017D02*
X35599999Y-60206160D01*
X35599999Y-60206160D02*
X35771428Y-60206160D01*
X35771428Y-60206160D02*
X35885714Y-60263303D01*
X35885714Y-60263303D02*
X35942856Y-60320446D01*
X35942856Y-60320446D02*
X35999999Y-60434732D01*
X35999999Y-60434732D02*
X35999999Y-60720446D01*
X35999999Y-60720446D02*
X35942856Y-60834732D01*
X35942856Y-60834732D02*
X35885714Y-60891875D01*
X35885714Y-60891875D02*
X35771428Y-60949017D01*
X35771428Y-60949017D02*
X35428571Y-60949017D01*
X35428571Y-60949017D02*
X35314285Y-60891875D01*
X35314285Y-60891875D02*
X35257142Y-60834732D01*
D10*
X2118825Y-68268306D02*
X2118825Y-67468306D01*
X2118825Y-67468306D02*
X2309301Y-67468306D01*
X2309301Y-67468306D02*
X2423587Y-67506401D01*
X2423587Y-67506401D02*
X2499777Y-67582591D01*
X2499777Y-67582591D02*
X2537872Y-67658782D01*
X2537872Y-67658782D02*
X2575968Y-67811163D01*
X2575968Y-67811163D02*
X2575968Y-67925449D01*
X2575968Y-67925449D02*
X2537872Y-68077830D01*
X2537872Y-68077830D02*
X2499777Y-68154020D01*
X2499777Y-68154020D02*
X2423587Y-68230211D01*
X2423587Y-68230211D02*
X2309301Y-68268306D01*
X2309301Y-68268306D02*
X2118825Y-68268306D01*
X2842634Y-67468306D02*
X3375968Y-67468306D01*
X3375968Y-67468306D02*
X3033110Y-68268306D01*
X3680730Y-68268306D02*
X3680730Y-67468306D01*
X3680730Y-67468306D02*
X3985492Y-67468306D01*
X3985492Y-67468306D02*
X4061682Y-67506401D01*
X4061682Y-67506401D02*
X4099777Y-67544496D01*
X4099777Y-67544496D02*
X4137873Y-67620687D01*
X4137873Y-67620687D02*
X4137873Y-67734972D01*
X4137873Y-67734972D02*
X4099777Y-67811163D01*
X4099777Y-67811163D02*
X4061682Y-67849258D01*
X4061682Y-67849258D02*
X3985492Y-67887353D01*
X3985492Y-67887353D02*
X3680730Y-67887353D01*
X40865924Y-50465243D02*
X40980210Y-50503338D01*
X40980210Y-50503338D02*
X41170686Y-50503338D01*
X41170686Y-50503338D02*
X41246877Y-50465243D01*
X41246877Y-50465243D02*
X41284972Y-50427147D01*
X41284972Y-50427147D02*
X41323067Y-50350957D01*
X41323067Y-50350957D02*
X41323067Y-50274766D01*
X41323067Y-50274766D02*
X41284972Y-50198576D01*
X41284972Y-50198576D02*
X41246877Y-50160481D01*
X41246877Y-50160481D02*
X41170686Y-50122385D01*
X41170686Y-50122385D02*
X41018305Y-50084290D01*
X41018305Y-50084290D02*
X40942115Y-50046195D01*
X40942115Y-50046195D02*
X40904020Y-50008100D01*
X40904020Y-50008100D02*
X40865924Y-49931909D01*
X40865924Y-49931909D02*
X40865924Y-49855719D01*
X40865924Y-49855719D02*
X40904020Y-49779528D01*
X40904020Y-49779528D02*
X40942115Y-49741433D01*
X40942115Y-49741433D02*
X41018305Y-49703338D01*
X41018305Y-49703338D02*
X41208782Y-49703338D01*
X41208782Y-49703338D02*
X41323067Y-49741433D01*
X41627829Y-49779528D02*
X41665925Y-49741433D01*
X41665925Y-49741433D02*
X41742115Y-49703338D01*
X41742115Y-49703338D02*
X41932591Y-49703338D01*
X41932591Y-49703338D02*
X42008782Y-49741433D01*
X42008782Y-49741433D02*
X42046877Y-49779528D01*
X42046877Y-49779528D02*
X42084972Y-49855719D01*
X42084972Y-49855719D02*
X42084972Y-49931909D01*
X42084972Y-49931909D02*
X42046877Y-50046195D01*
X42046877Y-50046195D02*
X41589734Y-50503338D01*
X41589734Y-50503338D02*
X42084972Y-50503338D01*
X42770687Y-49703338D02*
X42618306Y-49703338D01*
X42618306Y-49703338D02*
X42542115Y-49741433D01*
X42542115Y-49741433D02*
X42504020Y-49779528D01*
X42504020Y-49779528D02*
X42427830Y-49893814D01*
X42427830Y-49893814D02*
X42389734Y-50046195D01*
X42389734Y-50046195D02*
X42389734Y-50350957D01*
X42389734Y-50350957D02*
X42427830Y-50427147D01*
X42427830Y-50427147D02*
X42465925Y-50465243D01*
X42465925Y-50465243D02*
X42542115Y-50503338D01*
X42542115Y-50503338D02*
X42694496Y-50503338D01*
X42694496Y-50503338D02*
X42770687Y-50465243D01*
X42770687Y-50465243D02*
X42808782Y-50427147D01*
X42808782Y-50427147D02*
X42846877Y-50350957D01*
X42846877Y-50350957D02*
X42846877Y-50160481D01*
X42846877Y-50160481D02*
X42808782Y-50084290D01*
X42808782Y-50084290D02*
X42770687Y-50046195D01*
X42770687Y-50046195D02*
X42694496Y-50008100D01*
X42694496Y-50008100D02*
X42542115Y-50008100D01*
X42542115Y-50008100D02*
X42465925Y-50046195D01*
X42465925Y-50046195D02*
X42427830Y-50084290D01*
X42427830Y-50084290D02*
X42389734Y-50160481D01*
D11*
X40553143Y-27305142D02*
X39867429Y-27305142D01*
X40210286Y-27305142D02*
X40210286Y-26105142D01*
X40210286Y-26105142D02*
X40096000Y-26276571D01*
X40096000Y-26276571D02*
X39981715Y-26390857D01*
X39981715Y-26390857D02*
X39867429Y-26448000D01*
X40896000Y-26105142D02*
X41296000Y-27305142D01*
X41296000Y-27305142D02*
X41696000Y-26105142D01*
X42267428Y-26619428D02*
X42153143Y-26562285D01*
X42153143Y-26562285D02*
X42096000Y-26505142D01*
X42096000Y-26505142D02*
X42038857Y-26390857D01*
X42038857Y-26390857D02*
X42038857Y-26333714D01*
X42038857Y-26333714D02*
X42096000Y-26219428D01*
X42096000Y-26219428D02*
X42153143Y-26162285D01*
X42153143Y-26162285D02*
X42267428Y-26105142D01*
X42267428Y-26105142D02*
X42496000Y-26105142D01*
X42496000Y-26105142D02*
X42610286Y-26162285D01*
X42610286Y-26162285D02*
X42667428Y-26219428D01*
X42667428Y-26219428D02*
X42724571Y-26333714D01*
X42724571Y-26333714D02*
X42724571Y-26390857D01*
X42724571Y-26390857D02*
X42667428Y-26505142D01*
X42667428Y-26505142D02*
X42610286Y-26562285D01*
X42610286Y-26562285D02*
X42496000Y-26619428D01*
X42496000Y-26619428D02*
X42267428Y-26619428D01*
X42267428Y-26619428D02*
X42153143Y-26676571D01*
X42153143Y-26676571D02*
X42096000Y-26733714D01*
X42096000Y-26733714D02*
X42038857Y-26848000D01*
X42038857Y-26848000D02*
X42038857Y-27076571D01*
X42038857Y-27076571D02*
X42096000Y-27190857D01*
X42096000Y-27190857D02*
X42153143Y-27248000D01*
X42153143Y-27248000D02*
X42267428Y-27305142D01*
X42267428Y-27305142D02*
X42496000Y-27305142D01*
X42496000Y-27305142D02*
X42610286Y-27248000D01*
X42610286Y-27248000D02*
X42667428Y-27190857D01*
X42667428Y-27190857D02*
X42724571Y-27076571D01*
X42724571Y-27076571D02*
X42724571Y-26848000D01*
X42724571Y-26848000D02*
X42667428Y-26733714D01*
X42667428Y-26733714D02*
X42610286Y-26676571D01*
X42610286Y-26676571D02*
X42496000Y-26619428D01*
X8785714Y-65884022D02*
X8785714Y-64684022D01*
X8785714Y-64684022D02*
X9185714Y-65541165D01*
X9185714Y-65541165D02*
X9585714Y-64684022D01*
X9585714Y-64684022D02*
X9585714Y-65884022D01*
X10671429Y-65084022D02*
X10671429Y-65884022D01*
X10385714Y-64626880D02*
X10100000Y-65484022D01*
X10100000Y-65484022D02*
X10842857Y-65484022D01*
X34285714Y-57782290D02*
X34685714Y-57782290D01*
X34857142Y-58410861D02*
X34285714Y-58410861D01*
X34285714Y-58410861D02*
X34285714Y-57210861D01*
X34285714Y-57210861D02*
X34857142Y-57210861D01*
X35999999Y-58410861D02*
X35314285Y-58410861D01*
X35657142Y-58410861D02*
X35657142Y-57210861D01*
X35657142Y-57210861D02*
X35542856Y-57382290D01*
X35542856Y-57382290D02*
X35428571Y-57496576D01*
X35428571Y-57496576D02*
X35314285Y-57553719D01*
D10*
X2091823Y-73398621D02*
X2091823Y-72598621D01*
X2091823Y-72598621D02*
X2282299Y-72598621D01*
X2282299Y-72598621D02*
X2396585Y-72636716D01*
X2396585Y-72636716D02*
X2472775Y-72712906D01*
X2472775Y-72712906D02*
X2510870Y-72789097D01*
X2510870Y-72789097D02*
X2548966Y-72941478D01*
X2548966Y-72941478D02*
X2548966Y-73055764D01*
X2548966Y-73055764D02*
X2510870Y-73208145D01*
X2510870Y-73208145D02*
X2472775Y-73284335D01*
X2472775Y-73284335D02*
X2396585Y-73360526D01*
X2396585Y-73360526D02*
X2282299Y-73398621D01*
X2282299Y-73398621D02*
X2091823Y-73398621D01*
X3272775Y-72598621D02*
X2891823Y-72598621D01*
X2891823Y-72598621D02*
X2853727Y-72979573D01*
X2853727Y-72979573D02*
X2891823Y-72941478D01*
X2891823Y-72941478D02*
X2968013Y-72903383D01*
X2968013Y-72903383D02*
X3158489Y-72903383D01*
X3158489Y-72903383D02*
X3234680Y-72941478D01*
X3234680Y-72941478D02*
X3272775Y-72979573D01*
X3272775Y-72979573D02*
X3310870Y-73055764D01*
X3310870Y-73055764D02*
X3310870Y-73246240D01*
X3310870Y-73246240D02*
X3272775Y-73322430D01*
X3272775Y-73322430D02*
X3234680Y-73360526D01*
X3234680Y-73360526D02*
X3158489Y-73398621D01*
X3158489Y-73398621D02*
X2968013Y-73398621D01*
X2968013Y-73398621D02*
X2891823Y-73360526D01*
X2891823Y-73360526D02*
X2853727Y-73322430D01*
X3653728Y-73398621D02*
X3653728Y-72598621D01*
X3653728Y-72598621D02*
X3958490Y-72598621D01*
X3958490Y-72598621D02*
X4034680Y-72636716D01*
X4034680Y-72636716D02*
X4072775Y-72674811D01*
X4072775Y-72674811D02*
X4110871Y-72751002D01*
X4110871Y-72751002D02*
X4110871Y-72865287D01*
X4110871Y-72865287D02*
X4072775Y-72941478D01*
X4072775Y-72941478D02*
X4034680Y-72979573D01*
X4034680Y-72979573D02*
X3958490Y-73017668D01*
X3958490Y-73017668D02*
X3653728Y-73017668D01*
D11*
X8785714Y-76074127D02*
X8785714Y-74874127D01*
X8785714Y-74874127D02*
X9471428Y-76074127D01*
X9471428Y-76074127D02*
X9471428Y-74874127D01*
X10557143Y-75274127D02*
X10557143Y-76074127D01*
X10271428Y-74816985D02*
X9985714Y-75674127D01*
X9985714Y-75674127D02*
X10728571Y-75674127D01*
D10*
X40757919Y-78396055D02*
X40757919Y-77596055D01*
X40757919Y-77596055D02*
X40948395Y-77596055D01*
X40948395Y-77596055D02*
X41062681Y-77634150D01*
X41062681Y-77634150D02*
X41138871Y-77710340D01*
X41138871Y-77710340D02*
X41176966Y-77786531D01*
X41176966Y-77786531D02*
X41215062Y-77938912D01*
X41215062Y-77938912D02*
X41215062Y-78053198D01*
X41215062Y-78053198D02*
X41176966Y-78205579D01*
X41176966Y-78205579D02*
X41138871Y-78281769D01*
X41138871Y-78281769D02*
X41062681Y-78357960D01*
X41062681Y-78357960D02*
X40948395Y-78396055D01*
X40948395Y-78396055D02*
X40757919Y-78396055D01*
X41519823Y-77672245D02*
X41557919Y-77634150D01*
X41557919Y-77634150D02*
X41634109Y-77596055D01*
X41634109Y-77596055D02*
X41824585Y-77596055D01*
X41824585Y-77596055D02*
X41900776Y-77634150D01*
X41900776Y-77634150D02*
X41938871Y-77672245D01*
X41938871Y-77672245D02*
X41976966Y-77748436D01*
X41976966Y-77748436D02*
X41976966Y-77824626D01*
X41976966Y-77824626D02*
X41938871Y-77938912D01*
X41938871Y-77938912D02*
X41481728Y-78396055D01*
X41481728Y-78396055D02*
X41976966Y-78396055D01*
X42319824Y-78396055D02*
X42319824Y-77596055D01*
X42319824Y-77596055D02*
X42624586Y-77596055D01*
X42624586Y-77596055D02*
X42700776Y-77634150D01*
X42700776Y-77634150D02*
X42738871Y-77672245D01*
X42738871Y-77672245D02*
X42776967Y-77748436D01*
X42776967Y-77748436D02*
X42776967Y-77862721D01*
X42776967Y-77862721D02*
X42738871Y-77938912D01*
X42738871Y-77938912D02*
X42700776Y-77977007D01*
X42700776Y-77977007D02*
X42624586Y-78015102D01*
X42624586Y-78015102D02*
X42319824Y-78015102D01*
D11*
X8785714Y-50733653D02*
X8785714Y-49533653D01*
X8785714Y-50105082D02*
X9471428Y-50105082D01*
X9471428Y-50733653D02*
X9471428Y-49533653D01*
X9928571Y-49533653D02*
X10671428Y-49533653D01*
X10671428Y-49533653D02*
X10271428Y-49990796D01*
X10271428Y-49990796D02*
X10442857Y-49990796D01*
X10442857Y-49990796D02*
X10557143Y-50047939D01*
X10557143Y-50047939D02*
X10614285Y-50105082D01*
X10614285Y-50105082D02*
X10671428Y-50219368D01*
X10671428Y-50219368D02*
X10671428Y-50505082D01*
X10671428Y-50505082D02*
X10614285Y-50619368D01*
X10614285Y-50619368D02*
X10557143Y-50676511D01*
X10557143Y-50676511D02*
X10442857Y-50733653D01*
X10442857Y-50733653D02*
X10100000Y-50733653D01*
X10100000Y-50733653D02*
X9985714Y-50676511D01*
X9985714Y-50676511D02*
X9928571Y-50619368D01*
X34628571Y-64711525D02*
X34628571Y-65568668D01*
X34628571Y-65568668D02*
X34571428Y-65740097D01*
X34571428Y-65740097D02*
X34457142Y-65854383D01*
X34457142Y-65854383D02*
X34285714Y-65911525D01*
X34285714Y-65911525D02*
X34171428Y-65911525D01*
X35142857Y-64825811D02*
X35200000Y-64768668D01*
X35200000Y-64768668D02*
X35314286Y-64711525D01*
X35314286Y-64711525D02*
X35600000Y-64711525D01*
X35600000Y-64711525D02*
X35714286Y-64768668D01*
X35714286Y-64768668D02*
X35771428Y-64825811D01*
X35771428Y-64825811D02*
X35828571Y-64940097D01*
X35828571Y-64940097D02*
X35828571Y-65054383D01*
X35828571Y-65054383D02*
X35771428Y-65225811D01*
X35771428Y-65225811D02*
X35085714Y-65911525D01*
X35085714Y-65911525D02*
X35828571Y-65911525D01*
D10*
X39524476Y-32262095D02*
X39524476Y-31462095D01*
X39524476Y-31462095D02*
X39714952Y-31462095D01*
X39714952Y-31462095D02*
X39829238Y-31500190D01*
X39829238Y-31500190D02*
X39905428Y-31576380D01*
X39905428Y-31576380D02*
X39943523Y-31652571D01*
X39943523Y-31652571D02*
X39981619Y-31804952D01*
X39981619Y-31804952D02*
X39981619Y-31919238D01*
X39981619Y-31919238D02*
X39943523Y-32071619D01*
X39943523Y-32071619D02*
X39905428Y-32147809D01*
X39905428Y-32147809D02*
X39829238Y-32224000D01*
X39829238Y-32224000D02*
X39714952Y-32262095D01*
X39714952Y-32262095D02*
X39524476Y-32262095D01*
X40667333Y-31462095D02*
X40514952Y-31462095D01*
X40514952Y-31462095D02*
X40438761Y-31500190D01*
X40438761Y-31500190D02*
X40400666Y-31538285D01*
X40400666Y-31538285D02*
X40324476Y-31652571D01*
X40324476Y-31652571D02*
X40286380Y-31804952D01*
X40286380Y-31804952D02*
X40286380Y-32109714D01*
X40286380Y-32109714D02*
X40324476Y-32185904D01*
X40324476Y-32185904D02*
X40362571Y-32224000D01*
X40362571Y-32224000D02*
X40438761Y-32262095D01*
X40438761Y-32262095D02*
X40591142Y-32262095D01*
X40591142Y-32262095D02*
X40667333Y-32224000D01*
X40667333Y-32224000D02*
X40705428Y-32185904D01*
X40705428Y-32185904D02*
X40743523Y-32109714D01*
X40743523Y-32109714D02*
X40743523Y-31919238D01*
X40743523Y-31919238D02*
X40705428Y-31843047D01*
X40705428Y-31843047D02*
X40667333Y-31804952D01*
X40667333Y-31804952D02*
X40591142Y-31766857D01*
X40591142Y-31766857D02*
X40438761Y-31766857D01*
X40438761Y-31766857D02*
X40362571Y-31804952D01*
X40362571Y-31804952D02*
X40324476Y-31843047D01*
X40324476Y-31843047D02*
X40286380Y-31919238D01*
X41086381Y-32262095D02*
X41086381Y-31462095D01*
X41086381Y-31462095D02*
X41543524Y-32262095D01*
X41543524Y-32262095D02*
X41543524Y-31462095D01*
D11*
X38781714Y-18485142D02*
X39181714Y-19685142D01*
X39181714Y-19685142D02*
X39581714Y-18485142D01*
X40667428Y-19570857D02*
X40610285Y-19628000D01*
X40610285Y-19628000D02*
X40438857Y-19685142D01*
X40438857Y-19685142D02*
X40324571Y-19685142D01*
X40324571Y-19685142D02*
X40153142Y-19628000D01*
X40153142Y-19628000D02*
X40038857Y-19513714D01*
X40038857Y-19513714D02*
X39981714Y-19399428D01*
X39981714Y-19399428D02*
X39924571Y-19170857D01*
X39924571Y-19170857D02*
X39924571Y-18999428D01*
X39924571Y-18999428D02*
X39981714Y-18770857D01*
X39981714Y-18770857D02*
X40038857Y-18656571D01*
X40038857Y-18656571D02*
X40153142Y-18542285D01*
X40153142Y-18542285D02*
X40324571Y-18485142D01*
X40324571Y-18485142D02*
X40438857Y-18485142D01*
X40438857Y-18485142D02*
X40610285Y-18542285D01*
X40610285Y-18542285D02*
X40667428Y-18599428D01*
X41867428Y-19570857D02*
X41810285Y-19628000D01*
X41810285Y-19628000D02*
X41638857Y-19685142D01*
X41638857Y-19685142D02*
X41524571Y-19685142D01*
X41524571Y-19685142D02*
X41353142Y-19628000D01*
X41353142Y-19628000D02*
X41238857Y-19513714D01*
X41238857Y-19513714D02*
X41181714Y-19399428D01*
X41181714Y-19399428D02*
X41124571Y-19170857D01*
X41124571Y-19170857D02*
X41124571Y-18999428D01*
X41124571Y-18999428D02*
X41181714Y-18770857D01*
X41181714Y-18770857D02*
X41238857Y-18656571D01*
X41238857Y-18656571D02*
X41353142Y-18542285D01*
X41353142Y-18542285D02*
X41524571Y-18485142D01*
X41524571Y-18485142D02*
X41638857Y-18485142D01*
X41638857Y-18485142D02*
X41810285Y-18542285D01*
X41810285Y-18542285D02*
X41867428Y-18599428D01*
X42381714Y-19685142D02*
X42381714Y-18485142D01*
X43181714Y-18485142D02*
X43410286Y-18485142D01*
X43410286Y-18485142D02*
X43524571Y-18542285D01*
X43524571Y-18542285D02*
X43638857Y-18656571D01*
X43638857Y-18656571D02*
X43696000Y-18885142D01*
X43696000Y-18885142D02*
X43696000Y-19285142D01*
X43696000Y-19285142D02*
X43638857Y-19513714D01*
X43638857Y-19513714D02*
X43524571Y-19628000D01*
X43524571Y-19628000D02*
X43410286Y-19685142D01*
X43410286Y-19685142D02*
X43181714Y-19685142D01*
X43181714Y-19685142D02*
X43067429Y-19628000D01*
X43067429Y-19628000D02*
X42953143Y-19513714D01*
X42953143Y-19513714D02*
X42896000Y-19285142D01*
X42896000Y-19285142D02*
X42896000Y-18885142D01*
X42896000Y-18885142D02*
X42953143Y-18656571D01*
X42953143Y-18656571D02*
X43067429Y-18542285D01*
X43067429Y-18542285D02*
X43181714Y-18485142D01*
X34628571Y-79406227D02*
X34628571Y-80263370D01*
X34628571Y-80263370D02*
X34571428Y-80434799D01*
X34571428Y-80434799D02*
X34457142Y-80549085D01*
X34457142Y-80549085D02*
X34285714Y-80606227D01*
X34285714Y-80606227D02*
X34171428Y-80606227D01*
X35085714Y-79406227D02*
X35828571Y-79406227D01*
X35828571Y-79406227D02*
X35428571Y-79863370D01*
X35428571Y-79863370D02*
X35600000Y-79863370D01*
X35600000Y-79863370D02*
X35714286Y-79920513D01*
X35714286Y-79920513D02*
X35771428Y-79977656D01*
X35771428Y-79977656D02*
X35828571Y-80091942D01*
X35828571Y-80091942D02*
X35828571Y-80377656D01*
X35828571Y-80377656D02*
X35771428Y-80491942D01*
X35771428Y-80491942D02*
X35714286Y-80549085D01*
X35714286Y-80549085D02*
X35600000Y-80606227D01*
X35600000Y-80606227D02*
X35257143Y-80606227D01*
X35257143Y-80606227D02*
X35142857Y-80549085D01*
X35142857Y-80549085D02*
X35085714Y-80491942D01*
D10*
X40792874Y-70835590D02*
X40792874Y-70035590D01*
X40792874Y-70035590D02*
X40983350Y-70035590D01*
X40983350Y-70035590D02*
X41097636Y-70073685D01*
X41097636Y-70073685D02*
X41173826Y-70149875D01*
X41173826Y-70149875D02*
X41211921Y-70226066D01*
X41211921Y-70226066D02*
X41250017Y-70378447D01*
X41250017Y-70378447D02*
X41250017Y-70492733D01*
X41250017Y-70492733D02*
X41211921Y-70645114D01*
X41211921Y-70645114D02*
X41173826Y-70721304D01*
X41173826Y-70721304D02*
X41097636Y-70797495D01*
X41097636Y-70797495D02*
X40983350Y-70835590D01*
X40983350Y-70835590D02*
X40792874Y-70835590D01*
X41935731Y-70302256D02*
X41935731Y-70835590D01*
X41745255Y-69997495D02*
X41554778Y-70568923D01*
X41554778Y-70568923D02*
X42050017Y-70568923D01*
X42354779Y-70835590D02*
X42354779Y-70035590D01*
X42354779Y-70035590D02*
X42811922Y-70835590D01*
X42811922Y-70835590D02*
X42811922Y-70035590D01*
D11*
X34628571Y-71869195D02*
X34628571Y-72726338D01*
X34628571Y-72726338D02*
X34571428Y-72897767D01*
X34571428Y-72897767D02*
X34457142Y-73012053D01*
X34457142Y-73012053D02*
X34285714Y-73069195D01*
X34285714Y-73069195D02*
X34171428Y-73069195D01*
X35771428Y-71869195D02*
X35200000Y-71869195D01*
X35200000Y-71869195D02*
X35142857Y-72440624D01*
X35142857Y-72440624D02*
X35200000Y-72383481D01*
X35200000Y-72383481D02*
X35314286Y-72326338D01*
X35314286Y-72326338D02*
X35600000Y-72326338D01*
X35600000Y-72326338D02*
X35714286Y-72383481D01*
X35714286Y-72383481D02*
X35771428Y-72440624D01*
X35771428Y-72440624D02*
X35828571Y-72554910D01*
X35828571Y-72554910D02*
X35828571Y-72840624D01*
X35828571Y-72840624D02*
X35771428Y-72954910D01*
X35771428Y-72954910D02*
X35714286Y-73012053D01*
X35714286Y-73012053D02*
X35600000Y-73069195D01*
X35600000Y-73069195D02*
X35314286Y-73069195D01*
X35314286Y-73069195D02*
X35200000Y-73012053D01*
X35200000Y-73012053D02*
X35142857Y-72954910D01*
X34285714Y-70507605D02*
X34285714Y-69307605D01*
X34285714Y-69879034D02*
X34971428Y-69879034D01*
X34971428Y-70507605D02*
X34971428Y-69307605D01*
X36114285Y-69307605D02*
X35542857Y-69307605D01*
X35542857Y-69307605D02*
X35485714Y-69879034D01*
X35485714Y-69879034D02*
X35542857Y-69821891D01*
X35542857Y-69821891D02*
X35657143Y-69764748D01*
X35657143Y-69764748D02*
X35942857Y-69764748D01*
X35942857Y-69764748D02*
X36057143Y-69821891D01*
X36057143Y-69821891D02*
X36114285Y-69879034D01*
X36114285Y-69879034D02*
X36171428Y-69993320D01*
X36171428Y-69993320D02*
X36171428Y-70279034D01*
X36171428Y-70279034D02*
X36114285Y-70393320D01*
X36114285Y-70393320D02*
X36057143Y-70450463D01*
X36057143Y-70450463D02*
X35942857Y-70507605D01*
X35942857Y-70507605D02*
X35657143Y-70507605D01*
X35657143Y-70507605D02*
X35542857Y-70450463D01*
X35542857Y-70450463D02*
X35485714Y-70393320D01*
X8785714Y-71006032D02*
X8785714Y-69806032D01*
X8785714Y-69806032D02*
X9185714Y-70663175D01*
X9185714Y-70663175D02*
X9585714Y-69806032D01*
X9585714Y-69806032D02*
X9585714Y-71006032D01*
X10785714Y-71006032D02*
X10100000Y-71006032D01*
X10442857Y-71006032D02*
X10442857Y-69806032D01*
X10442857Y-69806032D02*
X10328571Y-69977461D01*
X10328571Y-69977461D02*
X10214286Y-70091747D01*
X10214286Y-70091747D02*
X10100000Y-70148890D01*
X8785714Y-73513122D02*
X8785714Y-72313122D01*
X8785714Y-72313122D02*
X9185714Y-73170265D01*
X9185714Y-73170265D02*
X9585714Y-72313122D01*
X9585714Y-72313122D02*
X9585714Y-73513122D01*
X10100000Y-72427408D02*
X10157143Y-72370265D01*
X10157143Y-72370265D02*
X10271429Y-72313122D01*
X10271429Y-72313122D02*
X10557143Y-72313122D01*
X10557143Y-72313122D02*
X10671429Y-72370265D01*
X10671429Y-72370265D02*
X10728571Y-72427408D01*
X10728571Y-72427408D02*
X10785714Y-72541694D01*
X10785714Y-72541694D02*
X10785714Y-72655980D01*
X10785714Y-72655980D02*
X10728571Y-72827408D01*
X10728571Y-72827408D02*
X10042857Y-73513122D01*
X10042857Y-73513122D02*
X10785714Y-73513122D01*
D10*
X9595953Y-15232895D02*
X9595953Y-14432895D01*
X9595953Y-14432895D02*
X9900715Y-14432895D01*
X9900715Y-14432895D02*
X9976905Y-14470990D01*
X9976905Y-14470990D02*
X10015000Y-14509085D01*
X10015000Y-14509085D02*
X10053096Y-14585276D01*
X10053096Y-14585276D02*
X10053096Y-14699561D01*
X10053096Y-14699561D02*
X10015000Y-14775752D01*
X10015000Y-14775752D02*
X9976905Y-14813847D01*
X9976905Y-14813847D02*
X9900715Y-14851942D01*
X9900715Y-14851942D02*
X9595953Y-14851942D01*
X10357857Y-14509085D02*
X10395953Y-14470990D01*
X10395953Y-14470990D02*
X10472143Y-14432895D01*
X10472143Y-14432895D02*
X10662619Y-14432895D01*
X10662619Y-14432895D02*
X10738810Y-14470990D01*
X10738810Y-14470990D02*
X10776905Y-14509085D01*
X10776905Y-14509085D02*
X10815000Y-14585276D01*
X10815000Y-14585276D02*
X10815000Y-14661466D01*
X10815000Y-14661466D02*
X10776905Y-14775752D01*
X10776905Y-14775752D02*
X10319762Y-15232895D01*
X10319762Y-15232895D02*
X10815000Y-15232895D01*
X11615001Y-15156704D02*
X11576905Y-15194800D01*
X11576905Y-15194800D02*
X11462620Y-15232895D01*
X11462620Y-15232895D02*
X11386429Y-15232895D01*
X11386429Y-15232895D02*
X11272143Y-15194800D01*
X11272143Y-15194800D02*
X11195953Y-15118609D01*
X11195953Y-15118609D02*
X11157858Y-15042419D01*
X11157858Y-15042419D02*
X11119762Y-14890038D01*
X11119762Y-14890038D02*
X11119762Y-14775752D01*
X11119762Y-14775752D02*
X11157858Y-14623371D01*
X11157858Y-14623371D02*
X11195953Y-14547180D01*
X11195953Y-14547180D02*
X11272143Y-14470990D01*
X11272143Y-14470990D02*
X11386429Y-14432895D01*
X11386429Y-14432895D02*
X11462620Y-14432895D01*
X11462620Y-14432895D02*
X11576905Y-14470990D01*
X11576905Y-14470990D02*
X11615001Y-14509085D01*
X11767382Y-15309085D02*
X12376905Y-15309085D01*
X13024525Y-15156704D02*
X12986429Y-15194800D01*
X12986429Y-15194800D02*
X12872144Y-15232895D01*
X12872144Y-15232895D02*
X12795953Y-15232895D01*
X12795953Y-15232895D02*
X12681667Y-15194800D01*
X12681667Y-15194800D02*
X12605477Y-15118609D01*
X12605477Y-15118609D02*
X12567382Y-15042419D01*
X12567382Y-15042419D02*
X12529286Y-14890038D01*
X12529286Y-14890038D02*
X12529286Y-14775752D01*
X12529286Y-14775752D02*
X12567382Y-14623371D01*
X12567382Y-14623371D02*
X12605477Y-14547180D01*
X12605477Y-14547180D02*
X12681667Y-14470990D01*
X12681667Y-14470990D02*
X12795953Y-14432895D01*
X12795953Y-14432895D02*
X12872144Y-14432895D01*
X12872144Y-14432895D02*
X12986429Y-14470990D01*
X12986429Y-14470990D02*
X13024525Y-14509085D01*
X13748334Y-15232895D02*
X13367382Y-15232895D01*
X13367382Y-15232895D02*
X13367382Y-14432895D01*
X14015001Y-15232895D02*
X14015001Y-14432895D01*
X14472144Y-15232895D02*
X14129286Y-14775752D01*
X14472144Y-14432895D02*
X14015001Y-14890038D01*
X14815001Y-15232895D02*
X14815001Y-14432895D01*
X14815001Y-14432895D02*
X15119763Y-14432895D01*
X15119763Y-14432895D02*
X15195953Y-14470990D01*
X15195953Y-14470990D02*
X15234048Y-14509085D01*
X15234048Y-14509085D02*
X15272144Y-14585276D01*
X15272144Y-14585276D02*
X15272144Y-14699561D01*
X15272144Y-14699561D02*
X15234048Y-14775752D01*
X15234048Y-14775752D02*
X15195953Y-14813847D01*
X15195953Y-14813847D02*
X15119763Y-14851942D01*
X15119763Y-14851942D02*
X14815001Y-14851942D01*
X2064820Y-58077586D02*
X2179106Y-58115681D01*
X2179106Y-58115681D02*
X2369582Y-58115681D01*
X2369582Y-58115681D02*
X2445773Y-58077586D01*
X2445773Y-58077586D02*
X2483868Y-58039490D01*
X2483868Y-58039490D02*
X2521963Y-57963300D01*
X2521963Y-57963300D02*
X2521963Y-57887109D01*
X2521963Y-57887109D02*
X2483868Y-57810919D01*
X2483868Y-57810919D02*
X2445773Y-57772824D01*
X2445773Y-57772824D02*
X2369582Y-57734728D01*
X2369582Y-57734728D02*
X2217201Y-57696633D01*
X2217201Y-57696633D02*
X2141011Y-57658538D01*
X2141011Y-57658538D02*
X2102916Y-57620443D01*
X2102916Y-57620443D02*
X2064820Y-57544252D01*
X2064820Y-57544252D02*
X2064820Y-57468062D01*
X2064820Y-57468062D02*
X2102916Y-57391871D01*
X2102916Y-57391871D02*
X2141011Y-57353776D01*
X2141011Y-57353776D02*
X2217201Y-57315681D01*
X2217201Y-57315681D02*
X2407678Y-57315681D01*
X2407678Y-57315681D02*
X2521963Y-57353776D01*
X2826725Y-57391871D02*
X2864821Y-57353776D01*
X2864821Y-57353776D02*
X2941011Y-57315681D01*
X2941011Y-57315681D02*
X3131487Y-57315681D01*
X3131487Y-57315681D02*
X3207678Y-57353776D01*
X3207678Y-57353776D02*
X3245773Y-57391871D01*
X3245773Y-57391871D02*
X3283868Y-57468062D01*
X3283868Y-57468062D02*
X3283868Y-57544252D01*
X3283868Y-57544252D02*
X3245773Y-57658538D01*
X3245773Y-57658538D02*
X2788630Y-58115681D01*
X2788630Y-58115681D02*
X3283868Y-58115681D01*
X4045773Y-58115681D02*
X3588630Y-58115681D01*
X3817202Y-58115681D02*
X3817202Y-57315681D01*
X3817202Y-57315681D02*
X3741011Y-57429966D01*
X3741011Y-57429966D02*
X3664821Y-57506157D01*
X3664821Y-57506157D02*
X3588630Y-57544252D01*
X2010817Y-63099895D02*
X2125103Y-63137990D01*
X2125103Y-63137990D02*
X2315579Y-63137990D01*
X2315579Y-63137990D02*
X2391770Y-63099895D01*
X2391770Y-63099895D02*
X2429865Y-63061799D01*
X2429865Y-63061799D02*
X2467960Y-62985609D01*
X2467960Y-62985609D02*
X2467960Y-62909418D01*
X2467960Y-62909418D02*
X2429865Y-62833228D01*
X2429865Y-62833228D02*
X2391770Y-62795133D01*
X2391770Y-62795133D02*
X2315579Y-62757037D01*
X2315579Y-62757037D02*
X2163198Y-62718942D01*
X2163198Y-62718942D02*
X2087008Y-62680847D01*
X2087008Y-62680847D02*
X2048913Y-62642752D01*
X2048913Y-62642752D02*
X2010817Y-62566561D01*
X2010817Y-62566561D02*
X2010817Y-62490371D01*
X2010817Y-62490371D02*
X2048913Y-62414180D01*
X2048913Y-62414180D02*
X2087008Y-62376085D01*
X2087008Y-62376085D02*
X2163198Y-62337990D01*
X2163198Y-62337990D02*
X2353675Y-62337990D01*
X2353675Y-62337990D02*
X2467960Y-62376085D01*
X3229865Y-63137990D02*
X2772722Y-63137990D01*
X3001294Y-63137990D02*
X3001294Y-62337990D01*
X3001294Y-62337990D02*
X2925103Y-62452275D01*
X2925103Y-62452275D02*
X2848913Y-62528466D01*
X2848913Y-62528466D02*
X2772722Y-62566561D01*
X3496532Y-62337990D02*
X4029866Y-62337990D01*
X4029866Y-62337990D02*
X3687008Y-63137990D01*
D11*
X37229085Y-36474685D02*
X37114800Y-36417542D01*
X37114800Y-36417542D02*
X36943371Y-36417542D01*
X36943371Y-36417542D02*
X36771942Y-36474685D01*
X36771942Y-36474685D02*
X36657657Y-36588971D01*
X36657657Y-36588971D02*
X36600514Y-36703257D01*
X36600514Y-36703257D02*
X36543371Y-36931828D01*
X36543371Y-36931828D02*
X36543371Y-37103257D01*
X36543371Y-37103257D02*
X36600514Y-37331828D01*
X36600514Y-37331828D02*
X36657657Y-37446114D01*
X36657657Y-37446114D02*
X36771942Y-37560400D01*
X36771942Y-37560400D02*
X36943371Y-37617542D01*
X36943371Y-37617542D02*
X37057657Y-37617542D01*
X37057657Y-37617542D02*
X37229085Y-37560400D01*
X37229085Y-37560400D02*
X37286228Y-37503257D01*
X37286228Y-37503257D02*
X37286228Y-37103257D01*
X37286228Y-37103257D02*
X37057657Y-37103257D01*
X37743371Y-36531828D02*
X37800514Y-36474685D01*
X37800514Y-36474685D02*
X37914800Y-36417542D01*
X37914800Y-36417542D02*
X38200514Y-36417542D01*
X38200514Y-36417542D02*
X38314800Y-36474685D01*
X38314800Y-36474685D02*
X38371942Y-36531828D01*
X38371942Y-36531828D02*
X38429085Y-36646114D01*
X38429085Y-36646114D02*
X38429085Y-36760400D01*
X38429085Y-36760400D02*
X38371942Y-36931828D01*
X38371942Y-36931828D02*
X37686228Y-37617542D01*
X37686228Y-37617542D02*
X38429085Y-37617542D01*
X8785714Y-78635133D02*
X8785714Y-77435133D01*
X8785714Y-77435133D02*
X9471428Y-78635133D01*
X9471428Y-78635133D02*
X9471428Y-77435133D01*
X10614285Y-77435133D02*
X10042857Y-77435133D01*
X10042857Y-77435133D02*
X9985714Y-78006562D01*
X9985714Y-78006562D02*
X10042857Y-77949419D01*
X10042857Y-77949419D02*
X10157143Y-77892276D01*
X10157143Y-77892276D02*
X10442857Y-77892276D01*
X10442857Y-77892276D02*
X10557143Y-77949419D01*
X10557143Y-77949419D02*
X10614285Y-78006562D01*
X10614285Y-78006562D02*
X10671428Y-78120848D01*
X10671428Y-78120848D02*
X10671428Y-78406562D01*
X10671428Y-78406562D02*
X10614285Y-78520848D01*
X10614285Y-78520848D02*
X10557143Y-78577991D01*
X10557143Y-78577991D02*
X10442857Y-78635133D01*
X10442857Y-78635133D02*
X10157143Y-78635133D01*
X10157143Y-78635133D02*
X10042857Y-78577991D01*
X10042857Y-78577991D02*
X9985714Y-78520848D01*
X41067428Y-21098358D02*
X40496000Y-21098358D01*
X40496000Y-21098358D02*
X40438857Y-21669787D01*
X40438857Y-21669787D02*
X40496000Y-21612644D01*
X40496000Y-21612644D02*
X40610286Y-21555501D01*
X40610286Y-21555501D02*
X40896000Y-21555501D01*
X40896000Y-21555501D02*
X41010286Y-21612644D01*
X41010286Y-21612644D02*
X41067428Y-21669787D01*
X41067428Y-21669787D02*
X41124571Y-21784073D01*
X41124571Y-21784073D02*
X41124571Y-22069787D01*
X41124571Y-22069787D02*
X41067428Y-22184073D01*
X41067428Y-22184073D02*
X41010286Y-22241216D01*
X41010286Y-22241216D02*
X40896000Y-22298358D01*
X40896000Y-22298358D02*
X40610286Y-22298358D01*
X40610286Y-22298358D02*
X40496000Y-22241216D01*
X40496000Y-22241216D02*
X40438857Y-22184073D01*
X41467428Y-21098358D02*
X41867428Y-22298358D01*
X41867428Y-22298358D02*
X42267428Y-21098358D01*
X37203714Y-34144171D02*
X36803714Y-34144171D01*
X36803714Y-34772742D02*
X36803714Y-33572742D01*
X36803714Y-33572742D02*
X37375142Y-33572742D01*
X38460856Y-34772742D02*
X37775142Y-34772742D01*
X38117999Y-34772742D02*
X38117999Y-33572742D01*
X38117999Y-33572742D02*
X38003713Y-33744171D01*
X38003713Y-33744171D02*
X37889428Y-33858457D01*
X37889428Y-33858457D02*
X37775142Y-33915600D01*
X39810286Y-23565142D02*
X40553143Y-23565142D01*
X40553143Y-23565142D02*
X40153143Y-24022285D01*
X40153143Y-24022285D02*
X40324572Y-24022285D01*
X40324572Y-24022285D02*
X40438858Y-24079428D01*
X40438858Y-24079428D02*
X40496000Y-24136571D01*
X40496000Y-24136571D02*
X40553143Y-24250857D01*
X40553143Y-24250857D02*
X40553143Y-24536571D01*
X40553143Y-24536571D02*
X40496000Y-24650857D01*
X40496000Y-24650857D02*
X40438858Y-24708000D01*
X40438858Y-24708000D02*
X40324572Y-24765142D01*
X40324572Y-24765142D02*
X39981715Y-24765142D01*
X39981715Y-24765142D02*
X39867429Y-24708000D01*
X39867429Y-24708000D02*
X39810286Y-24650857D01*
X40896000Y-23565142D02*
X41296000Y-24765142D01*
X41296000Y-24765142D02*
X41696000Y-23565142D01*
X41981714Y-23565142D02*
X42724571Y-23565142D01*
X42724571Y-23565142D02*
X42324571Y-24022285D01*
X42324571Y-24022285D02*
X42496000Y-24022285D01*
X42496000Y-24022285D02*
X42610286Y-24079428D01*
X42610286Y-24079428D02*
X42667428Y-24136571D01*
X42667428Y-24136571D02*
X42724571Y-24250857D01*
X42724571Y-24250857D02*
X42724571Y-24536571D01*
X42724571Y-24536571D02*
X42667428Y-24650857D01*
X42667428Y-24650857D02*
X42610286Y-24708000D01*
X42610286Y-24708000D02*
X42496000Y-24765142D01*
X42496000Y-24765142D02*
X42153143Y-24765142D01*
X42153143Y-24765142D02*
X42038857Y-24708000D01*
X42038857Y-24708000D02*
X41981714Y-24650857D01*
D12*
X28059657Y-9201619D02*
X27392990Y-9201619D01*
X27392990Y-10249238D02*
X27392990Y-8249238D01*
X27392990Y-8249238D02*
X28345371Y-8249238D01*
X30059657Y-10249238D02*
X29107276Y-10249238D01*
X29107276Y-10249238D02*
X29107276Y-8249238D01*
X30631086Y-9677809D02*
X31583467Y-9677809D01*
X30440610Y-10249238D02*
X31107276Y-8249238D01*
X31107276Y-8249238D02*
X31773943Y-10249238D01*
X32345372Y-10154000D02*
X32631086Y-10249238D01*
X32631086Y-10249238D02*
X33107277Y-10249238D01*
X33107277Y-10249238D02*
X33297753Y-10154000D01*
X33297753Y-10154000D02*
X33392991Y-10058761D01*
X33392991Y-10058761D02*
X33488229Y-9868285D01*
X33488229Y-9868285D02*
X33488229Y-9677809D01*
X33488229Y-9677809D02*
X33392991Y-9487333D01*
X33392991Y-9487333D02*
X33297753Y-9392095D01*
X33297753Y-9392095D02*
X33107277Y-9296857D01*
X33107277Y-9296857D02*
X32726324Y-9201619D01*
X32726324Y-9201619D02*
X32535848Y-9106380D01*
X32535848Y-9106380D02*
X32440610Y-9011142D01*
X32440610Y-9011142D02*
X32345372Y-8820666D01*
X32345372Y-8820666D02*
X32345372Y-8630190D01*
X32345372Y-8630190D02*
X32440610Y-8439714D01*
X32440610Y-8439714D02*
X32535848Y-8344476D01*
X32535848Y-8344476D02*
X32726324Y-8249238D01*
X32726324Y-8249238D02*
X33202515Y-8249238D01*
X33202515Y-8249238D02*
X33488229Y-8344476D01*
X34345372Y-10249238D02*
X34345372Y-8249238D01*
X34345372Y-9201619D02*
X35488229Y-9201619D01*
X35488229Y-10249238D02*
X35488229Y-8249238D01*
D10*
X2037820Y-78447932D02*
X2037820Y-77647932D01*
X2037820Y-77647932D02*
X2228296Y-77647932D01*
X2228296Y-77647932D02*
X2342582Y-77686027D01*
X2342582Y-77686027D02*
X2418772Y-77762217D01*
X2418772Y-77762217D02*
X2456867Y-77838408D01*
X2456867Y-77838408D02*
X2494963Y-77990789D01*
X2494963Y-77990789D02*
X2494963Y-78105075D01*
X2494963Y-78105075D02*
X2456867Y-78257456D01*
X2456867Y-78257456D02*
X2418772Y-78333646D01*
X2418772Y-78333646D02*
X2342582Y-78409837D01*
X2342582Y-78409837D02*
X2228296Y-78447932D01*
X2228296Y-78447932D02*
X2037820Y-78447932D01*
X2761629Y-77647932D02*
X3256867Y-77647932D01*
X3256867Y-77647932D02*
X2990201Y-77952694D01*
X2990201Y-77952694D02*
X3104486Y-77952694D01*
X3104486Y-77952694D02*
X3180677Y-77990789D01*
X3180677Y-77990789D02*
X3218772Y-78028884D01*
X3218772Y-78028884D02*
X3256867Y-78105075D01*
X3256867Y-78105075D02*
X3256867Y-78295551D01*
X3256867Y-78295551D02*
X3218772Y-78371741D01*
X3218772Y-78371741D02*
X3180677Y-78409837D01*
X3180677Y-78409837D02*
X3104486Y-78447932D01*
X3104486Y-78447932D02*
X2875915Y-78447932D01*
X2875915Y-78447932D02*
X2799724Y-78409837D01*
X2799724Y-78409837D02*
X2761629Y-78371741D01*
X3599725Y-78447932D02*
X3599725Y-77647932D01*
X3599725Y-77647932D02*
X3904487Y-77647932D01*
X3904487Y-77647932D02*
X3980677Y-77686027D01*
X3980677Y-77686027D02*
X4018772Y-77724122D01*
X4018772Y-77724122D02*
X4056868Y-77800313D01*
X4056868Y-77800313D02*
X4056868Y-77914598D01*
X4056868Y-77914598D02*
X4018772Y-77990789D01*
X4018772Y-77990789D02*
X3980677Y-78028884D01*
X3980677Y-78028884D02*
X3904487Y-78066979D01*
X3904487Y-78066979D02*
X3599725Y-78066979D01*
D12*
X16891427Y-6767500D02*
X17277142Y-6886547D01*
X17277142Y-6886547D02*
X17919999Y-6886547D01*
X17919999Y-6886547D02*
X18177142Y-6767500D01*
X18177142Y-6767500D02*
X18305713Y-6648452D01*
X18305713Y-6648452D02*
X18434284Y-6410357D01*
X18434284Y-6410357D02*
X18434284Y-6172261D01*
X18434284Y-6172261D02*
X18305713Y-5934166D01*
X18305713Y-5934166D02*
X18177142Y-5815119D01*
X18177142Y-5815119D02*
X17919999Y-5696071D01*
X17919999Y-5696071D02*
X17405713Y-5577023D01*
X17405713Y-5577023D02*
X17148570Y-5457976D01*
X17148570Y-5457976D02*
X17019999Y-5338928D01*
X17019999Y-5338928D02*
X16891427Y-5100833D01*
X16891427Y-5100833D02*
X16891427Y-4862738D01*
X16891427Y-4862738D02*
X17019999Y-4624642D01*
X17019999Y-4624642D02*
X17148570Y-4505595D01*
X17148570Y-4505595D02*
X17405713Y-4386547D01*
X17405713Y-4386547D02*
X18048570Y-4386547D01*
X18048570Y-4386547D02*
X18434284Y-4505595D01*
X20105713Y-5696071D02*
X20105713Y-6886547D01*
X19205713Y-4386547D02*
X20105713Y-5696071D01*
X20105713Y-5696071D02*
X21005713Y-4386547D01*
X21648571Y-4386547D02*
X23448571Y-4386547D01*
X23448571Y-4386547D02*
X21648571Y-6886547D01*
X21648571Y-6886547D02*
X23448571Y-6886547D01*
X24991428Y-5696071D02*
X24991428Y-6886547D01*
X24091428Y-4386547D02*
X24991428Y-5696071D01*
X24991428Y-5696071D02*
X25891428Y-4386547D01*
X28205714Y-4505595D02*
X27948572Y-4386547D01*
X27948572Y-4386547D02*
X27562857Y-4386547D01*
X27562857Y-4386547D02*
X27177143Y-4505595D01*
X27177143Y-4505595D02*
X26920000Y-4743690D01*
X26920000Y-4743690D02*
X26791429Y-4981785D01*
X26791429Y-4981785D02*
X26662857Y-5457976D01*
X26662857Y-5457976D02*
X26662857Y-5815119D01*
X26662857Y-5815119D02*
X26791429Y-6291309D01*
X26791429Y-6291309D02*
X26920000Y-6529404D01*
X26920000Y-6529404D02*
X27177143Y-6767500D01*
X27177143Y-6767500D02*
X27562857Y-6886547D01*
X27562857Y-6886547D02*
X27820000Y-6886547D01*
X27820000Y-6886547D02*
X28205714Y-6767500D01*
X28205714Y-6767500D02*
X28334286Y-6648452D01*
X28334286Y-6648452D02*
X28334286Y-5815119D01*
X28334286Y-5815119D02*
X27820000Y-5815119D01*
X30005714Y-5696071D02*
X30005714Y-6886547D01*
X29105714Y-4386547D02*
X30005714Y-5696071D01*
X30005714Y-5696071D02*
X30905714Y-4386547D01*
D11*
X9185714Y-57707225D02*
X8785714Y-57707225D01*
X8785714Y-58335796D02*
X8785714Y-57135796D01*
X8785714Y-57135796D02*
X9357142Y-57135796D01*
X9699999Y-57135796D02*
X10442856Y-57135796D01*
X10442856Y-57135796D02*
X10042856Y-57592939D01*
X10042856Y-57592939D02*
X10214285Y-57592939D01*
X10214285Y-57592939D02*
X10328571Y-57650082D01*
X10328571Y-57650082D02*
X10385713Y-57707225D01*
X10385713Y-57707225D02*
X10442856Y-57821511D01*
X10442856Y-57821511D02*
X10442856Y-58107225D01*
X10442856Y-58107225D02*
X10385713Y-58221511D01*
X10385713Y-58221511D02*
X10328571Y-58278654D01*
X10328571Y-58278654D02*
X10214285Y-58335796D01*
X10214285Y-58335796D02*
X9871428Y-58335796D01*
X9871428Y-58335796D02*
X9757142Y-58278654D01*
X9757142Y-58278654D02*
X9699999Y-58221511D01*
D10*
X2018772Y-75909776D02*
X2018772Y-75109776D01*
X2018772Y-75109776D02*
X2209248Y-75109776D01*
X2209248Y-75109776D02*
X2323534Y-75147871D01*
X2323534Y-75147871D02*
X2399724Y-75224061D01*
X2399724Y-75224061D02*
X2437819Y-75300252D01*
X2437819Y-75300252D02*
X2475915Y-75452633D01*
X2475915Y-75452633D02*
X2475915Y-75566919D01*
X2475915Y-75566919D02*
X2437819Y-75719300D01*
X2437819Y-75719300D02*
X2399724Y-75795490D01*
X2399724Y-75795490D02*
X2323534Y-75871681D01*
X2323534Y-75871681D02*
X2209248Y-75909776D01*
X2209248Y-75909776D02*
X2018772Y-75909776D01*
X2742581Y-75109776D02*
X3237819Y-75109776D01*
X3237819Y-75109776D02*
X2971153Y-75414538D01*
X2971153Y-75414538D02*
X3085438Y-75414538D01*
X3085438Y-75414538D02*
X3161629Y-75452633D01*
X3161629Y-75452633D02*
X3199724Y-75490728D01*
X3199724Y-75490728D02*
X3237819Y-75566919D01*
X3237819Y-75566919D02*
X3237819Y-75757395D01*
X3237819Y-75757395D02*
X3199724Y-75833585D01*
X3199724Y-75833585D02*
X3161629Y-75871681D01*
X3161629Y-75871681D02*
X3085438Y-75909776D01*
X3085438Y-75909776D02*
X2856867Y-75909776D01*
X2856867Y-75909776D02*
X2780676Y-75871681D01*
X2780676Y-75871681D02*
X2742581Y-75833585D01*
X3580677Y-75909776D02*
X3580677Y-75109776D01*
X3580677Y-75109776D02*
X4037820Y-75909776D01*
X4037820Y-75909776D02*
X4037820Y-75109776D01*
D11*
X8785714Y-81223096D02*
X8785714Y-80023096D01*
X8785714Y-80023096D02*
X9242857Y-80023096D01*
X9242857Y-80023096D02*
X9357142Y-80080239D01*
X9357142Y-80080239D02*
X9414285Y-80137382D01*
X9414285Y-80137382D02*
X9471428Y-80251668D01*
X9471428Y-80251668D02*
X9471428Y-80423096D01*
X9471428Y-80423096D02*
X9414285Y-80537382D01*
X9414285Y-80537382D02*
X9357142Y-80594525D01*
X9357142Y-80594525D02*
X9242857Y-80651668D01*
X9242857Y-80651668D02*
X8785714Y-80651668D01*
X10614285Y-81223096D02*
X9928571Y-81223096D01*
X10271428Y-81223096D02*
X10271428Y-80023096D01*
X10271428Y-80023096D02*
X10157142Y-80194525D01*
X10157142Y-80194525D02*
X10042857Y-80308811D01*
X10042857Y-80308811D02*
X9928571Y-80365954D01*
X25465714Y-20898142D02*
X25865714Y-22098142D01*
X25865714Y-22098142D02*
X26265714Y-20898142D01*
X26894285Y-20898142D02*
X27122857Y-20898142D01*
X27122857Y-20898142D02*
X27237142Y-20955285D01*
X27237142Y-20955285D02*
X27351428Y-21069571D01*
X27351428Y-21069571D02*
X27408571Y-21298142D01*
X27408571Y-21298142D02*
X27408571Y-21698142D01*
X27408571Y-21698142D02*
X27351428Y-21926714D01*
X27351428Y-21926714D02*
X27237142Y-22041000D01*
X27237142Y-22041000D02*
X27122857Y-22098142D01*
X27122857Y-22098142D02*
X26894285Y-22098142D01*
X26894285Y-22098142D02*
X26780000Y-22041000D01*
X26780000Y-22041000D02*
X26665714Y-21926714D01*
X26665714Y-21926714D02*
X26608571Y-21698142D01*
X26608571Y-21698142D02*
X26608571Y-21298142D01*
X26608571Y-21298142D02*
X26665714Y-21069571D01*
X26665714Y-21069571D02*
X26780000Y-20955285D01*
X26780000Y-20955285D02*
X26894285Y-20898142D01*
X27922857Y-20898142D02*
X27922857Y-21869571D01*
X27922857Y-21869571D02*
X27980000Y-21983857D01*
X27980000Y-21983857D02*
X28037143Y-22041000D01*
X28037143Y-22041000D02*
X28151428Y-22098142D01*
X28151428Y-22098142D02*
X28380000Y-22098142D01*
X28380000Y-22098142D02*
X28494285Y-22041000D01*
X28494285Y-22041000D02*
X28551428Y-21983857D01*
X28551428Y-21983857D02*
X28608571Y-21869571D01*
X28608571Y-21869571D02*
X28608571Y-20898142D01*
X29008571Y-20898142D02*
X29694286Y-20898142D01*
X29351428Y-22098142D02*
X29351428Y-20898142D01*
X34285714Y-78122074D02*
X34285714Y-76922074D01*
X34285714Y-77493503D02*
X34971428Y-77493503D01*
X34971428Y-78122074D02*
X34971428Y-76922074D01*
X36057143Y-77322074D02*
X36057143Y-78122074D01*
X35771428Y-76864932D02*
X35485714Y-77722074D01*
X35485714Y-77722074D02*
X36228571Y-77722074D01*
X9357142Y-63269101D02*
X8785714Y-63269101D01*
X8785714Y-63269101D02*
X8785714Y-62069101D01*
X9700000Y-62183387D02*
X9757143Y-62126244D01*
X9757143Y-62126244D02*
X9871429Y-62069101D01*
X9871429Y-62069101D02*
X10157143Y-62069101D01*
X10157143Y-62069101D02*
X10271429Y-62126244D01*
X10271429Y-62126244D02*
X10328571Y-62183387D01*
X10328571Y-62183387D02*
X10385714Y-62297673D01*
X10385714Y-62297673D02*
X10385714Y-62411959D01*
X10385714Y-62411959D02*
X10328571Y-62583387D01*
X10328571Y-62583387D02*
X9642857Y-63269101D01*
X9642857Y-63269101D02*
X10385714Y-63269101D01*
D10*
X40838924Y-68216429D02*
X40838924Y-67416429D01*
X40838924Y-67416429D02*
X41029400Y-67416429D01*
X41029400Y-67416429D02*
X41143686Y-67454524D01*
X41143686Y-67454524D02*
X41219876Y-67530714D01*
X41219876Y-67530714D02*
X41257971Y-67606905D01*
X41257971Y-67606905D02*
X41296067Y-67759286D01*
X41296067Y-67759286D02*
X41296067Y-67873572D01*
X41296067Y-67873572D02*
X41257971Y-68025953D01*
X41257971Y-68025953D02*
X41219876Y-68102143D01*
X41219876Y-68102143D02*
X41143686Y-68178334D01*
X41143686Y-68178334D02*
X41029400Y-68216429D01*
X41029400Y-68216429D02*
X40838924Y-68216429D01*
X41981781Y-67416429D02*
X41829400Y-67416429D01*
X41829400Y-67416429D02*
X41753209Y-67454524D01*
X41753209Y-67454524D02*
X41715114Y-67492619D01*
X41715114Y-67492619D02*
X41638924Y-67606905D01*
X41638924Y-67606905D02*
X41600828Y-67759286D01*
X41600828Y-67759286D02*
X41600828Y-68064048D01*
X41600828Y-68064048D02*
X41638924Y-68140238D01*
X41638924Y-68140238D02*
X41677019Y-68178334D01*
X41677019Y-68178334D02*
X41753209Y-68216429D01*
X41753209Y-68216429D02*
X41905590Y-68216429D01*
X41905590Y-68216429D02*
X41981781Y-68178334D01*
X41981781Y-68178334D02*
X42019876Y-68140238D01*
X42019876Y-68140238D02*
X42057971Y-68064048D01*
X42057971Y-68064048D02*
X42057971Y-67873572D01*
X42057971Y-67873572D02*
X42019876Y-67797381D01*
X42019876Y-67797381D02*
X41981781Y-67759286D01*
X41981781Y-67759286D02*
X41905590Y-67721191D01*
X41905590Y-67721191D02*
X41753209Y-67721191D01*
X41753209Y-67721191D02*
X41677019Y-67759286D01*
X41677019Y-67759286D02*
X41638924Y-67797381D01*
X41638924Y-67797381D02*
X41600828Y-67873572D01*
X42400829Y-68216429D02*
X42400829Y-67416429D01*
X42400829Y-67416429D02*
X42705591Y-67416429D01*
X42705591Y-67416429D02*
X42781781Y-67454524D01*
X42781781Y-67454524D02*
X42819876Y-67492619D01*
X42819876Y-67492619D02*
X42857972Y-67568810D01*
X42857972Y-67568810D02*
X42857972Y-67683095D01*
X42857972Y-67683095D02*
X42819876Y-67759286D01*
X42819876Y-67759286D02*
X42781781Y-67797381D01*
X42781781Y-67797381D02*
X42705591Y-67835476D01*
X42705591Y-67835476D02*
X42400829Y-67835476D01*
X2064820Y-55539429D02*
X2179106Y-55577524D01*
X2179106Y-55577524D02*
X2369582Y-55577524D01*
X2369582Y-55577524D02*
X2445773Y-55539429D01*
X2445773Y-55539429D02*
X2483868Y-55501333D01*
X2483868Y-55501333D02*
X2521963Y-55425143D01*
X2521963Y-55425143D02*
X2521963Y-55348952D01*
X2521963Y-55348952D02*
X2483868Y-55272762D01*
X2483868Y-55272762D02*
X2445773Y-55234667D01*
X2445773Y-55234667D02*
X2369582Y-55196571D01*
X2369582Y-55196571D02*
X2217201Y-55158476D01*
X2217201Y-55158476D02*
X2141011Y-55120381D01*
X2141011Y-55120381D02*
X2102916Y-55082286D01*
X2102916Y-55082286D02*
X2064820Y-55006095D01*
X2064820Y-55006095D02*
X2064820Y-54929905D01*
X2064820Y-54929905D02*
X2102916Y-54853714D01*
X2102916Y-54853714D02*
X2141011Y-54815619D01*
X2141011Y-54815619D02*
X2217201Y-54777524D01*
X2217201Y-54777524D02*
X2407678Y-54777524D01*
X2407678Y-54777524D02*
X2521963Y-54815619D01*
X2826725Y-54853714D02*
X2864821Y-54815619D01*
X2864821Y-54815619D02*
X2941011Y-54777524D01*
X2941011Y-54777524D02*
X3131487Y-54777524D01*
X3131487Y-54777524D02*
X3207678Y-54815619D01*
X3207678Y-54815619D02*
X3245773Y-54853714D01*
X3245773Y-54853714D02*
X3283868Y-54929905D01*
X3283868Y-54929905D02*
X3283868Y-55006095D01*
X3283868Y-55006095D02*
X3245773Y-55120381D01*
X3245773Y-55120381D02*
X2788630Y-55577524D01*
X2788630Y-55577524D02*
X3283868Y-55577524D01*
X3550535Y-54777524D02*
X4045773Y-54777524D01*
X4045773Y-54777524D02*
X3779107Y-55082286D01*
X3779107Y-55082286D02*
X3893392Y-55082286D01*
X3893392Y-55082286D02*
X3969583Y-55120381D01*
X3969583Y-55120381D02*
X4007678Y-55158476D01*
X4007678Y-55158476D02*
X4045773Y-55234667D01*
X4045773Y-55234667D02*
X4045773Y-55425143D01*
X4045773Y-55425143D02*
X4007678Y-55501333D01*
X4007678Y-55501333D02*
X3969583Y-55539429D01*
X3969583Y-55539429D02*
X3893392Y-55577524D01*
X3893392Y-55577524D02*
X3664821Y-55577524D01*
X3664821Y-55577524D02*
X3588630Y-55539429D01*
X3588630Y-55539429D02*
X3550535Y-55501333D01*
X40757919Y-83526371D02*
X40757919Y-82726371D01*
X40757919Y-82726371D02*
X40948395Y-82726371D01*
X40948395Y-82726371D02*
X41062681Y-82764466D01*
X41062681Y-82764466D02*
X41138871Y-82840656D01*
X41138871Y-82840656D02*
X41176966Y-82916847D01*
X41176966Y-82916847D02*
X41215062Y-83069228D01*
X41215062Y-83069228D02*
X41215062Y-83183514D01*
X41215062Y-83183514D02*
X41176966Y-83335895D01*
X41176966Y-83335895D02*
X41138871Y-83412085D01*
X41138871Y-83412085D02*
X41062681Y-83488276D01*
X41062681Y-83488276D02*
X40948395Y-83526371D01*
X40948395Y-83526371D02*
X40757919Y-83526371D01*
X41710300Y-82726371D02*
X41786490Y-82726371D01*
X41786490Y-82726371D02*
X41862681Y-82764466D01*
X41862681Y-82764466D02*
X41900776Y-82802561D01*
X41900776Y-82802561D02*
X41938871Y-82878752D01*
X41938871Y-82878752D02*
X41976966Y-83031133D01*
X41976966Y-83031133D02*
X41976966Y-83221609D01*
X41976966Y-83221609D02*
X41938871Y-83373990D01*
X41938871Y-83373990D02*
X41900776Y-83450180D01*
X41900776Y-83450180D02*
X41862681Y-83488276D01*
X41862681Y-83488276D02*
X41786490Y-83526371D01*
X41786490Y-83526371D02*
X41710300Y-83526371D01*
X41710300Y-83526371D02*
X41634109Y-83488276D01*
X41634109Y-83488276D02*
X41596014Y-83450180D01*
X41596014Y-83450180D02*
X41557919Y-83373990D01*
X41557919Y-83373990D02*
X41519823Y-83221609D01*
X41519823Y-83221609D02*
X41519823Y-83031133D01*
X41519823Y-83031133D02*
X41557919Y-82878752D01*
X41557919Y-82878752D02*
X41596014Y-82802561D01*
X41596014Y-82802561D02*
X41634109Y-82764466D01*
X41634109Y-82764466D02*
X41710300Y-82726371D01*
X42319824Y-83526371D02*
X42319824Y-82726371D01*
X42319824Y-82726371D02*
X42624586Y-82726371D01*
X42624586Y-82726371D02*
X42700776Y-82764466D01*
X42700776Y-82764466D02*
X42738871Y-82802561D01*
X42738871Y-82802561D02*
X42776967Y-82878752D01*
X42776967Y-82878752D02*
X42776967Y-82993037D01*
X42776967Y-82993037D02*
X42738871Y-83069228D01*
X42738871Y-83069228D02*
X42700776Y-83107323D01*
X42700776Y-83107323D02*
X42624586Y-83145418D01*
X42624586Y-83145418D02*
X42319824Y-83145418D01*
D11*
X8785714Y-68471985D02*
X8785714Y-67271985D01*
X8785714Y-67271985D02*
X9185714Y-68129128D01*
X9185714Y-68129128D02*
X9585714Y-67271985D01*
X9585714Y-67271985D02*
X9585714Y-68471985D01*
X10728571Y-67271985D02*
X10157143Y-67271985D01*
X10157143Y-67271985D02*
X10100000Y-67843414D01*
X10100000Y-67843414D02*
X10157143Y-67786271D01*
X10157143Y-67786271D02*
X10271429Y-67729128D01*
X10271429Y-67729128D02*
X10557143Y-67729128D01*
X10557143Y-67729128D02*
X10671429Y-67786271D01*
X10671429Y-67786271D02*
X10728571Y-67843414D01*
X10728571Y-67843414D02*
X10785714Y-67957700D01*
X10785714Y-67957700D02*
X10785714Y-68243414D01*
X10785714Y-68243414D02*
X10728571Y-68357700D01*
X10728571Y-68357700D02*
X10671429Y-68414843D01*
X10671429Y-68414843D02*
X10557143Y-68471985D01*
X10557143Y-68471985D02*
X10271429Y-68471985D01*
X10271429Y-68471985D02*
X10157143Y-68414843D01*
X10157143Y-68414843D02*
X10100000Y-68357700D01*
D10*
X19871695Y-39580419D02*
X19871695Y-40389942D01*
X19871695Y-40389942D02*
X19919314Y-40485180D01*
X19919314Y-40485180D02*
X19966933Y-40532800D01*
X19966933Y-40532800D02*
X20062171Y-40580419D01*
X20062171Y-40580419D02*
X20252647Y-40580419D01*
X20252647Y-40580419D02*
X20347885Y-40532800D01*
X20347885Y-40532800D02*
X20395504Y-40485180D01*
X20395504Y-40485180D02*
X20443123Y-40389942D01*
X20443123Y-40389942D02*
X20443123Y-39580419D01*
X20824076Y-39580419D02*
X21443123Y-39580419D01*
X21443123Y-39580419D02*
X21109790Y-39961371D01*
X21109790Y-39961371D02*
X21252647Y-39961371D01*
X21252647Y-39961371D02*
X21347885Y-40008990D01*
X21347885Y-40008990D02*
X21395504Y-40056609D01*
X21395504Y-40056609D02*
X21443123Y-40151847D01*
X21443123Y-40151847D02*
X21443123Y-40389942D01*
X21443123Y-40389942D02*
X21395504Y-40485180D01*
X21395504Y-40485180D02*
X21347885Y-40532800D01*
X21347885Y-40532800D02*
X21252647Y-40580419D01*
X21252647Y-40580419D02*
X20966933Y-40580419D01*
X20966933Y-40580419D02*
X20871695Y-40532800D01*
X20871695Y-40532800D02*
X20824076Y-40485180D01*
X28113495Y-39520919D02*
X28113495Y-40330442D01*
X28113495Y-40330442D02*
X28161114Y-40425680D01*
X28161114Y-40425680D02*
X28208733Y-40473300D01*
X28208733Y-40473300D02*
X28303971Y-40520919D01*
X28303971Y-40520919D02*
X28494447Y-40520919D01*
X28494447Y-40520919D02*
X28589685Y-40473300D01*
X28589685Y-40473300D02*
X28637304Y-40425680D01*
X28637304Y-40425680D02*
X28684923Y-40330442D01*
X28684923Y-40330442D02*
X28684923Y-39520919D01*
X29589685Y-39854252D02*
X29589685Y-40520919D01*
X29351590Y-39473300D02*
X29113495Y-40187585D01*
X29113495Y-40187585D02*
X29732542Y-40187585D01*
X3551695Y-39635019D02*
X3551695Y-40444542D01*
X3551695Y-40444542D02*
X3599314Y-40539780D01*
X3599314Y-40539780D02*
X3646933Y-40587400D01*
X3646933Y-40587400D02*
X3742171Y-40635019D01*
X3742171Y-40635019D02*
X3932647Y-40635019D01*
X3932647Y-40635019D02*
X4027885Y-40587400D01*
X4027885Y-40587400D02*
X4075504Y-40539780D01*
X4075504Y-40539780D02*
X4123123Y-40444542D01*
X4123123Y-40444542D02*
X4123123Y-39635019D01*
X5027885Y-39635019D02*
X4837409Y-39635019D01*
X4837409Y-39635019D02*
X4742171Y-39682638D01*
X4742171Y-39682638D02*
X4694552Y-39730257D01*
X4694552Y-39730257D02*
X4599314Y-39873114D01*
X4599314Y-39873114D02*
X4551695Y-40063590D01*
X4551695Y-40063590D02*
X4551695Y-40444542D01*
X4551695Y-40444542D02*
X4599314Y-40539780D01*
X4599314Y-40539780D02*
X4646933Y-40587400D01*
X4646933Y-40587400D02*
X4742171Y-40635019D01*
X4742171Y-40635019D02*
X4932647Y-40635019D01*
X4932647Y-40635019D02*
X5027885Y-40587400D01*
X5027885Y-40587400D02*
X5075504Y-40539780D01*
X5075504Y-40539780D02*
X5123123Y-40444542D01*
X5123123Y-40444542D02*
X5123123Y-40206447D01*
X5123123Y-40206447D02*
X5075504Y-40111209D01*
X5075504Y-40111209D02*
X5027885Y-40063590D01*
X5027885Y-40063590D02*
X4932647Y-40015971D01*
X4932647Y-40015971D02*
X4742171Y-40015971D01*
X4742171Y-40015971D02*
X4646933Y-40063590D01*
X4646933Y-40063590D02*
X4599314Y-40111209D01*
X4599314Y-40111209D02*
X4551695Y-40206447D01*
X11882895Y-39584219D02*
X11882895Y-40393742D01*
X11882895Y-40393742D02*
X11930514Y-40488980D01*
X11930514Y-40488980D02*
X11978133Y-40536600D01*
X11978133Y-40536600D02*
X12073371Y-40584219D01*
X12073371Y-40584219D02*
X12263847Y-40584219D01*
X12263847Y-40584219D02*
X12359085Y-40536600D01*
X12359085Y-40536600D02*
X12406704Y-40488980D01*
X12406704Y-40488980D02*
X12454323Y-40393742D01*
X12454323Y-40393742D02*
X12454323Y-39584219D01*
X13406704Y-39584219D02*
X12930514Y-39584219D01*
X12930514Y-39584219D02*
X12882895Y-40060409D01*
X12882895Y-40060409D02*
X12930514Y-40012790D01*
X12930514Y-40012790D02*
X13025752Y-39965171D01*
X13025752Y-39965171D02*
X13263847Y-39965171D01*
X13263847Y-39965171D02*
X13359085Y-40012790D01*
X13359085Y-40012790D02*
X13406704Y-40060409D01*
X13406704Y-40060409D02*
X13454323Y-40155647D01*
X13454323Y-40155647D02*
X13454323Y-40393742D01*
X13454323Y-40393742D02*
X13406704Y-40488980D01*
X13406704Y-40488980D02*
X13359085Y-40536600D01*
X13359085Y-40536600D02*
X13263847Y-40584219D01*
X13263847Y-40584219D02*
X13025752Y-40584219D01*
X13025752Y-40584219D02*
X12930514Y-40536600D01*
X12930514Y-40536600D02*
X12882895Y-40488980D01*
D13*
X26820600Y-33172000D02*
X26820600Y-37572000D01*
X19920600Y-33172000D02*
X19920600Y-37572000D01*
D11*
X26395600Y-31182000D02*
G75*
G03*
X26395600Y-31182000I-100000J0D01*
G01*
D14*
X39204000Y-33097000D02*
X40534000Y-33097000D01*
X39204000Y-34427000D02*
X39204000Y-33097000D01*
X39204000Y-35697000D02*
X39204000Y-38297000D01*
X39204000Y-35697000D02*
X41864000Y-35697000D01*
X39204000Y-38297000D02*
X41864000Y-38297000D01*
X41864000Y-35697000D02*
X41864000Y-38297000D01*
D13*
X34989600Y-33159500D02*
X34989600Y-37559500D01*
X28089600Y-33159500D02*
X28089600Y-37559500D01*
D11*
X34564600Y-31169500D02*
G75*
G03*
X34564600Y-31169500I-100000J0D01*
G01*
D14*
X28790000Y-48850000D02*
X30120000Y-48850000D01*
X28790000Y-50180000D02*
X28790000Y-48850000D01*
X28790000Y-51450000D02*
X28790000Y-84530000D01*
X28790000Y-51450000D02*
X31450000Y-51450000D01*
X28790000Y-84530000D02*
X31450000Y-84530000D01*
X31450000Y-51450000D02*
X31450000Y-84530000D01*
X34759000Y-17800000D02*
X36089000Y-17800000D01*
X34759000Y-19130000D02*
X34759000Y-17800000D01*
X34759000Y-20400000D02*
X34759000Y-28080000D01*
X34759000Y-20400000D02*
X37419000Y-20400000D01*
X34759000Y-28080000D02*
X37419000Y-28080000D01*
X37419000Y-20400000D02*
X37419000Y-28080000D01*
X30829300Y-17772400D02*
X32159300Y-17772400D01*
X30829300Y-19102400D02*
X30829300Y-17772400D01*
X30829300Y-20372400D02*
X30829300Y-25512400D01*
X30829300Y-20372400D02*
X33489300Y-20372400D01*
X30829300Y-25512400D02*
X33489300Y-25512400D01*
X33489300Y-20372400D02*
X33489300Y-25512400D01*
D13*
X10536200Y-33172000D02*
X10536200Y-37572000D01*
X3636200Y-33172000D02*
X3636200Y-37572000D01*
D11*
X10111200Y-31182000D02*
G75*
G03*
X10111200Y-31182000I-100000J0D01*
G01*
D14*
X16207200Y-84530000D02*
X14877200Y-84530000D01*
X16207200Y-83200000D02*
X16207200Y-84530000D01*
X16207200Y-81930000D02*
X16207200Y-48850000D01*
X16207200Y-81930000D02*
X13547200Y-81930000D01*
X16207200Y-48850000D02*
X13547200Y-48850000D01*
X13547200Y-81930000D02*
X13547200Y-48850000D01*
X36918000Y-48850000D02*
X38248000Y-48850000D01*
X36918000Y-50180000D02*
X36918000Y-48850000D01*
X36918000Y-51450000D02*
X36918000Y-84530000D01*
X36918000Y-51450000D02*
X39578000Y-51450000D01*
X36918000Y-84530000D02*
X39578000Y-84530000D01*
X39578000Y-51450000D02*
X39578000Y-84530000D01*
X8079200Y-84620400D02*
X6749200Y-84620400D01*
X8079200Y-83290400D02*
X8079200Y-84620400D01*
X8079200Y-82020400D02*
X8079200Y-48940400D01*
X8079200Y-82020400D02*
X5419200Y-82020400D01*
X8079200Y-48940400D02*
X5419200Y-48940400D01*
X5419200Y-82020400D02*
X5419200Y-48940400D01*
D13*
X7981100Y-2835900D02*
X6800000Y-4017000D01*
X7981100Y-1388100D02*
X6800000Y-207000D01*
X2113700Y-4017000D02*
X6800000Y-4017000D01*
X2113700Y-207000D02*
X6800000Y-207000D01*
X1161200Y-3064500D02*
X1161200Y-1159500D01*
X7981099Y-2835899D02*
G75*
G03*
X7981099Y-1388101I-723900J723899D01*
G01*
X1161200Y-3064500D02*
G75*
G03*
X2113700Y-4017000I952500J0D01*
G01*
X2113700Y-207000D02*
G75*
G03*
X1161200Y-1159500I0J-952500D01*
G01*
X18686200Y-33172000D02*
X18686200Y-37572000D01*
X11786200Y-33172000D02*
X11786200Y-37572000D01*
D11*
X18261200Y-31182000D02*
G75*
G03*
X18261200Y-31182000I-100000J0D01*
G01*
%LPC*%
D15*
X26295600Y-32502000D03*
X25645600Y-32502000D03*
X24995600Y-32502000D03*
X24345600Y-32502000D03*
X23695600Y-32502000D03*
X23045600Y-32502000D03*
X22395600Y-32502000D03*
X21745600Y-32502000D03*
X21095600Y-32502000D03*
X20445600Y-32502000D03*
X20445600Y-38242000D03*
X21095600Y-38242000D03*
X21745600Y-38242000D03*
X22395600Y-38242000D03*
X23045600Y-38242000D03*
X23695600Y-38242000D03*
X24345600Y-38242000D03*
X24995600Y-38242000D03*
X25645600Y-38242000D03*
X26295600Y-38242000D03*
D16*
X40534000Y-34427000D03*
D17*
X40534000Y-36967000D03*
D15*
X34464600Y-32489500D03*
X33814600Y-32489500D03*
X33164600Y-32489500D03*
X32514600Y-32489500D03*
X31864600Y-32489500D03*
X31214600Y-32489500D03*
X30564600Y-32489500D03*
X29914600Y-32489500D03*
X29264600Y-32489500D03*
X28614600Y-32489500D03*
X28614600Y-38229500D03*
X29264600Y-38229500D03*
X29914600Y-38229500D03*
X30564600Y-38229500D03*
X31214600Y-38229500D03*
X31864600Y-38229500D03*
X32514600Y-38229500D03*
X33164600Y-38229500D03*
X33814600Y-38229500D03*
X34464600Y-38229500D03*
D16*
X30120000Y-50180000D03*
D17*
X30120000Y-52720000D03*
X30120000Y-55260000D03*
X30120000Y-57800000D03*
X30120000Y-60340000D03*
X30120000Y-62880000D03*
X30120000Y-65420000D03*
X30120000Y-67960000D03*
X30120000Y-70500000D03*
X30120000Y-73040000D03*
X30120000Y-75580000D03*
X30120000Y-78120000D03*
X30120000Y-80660000D03*
X30120000Y-83200000D03*
D16*
X36089000Y-19130000D03*
D17*
X36089000Y-21670000D03*
X36089000Y-24210000D03*
X36089000Y-26750000D03*
D16*
X32159300Y-19102400D03*
D17*
X32159300Y-21642400D03*
X32159300Y-24182400D03*
D15*
X10011200Y-32502000D03*
X9361200Y-32502000D03*
X8711200Y-32502000D03*
X8061200Y-32502000D03*
X7411200Y-32502000D03*
X6761200Y-32502000D03*
X6111200Y-32502000D03*
X5461200Y-32502000D03*
X4811200Y-32502000D03*
X4161200Y-32502000D03*
X4161200Y-38242000D03*
X4811200Y-38242000D03*
X5461200Y-38242000D03*
X6111200Y-38242000D03*
X6761200Y-38242000D03*
X7411200Y-38242000D03*
X8061200Y-38242000D03*
X8711200Y-38242000D03*
X9361200Y-38242000D03*
X10011200Y-38242000D03*
D18*
X14877200Y-83200000D03*
D17*
X14877200Y-80660000D03*
X14877200Y-78120000D03*
X14877200Y-75580000D03*
X14877200Y-73040000D03*
X14877200Y-70500000D03*
X14877200Y-67960000D03*
X14877200Y-65420000D03*
X14877200Y-62880000D03*
X14877200Y-60340000D03*
X14877200Y-57800000D03*
X14877200Y-55260000D03*
X14877200Y-52720000D03*
X14877200Y-50180000D03*
D16*
X38248000Y-50180000D03*
D17*
X38248000Y-52720000D03*
X38248000Y-55260000D03*
X38248000Y-57800000D03*
X38248000Y-60340000D03*
X38248000Y-62880000D03*
X38248000Y-65420000D03*
X38248000Y-67960000D03*
X38248000Y-70500000D03*
X38248000Y-73040000D03*
X38248000Y-75580000D03*
X38248000Y-78120000D03*
X38248000Y-80660000D03*
X38248000Y-83200000D03*
D18*
X6749200Y-83290400D03*
D17*
X6749200Y-80750400D03*
X6749200Y-78210400D03*
X6749200Y-75670400D03*
X6749200Y-73130400D03*
X6749200Y-70590400D03*
X6749200Y-68050400D03*
X6749200Y-65510400D03*
X6749200Y-62970400D03*
X6749200Y-60430400D03*
X6749200Y-57890400D03*
X6749200Y-55350400D03*
X6749200Y-52810400D03*
X6749200Y-50270400D03*
D19*
X5987200Y-1477000D03*
X5987200Y-2747000D03*
X4717200Y-1477000D03*
X4717200Y-2747000D03*
X3447200Y-1477000D03*
X3447200Y-2747000D03*
D15*
X18161200Y-32502000D03*
X17511200Y-32502000D03*
X16861200Y-32502000D03*
X16211200Y-32502000D03*
X15561200Y-32502000D03*
X14911200Y-32502000D03*
X14261200Y-32502000D03*
X13611200Y-32502000D03*
X12961200Y-32502000D03*
X12311200Y-32502000D03*
X12311200Y-38242000D03*
X12961200Y-38242000D03*
X13611200Y-38242000D03*
X14261200Y-38242000D03*
X14911200Y-38242000D03*
X15561200Y-38242000D03*
X16211200Y-38242000D03*
X16861200Y-38242000D03*
X17511200Y-38242000D03*
X18161200Y-38242000D03*
D20*
X39482000Y-9286000D03*
D21*
X31722000Y-11436000D03*
X13242000Y-11436000D03*
D20*
X5482000Y-9286000D03*
M02*
