%TF.GenerationSoftware,KiCad,Pcbnew,7.0.1*%
%TF.CreationDate,2023-09-03T17:39:20-04:00*%
%TF.ProjectId,syzygy-breakout-flash-LVL,73797a79-6779-42d6-9272-65616b6f7574,r1.0*%
%TF.SameCoordinates,PX66851e0PY4d70380*%
%TF.FileFunction,Soldermask,Top*%
%TF.FilePolarity,Negative*%
%FSLAX46Y46*%
G04 Gerber Fmt 4.6, Leading zero omitted, Abs format (unit mm)*
G04 Created by KiCad (PCBNEW 7.0.1) date 2023-09-03 17:39:20*
%MOMM*%
%LPD*%
G01*
G04 APERTURE LIST*
G04 Aperture macros list*
%AMRoundRect*
0 Rectangle with rounded corners*
0 $1 Rounding radius*
0 $2 $3 $4 $5 $6 $7 $8 $9 X,Y pos of 4 corners*
0 Add a 4 corners polygon primitive as box body*
4,1,4,$2,$3,$4,$5,$6,$7,$8,$9,$2,$3,0*
0 Add four circle primitives for the rounded corners*
1,1,$1+$1,$2,$3*
1,1,$1+$1,$4,$5*
1,1,$1+$1,$6,$7*
1,1,$1+$1,$8,$9*
0 Add four rect primitives between the rounded corners*
20,1,$1+$1,$2,$3,$4,$5,0*
20,1,$1+$1,$4,$5,$6,$7,0*
20,1,$1+$1,$6,$7,$8,$9,0*
20,1,$1+$1,$8,$9,$2,$3,0*%
G04 Aperture macros list end*
%ADD10RoundRect,0.071300X-0.184500X0.764500X-0.184500X-0.764500X0.184500X-0.764500X0.184500X0.764500X0*%
%ADD11RoundRect,0.050800X-0.850000X-0.850000X0.850000X-0.850000X0.850000X0.850000X-0.850000X0.850000X0*%
%ADD12O,1.801600X1.801600*%
%ADD13RoundRect,0.050800X0.850000X0.850000X-0.850000X0.850000X-0.850000X-0.850000X0.850000X-0.850000X0*%
%ADD14C,0.886460*%
%ADD15C,6.301600*%
%ADD16C,1.051600*%
G04 APERTURE END LIST*
D10*
X26295600Y-32502000D03*
X25645600Y-32502000D03*
X24995600Y-32502000D03*
X24345600Y-32502000D03*
X23695600Y-32502000D03*
X23045600Y-32502000D03*
X22395600Y-32502000D03*
X21745600Y-32502000D03*
X21095600Y-32502000D03*
X20445600Y-32502000D03*
X20445600Y-38242000D03*
X21095600Y-38242000D03*
X21745600Y-38242000D03*
X22395600Y-38242000D03*
X23045600Y-38242000D03*
X23695600Y-38242000D03*
X24345600Y-38242000D03*
X24995600Y-38242000D03*
X25645600Y-38242000D03*
X26295600Y-38242000D03*
D11*
X40534000Y-34427000D03*
D12*
X40534000Y-36967000D03*
D10*
X34464600Y-32489500D03*
X33814600Y-32489500D03*
X33164600Y-32489500D03*
X32514600Y-32489500D03*
X31864600Y-32489500D03*
X31214600Y-32489500D03*
X30564600Y-32489500D03*
X29914600Y-32489500D03*
X29264600Y-32489500D03*
X28614600Y-32489500D03*
X28614600Y-38229500D03*
X29264600Y-38229500D03*
X29914600Y-38229500D03*
X30564600Y-38229500D03*
X31214600Y-38229500D03*
X31864600Y-38229500D03*
X32514600Y-38229500D03*
X33164600Y-38229500D03*
X33814600Y-38229500D03*
X34464600Y-38229500D03*
D11*
X30120000Y-50180000D03*
D12*
X30120000Y-52720000D03*
X30120000Y-55260000D03*
X30120000Y-57800000D03*
X30120000Y-60340000D03*
X30120000Y-62880000D03*
X30120000Y-65420000D03*
X30120000Y-67960000D03*
X30120000Y-70500000D03*
X30120000Y-73040000D03*
X30120000Y-75580000D03*
X30120000Y-78120000D03*
X30120000Y-80660000D03*
X30120000Y-83200000D03*
D11*
X36089000Y-19130000D03*
D12*
X36089000Y-21670000D03*
X36089000Y-24210000D03*
X36089000Y-26750000D03*
D11*
X32159300Y-19102400D03*
D12*
X32159300Y-21642400D03*
X32159300Y-24182400D03*
D10*
X10011200Y-32502000D03*
X9361200Y-32502000D03*
X8711200Y-32502000D03*
X8061200Y-32502000D03*
X7411200Y-32502000D03*
X6761200Y-32502000D03*
X6111200Y-32502000D03*
X5461200Y-32502000D03*
X4811200Y-32502000D03*
X4161200Y-32502000D03*
X4161200Y-38242000D03*
X4811200Y-38242000D03*
X5461200Y-38242000D03*
X6111200Y-38242000D03*
X6761200Y-38242000D03*
X7411200Y-38242000D03*
X8061200Y-38242000D03*
X8711200Y-38242000D03*
X9361200Y-38242000D03*
X10011200Y-38242000D03*
D13*
X14877200Y-83200000D03*
D12*
X14877200Y-80660000D03*
X14877200Y-78120000D03*
X14877200Y-75580000D03*
X14877200Y-73040000D03*
X14877200Y-70500000D03*
X14877200Y-67960000D03*
X14877200Y-65420000D03*
X14877200Y-62880000D03*
X14877200Y-60340000D03*
X14877200Y-57800000D03*
X14877200Y-55260000D03*
X14877200Y-52720000D03*
X14877200Y-50180000D03*
D11*
X38248000Y-50180000D03*
D12*
X38248000Y-52720000D03*
X38248000Y-55260000D03*
X38248000Y-57800000D03*
X38248000Y-60340000D03*
X38248000Y-62880000D03*
X38248000Y-65420000D03*
X38248000Y-67960000D03*
X38248000Y-70500000D03*
X38248000Y-73040000D03*
X38248000Y-75580000D03*
X38248000Y-78120000D03*
X38248000Y-80660000D03*
X38248000Y-83200000D03*
D13*
X6749200Y-83290400D03*
D12*
X6749200Y-80750400D03*
X6749200Y-78210400D03*
X6749200Y-75670400D03*
X6749200Y-73130400D03*
X6749200Y-70590400D03*
X6749200Y-68050400D03*
X6749200Y-65510400D03*
X6749200Y-62970400D03*
X6749200Y-60430400D03*
X6749200Y-57890400D03*
X6749200Y-55350400D03*
X6749200Y-52810400D03*
X6749200Y-50270400D03*
D14*
X5987200Y-1477000D03*
X5987200Y-2747000D03*
X4717200Y-1477000D03*
X4717200Y-2747000D03*
X3447200Y-1477000D03*
X3447200Y-2747000D03*
D10*
X18161200Y-32502000D03*
X17511200Y-32502000D03*
X16861200Y-32502000D03*
X16211200Y-32502000D03*
X15561200Y-32502000D03*
X14911200Y-32502000D03*
X14261200Y-32502000D03*
X13611200Y-32502000D03*
X12961200Y-32502000D03*
X12311200Y-32502000D03*
X12311200Y-38242000D03*
X12961200Y-38242000D03*
X13611200Y-38242000D03*
X14261200Y-38242000D03*
X14911200Y-38242000D03*
X15561200Y-38242000D03*
X16211200Y-38242000D03*
X16861200Y-38242000D03*
X17511200Y-38242000D03*
X18161200Y-38242000D03*
D15*
X39482000Y-9286000D03*
D16*
X31722000Y-11436000D03*
X13242000Y-11436000D03*
D15*
X5482000Y-9286000D03*
M02*
