%TF.GenerationSoftware,KiCad,Pcbnew,7.0.1*%
%TF.CreationDate,2023-09-03T17:39:20-04:00*%
%TF.ProjectId,syzygy-breakout-flash-LVL,73797a79-6779-42d6-9272-65616b6f7574,r1.0*%
%TF.SameCoordinates,PX66851e0PY4d70380*%
%TF.FileFunction,Paste,Top*%
%TF.FilePolarity,Positive*%
%FSLAX46Y46*%
G04 Gerber Fmt 4.6, Leading zero omitted, Abs format (unit mm)*
G04 Created by KiCad (PCBNEW 7.0.1) date 2023-09-03 17:39:20*
%MOMM*%
%LPD*%
G01*
G04 APERTURE LIST*
G04 Aperture macros list*
%AMRoundRect*
0 Rectangle with rounded corners*
0 $1 Rounding radius*
0 $2 $3 $4 $5 $6 $7 $8 $9 X,Y pos of 4 corners*
0 Add a 4 corners polygon primitive as box body*
4,1,4,$2,$3,$4,$5,$6,$7,$8,$9,$2,$3,0*
0 Add four circle primitives for the rounded corners*
1,1,$1+$1,$2,$3*
1,1,$1+$1,$4,$5*
1,1,$1+$1,$6,$7*
1,1,$1+$1,$8,$9*
0 Add four rect primitives between the rounded corners*
20,1,$1+$1,$2,$3,$4,$5,0*
20,1,$1+$1,$4,$5,$6,$7,0*
20,1,$1+$1,$6,$7,$8,$9,0*
20,1,$1+$1,$8,$9,$2,$3,0*%
G04 Aperture macros list end*
%ADD10RoundRect,0.020500X-0.184500X0.764500X-0.184500X-0.764500X0.184500X-0.764500X0.184500X0.764500X0*%
G04 APERTURE END LIST*
D10*
X26295600Y-32502000D03*
X25645600Y-32502000D03*
X24995600Y-32502000D03*
X24345600Y-32502000D03*
X23695600Y-32502000D03*
X23045600Y-32502000D03*
X22395600Y-32502000D03*
X21745600Y-32502000D03*
X21095600Y-32502000D03*
X20445600Y-32502000D03*
X20445600Y-38242000D03*
X21095600Y-38242000D03*
X21745600Y-38242000D03*
X22395600Y-38242000D03*
X23045600Y-38242000D03*
X23695600Y-38242000D03*
X24345600Y-38242000D03*
X24995600Y-38242000D03*
X25645600Y-38242000D03*
X26295600Y-38242000D03*
X34464600Y-32489500D03*
X33814600Y-32489500D03*
X33164600Y-32489500D03*
X32514600Y-32489500D03*
X31864600Y-32489500D03*
X31214600Y-32489500D03*
X30564600Y-32489500D03*
X29914600Y-32489500D03*
X29264600Y-32489500D03*
X28614600Y-32489500D03*
X28614600Y-38229500D03*
X29264600Y-38229500D03*
X29914600Y-38229500D03*
X30564600Y-38229500D03*
X31214600Y-38229500D03*
X31864600Y-38229500D03*
X32514600Y-38229500D03*
X33164600Y-38229500D03*
X33814600Y-38229500D03*
X34464600Y-38229500D03*
X10011200Y-32502000D03*
X9361200Y-32502000D03*
X8711200Y-32502000D03*
X8061200Y-32502000D03*
X7411200Y-32502000D03*
X6761200Y-32502000D03*
X6111200Y-32502000D03*
X5461200Y-32502000D03*
X4811200Y-32502000D03*
X4161200Y-32502000D03*
X4161200Y-38242000D03*
X4811200Y-38242000D03*
X5461200Y-38242000D03*
X6111200Y-38242000D03*
X6761200Y-38242000D03*
X7411200Y-38242000D03*
X8061200Y-38242000D03*
X8711200Y-38242000D03*
X9361200Y-38242000D03*
X10011200Y-38242000D03*
X18161200Y-32502000D03*
X17511200Y-32502000D03*
X16861200Y-32502000D03*
X16211200Y-32502000D03*
X15561200Y-32502000D03*
X14911200Y-32502000D03*
X14261200Y-32502000D03*
X13611200Y-32502000D03*
X12961200Y-32502000D03*
X12311200Y-32502000D03*
X12311200Y-38242000D03*
X12961200Y-38242000D03*
X13611200Y-38242000D03*
X14261200Y-38242000D03*
X14911200Y-38242000D03*
X15561200Y-38242000D03*
X16211200Y-38242000D03*
X16861200Y-38242000D03*
X17511200Y-38242000D03*
X18161200Y-38242000D03*
M02*
