M48
; DRILL file {KiCad 7.0.1} date Sun Sep  3 17:39:18 2023
; FORMAT={-:-/ absolute / inch / decimal}
; #@! TF.CreationDate,2023-09-03T17:39:18-04:00
; #@! TF.GenerationSoftware,Kicad,Pcbnew,7.0.1
; #@! TF.FileFunction,Plated,1,4,PTH
FMAT,2
INCH
; #@! TA.AperFunction,Plated,PTH,ViaDrill
T1C0.0098
; #@! TA.AperFunction,Plated,PTH,ComponentDrill
T2C0.0394
; #@! TA.AperFunction,Plated,PTH,ComponentDrill
T3C0.1260
%
G90
G05
T1
X0.0437Y-1.1951
X0.0517Y-0.7951
X0.1037Y-0.5731
X0.1319Y-0.1969
X0.1358Y-0.0256
X0.1358Y-0.1456
X0.1397Y-0.7871
X0.1708Y-0.1456
X0.1738Y-1.3276
X0.2177Y-1.3974
X0.2258Y-0.0256
X0.2317Y-0.5471
X0.2397Y-1.1831
X0.2397Y-1.6271
X0.2657Y-1.2051
X0.2657Y-1.6131
X0.2917Y-1.1811
X0.2917Y-1.6011
X0.2918Y-0.1256
X0.3125Y-0.2156
X0.3177Y-1.2051
X0.3177Y-1.5871
X0.3417Y-1.5731
X0.3437Y-1.1791
X0.3678Y-1.3276
X0.3758Y-0.0056
X0.3858Y-1.4556
X0.3957Y-1.1791
X0.4358Y-0.3756
X0.4619Y-0.2789
X0.4829Y-0.2602
X0.4897Y-1.6552
X0.4958Y-1.3316
X0.5097Y-1.6732
X0.5297Y-1.3974
X0.5317Y-1.6931
X0.5358Y-0.3363
X0.5517Y-1.7131
X0.5737Y-0.3271
X0.5737Y-1.7331
X0.594Y-1.7529
X0.608Y-0.2978
X0.6125Y-1.772
X0.6297Y-1.7931
X0.6332Y-0.3641
X0.6337Y-0.3351
X0.6358Y-0.1556
X0.6898Y-1.3316
X0.6997Y-0.4011
X0.7037Y-0.3251
X0.7038Y-1.4556
X0.7097Y-0.5871
X0.7437Y-0.3251
X0.7537Y-0.5891
X0.7897Y-0.5791
X0.8077Y-0.3271
X0.8158Y-1.3296
X0.8297Y-1.1931
X0.8386Y-0.5863
X0.8397Y-0.3171
X0.8497Y-1.3974
X0.8597Y-1.6531
X0.868Y-0.5849
X0.8697Y-0.3171
X0.8837Y-1.1931
X0.8963Y-0.5826
X0.9017Y-0.3171
X0.9017Y-0.5491
X0.9077Y-1.1591
X0.9317Y-0.3171
X0.9337Y-0.5491
X0.9337Y-1.5671
X0.9357Y-1.1931
X0.9577Y-1.5871
X0.9617Y-1.1591
X0.9637Y-0.3171
X0.9637Y-0.5491
X0.9837Y-1.1991
X0.9937Y-1.7551
X0.9957Y-0.3171
X0.9957Y-0.5491
X1.0097Y-1.6771
X1.0098Y-1.3296
X1.0256Y-1.721
X1.0257Y-0.5491
X1.0277Y-0.3151
X1.0278Y-1.4516
X1.0357Y-1.1971
X1.0566Y-0.3442
X1.0572Y-0.5486
X1.0577Y-0.3151
X1.0677Y-1.7011
X1.0917Y-1.6751
X1.1378Y-1.3276
X1.1558Y-0.1256
X1.168Y-0.3351
X1.1697Y-1.3974
X1.1877Y-0.3071
X1.2158Y-0.5656
X1.2217Y-1.7751
X1.2537Y-0.3351
X1.2637Y-1.7949
X1.3057Y-1.8146
X1.3318Y-1.3276
X1.3478Y-1.4516
X1.3534Y-1.8344
X1.4017Y-1.8541
X1.4497Y-1.8751
T2
X0.2657Y-1.9791
X0.2657Y-2.0791
X0.2657Y-2.1791
X0.2657Y-2.2791
X0.2657Y-2.3791
X0.2657Y-2.4791
X0.2657Y-2.5791
X0.2657Y-2.6791
X0.2657Y-2.7791
X0.2657Y-2.8791
X0.2657Y-2.9791
X0.2657Y-3.0791
X0.2657Y-3.1791
X0.2657Y-3.2791
X0.5857Y-1.9756
X0.5857Y-2.0756
X0.5857Y-2.1756
X0.5857Y-2.2756
X0.5857Y-2.3756
X0.5857Y-2.4756
X0.5857Y-2.5756
X0.5857Y-2.6756
X0.5857Y-2.7756
X0.5857Y-2.8756
X0.5857Y-2.9756
X0.5857Y-3.0756
X0.5857Y-3.1756
X0.5857Y-3.2756
X1.1858Y-1.9756
X1.1858Y-2.0756
X1.1858Y-2.1756
X1.1858Y-2.2756
X1.1858Y-2.3756
X1.1858Y-2.4756
X1.1858Y-2.5756
X1.1858Y-2.6756
X1.1858Y-2.7756
X1.1858Y-2.8756
X1.1858Y-2.9756
X1.1858Y-3.0756
X1.1858Y-3.1756
X1.1858Y-3.2756
X1.2661Y-0.7521
X1.2661Y-0.8521
X1.2661Y-0.9521
X1.4208Y-0.7531
X1.4208Y-0.8531
X1.4208Y-0.9531
X1.4208Y-1.0531
X1.5058Y-1.9756
X1.5058Y-2.0756
X1.5058Y-2.1756
X1.5058Y-2.2756
X1.5058Y-2.3756
X1.5058Y-2.4756
X1.5058Y-2.5756
X1.5058Y-2.6756
X1.5058Y-2.7756
X1.5058Y-2.8756
X1.5058Y-2.9756
X1.5058Y-3.0756
X1.5058Y-3.1756
X1.5058Y-3.2756
X1.5958Y-1.3554
X1.5958Y-1.4554
T3
X0.2158Y-0.3656
X1.5544Y-0.3656
T0
M30
