%TF.GenerationSoftware,KiCad,Pcbnew,7.0.1*%
%TF.CreationDate,2023-09-03T17:39:20-04:00*%
%TF.ProjectId,syzygy-breakout-flash-LVL,73797a79-6779-42d6-9272-65616b6f7574,r1.0*%
%TF.SameCoordinates,PX66851e0PY4d70380*%
%TF.FileFunction,Copper,L4,Bot*%
%TF.FilePolarity,Positive*%
%FSLAX46Y46*%
G04 Gerber Fmt 4.6, Leading zero omitted, Abs format (unit mm)*
G04 Created by KiCad (PCBNEW 7.0.1) date 2023-09-03 17:39:20*
%MOMM*%
%LPD*%
G01*
G04 APERTURE LIST*
G04 Aperture macros list*
%AMRoundRect*
0 Rectangle with rounded corners*
0 $1 Rounding radius*
0 $2 $3 $4 $5 $6 $7 $8 $9 X,Y pos of 4 corners*
0 Add a 4 corners polygon primitive as box body*
4,1,4,$2,$3,$4,$5,$6,$7,$8,$9,$2,$3,0*
0 Add four circle primitives for the rounded corners*
1,1,$1+$1,$2,$3*
1,1,$1+$1,$4,$5*
1,1,$1+$1,$6,$7*
1,1,$1+$1,$8,$9*
0 Add four rect primitives between the rounded corners*
20,1,$1+$1,$2,$3,$4,$5,0*
20,1,$1+$1,$4,$5,$6,$7,0*
20,1,$1+$1,$6,$7,$8,$9,0*
20,1,$1+$1,$8,$9,$2,$3,0*%
%AMFreePoly0*
4,1,14,0.410355,0.110355,0.425000,0.075000,0.425000,0.045711,0.410355,0.010356,0.289644,-0.110355,0.254289,-0.125000,-0.375000,-0.125000,-0.410355,-0.110355,-0.425000,-0.075000,-0.425000,0.075000,-0.410355,0.110355,-0.375000,0.125000,0.375000,0.125000,0.410355,0.110355,0.410355,0.110355,$1*%
%AMFreePoly1*
4,1,14,0.289644,0.110355,0.410355,-0.010356,0.425000,-0.045711,0.425000,-0.075000,0.410355,-0.110355,0.375000,-0.125000,-0.375000,-0.125000,-0.410355,-0.110355,-0.425000,-0.075000,-0.425000,0.075000,-0.410355,0.110355,-0.375000,0.125000,0.254289,0.125000,0.289644,0.110355,0.289644,0.110355,$1*%
%AMFreePoly2*
4,1,14,0.110355,0.410355,0.125000,0.375000,0.125000,-0.375000,0.110355,-0.410355,0.075000,-0.425000,0.045711,-0.425000,0.010356,-0.410355,-0.110355,-0.289644,-0.125000,-0.254289,-0.125000,0.375000,-0.110355,0.410355,-0.075000,0.425000,0.075000,0.425000,0.110355,0.410355,0.110355,0.410355,$1*%
%AMFreePoly3*
4,1,14,0.110355,0.410355,0.125000,0.375000,0.125000,-0.254289,0.110355,-0.289644,-0.010356,-0.410355,-0.045711,-0.425000,-0.075000,-0.425000,-0.110355,-0.410355,-0.125000,-0.375000,-0.125000,0.375000,-0.110355,0.410355,-0.075000,0.425000,0.075000,0.425000,0.110355,0.410355,0.110355,0.410355,$1*%
%AMFreePoly4*
4,1,14,0.410355,0.110355,0.425000,0.075000,0.425000,-0.075000,0.410355,-0.110355,0.375000,-0.125000,-0.375000,-0.125000,-0.410355,-0.110355,-0.425000,-0.075000,-0.425000,-0.045711,-0.410355,-0.010355,-0.289643,0.110355,-0.254289,0.125000,0.375000,0.125000,0.410355,0.110355,0.410355,0.110355,$1*%
%AMFreePoly5*
4,1,14,0.410355,0.110355,0.425000,0.075000,0.425000,-0.075000,0.410355,-0.110355,0.375000,-0.125000,-0.254289,-0.125000,-0.289644,-0.110355,-0.410355,0.010356,-0.425000,0.045711,-0.425000,0.075000,-0.410355,0.110355,-0.375000,0.125000,0.375000,0.125000,0.410355,0.110355,0.410355,0.110355,$1*%
%AMFreePoly6*
4,1,14,-0.010356,0.410355,0.110355,0.289644,0.125000,0.254289,0.125000,-0.375000,0.110355,-0.410355,0.075000,-0.425000,-0.075000,-0.425000,-0.110355,-0.410355,-0.125000,-0.375000,-0.125000,0.375000,-0.110355,0.410355,-0.075000,0.425000,-0.045711,0.425000,-0.010356,0.410355,-0.010356,0.410355,$1*%
%AMFreePoly7*
4,1,14,0.110355,0.410355,0.125000,0.375000,0.125000,-0.375000,0.110355,-0.410355,0.075000,-0.425000,-0.075000,-0.425000,-0.110355,-0.410355,-0.125000,-0.375000,-0.125000,0.254289,-0.110355,0.289644,0.010356,0.410355,0.045711,0.425000,0.075000,0.425000,0.110355,0.410355,0.110355,0.410355,$1*%
G04 Aperture macros list end*
%TA.AperFunction,ComponentPad*%
%ADD10R,1.700000X1.700000*%
%TD*%
%TA.AperFunction,ComponentPad*%
%ADD11O,1.700000X1.700000*%
%TD*%
%TA.AperFunction,ComponentPad*%
%ADD12C,6.200000*%
%TD*%
%TA.AperFunction,SMDPad,CuDef*%
%ADD13RoundRect,0.060000X0.090000X1.040000X-0.090000X1.040000X-0.090000X-1.040000X0.090000X-1.040000X0*%
%TD*%
%TA.AperFunction,SMDPad,CuDef*%
%ADD14RoundRect,0.100000X-1.100000X0.150000X-1.100000X-0.150000X1.100000X-0.150000X1.100000X0.150000X0*%
%TD*%
%TA.AperFunction,SMDPad,CuDef*%
%ADD15RoundRect,0.100000X-2.075000X0.150000X-2.075000X-0.150000X2.075000X-0.150000X2.075000X0.150000X0*%
%TD*%
%TA.AperFunction,SMDPad,CuDef*%
%ADD16RoundRect,0.100000X-1.150000X0.150000X-1.150000X-0.150000X1.150000X-0.150000X1.150000X0.150000X0*%
%TD*%
%TA.AperFunction,SMDPad,CuDef*%
%ADD17RoundRect,0.237500X0.237500X-0.300000X0.237500X0.300000X-0.237500X0.300000X-0.237500X-0.300000X0*%
%TD*%
%TA.AperFunction,SMDPad,CuDef*%
%ADD18RoundRect,0.237500X-0.237500X0.300000X-0.237500X-0.300000X0.237500X-0.300000X0.237500X0.300000X0*%
%TD*%
%TA.AperFunction,SMDPad,CuDef*%
%ADD19RoundRect,0.237500X-0.250000X-0.237500X0.250000X-0.237500X0.250000X0.237500X-0.250000X0.237500X0*%
%TD*%
%TA.AperFunction,SMDPad,CuDef*%
%ADD20RoundRect,0.112500X0.187500X0.112500X-0.187500X0.112500X-0.187500X-0.112500X0.187500X-0.112500X0*%
%TD*%
%TA.AperFunction,SMDPad,CuDef*%
%ADD21RoundRect,0.237500X-0.300000X-0.237500X0.300000X-0.237500X0.300000X0.237500X-0.300000X0.237500X0*%
%TD*%
%TA.AperFunction,SMDPad,CuDef*%
%ADD22RoundRect,0.150000X-0.250000X-0.150000X0.250000X-0.150000X0.250000X0.150000X-0.250000X0.150000X0*%
%TD*%
%TA.AperFunction,SMDPad,CuDef*%
%ADD23RoundRect,0.237500X0.300000X0.237500X-0.300000X0.237500X-0.300000X-0.237500X0.300000X-0.237500X0*%
%TD*%
%TA.AperFunction,SMDPad,CuDef*%
%ADD24R,0.950000X2.150000*%
%TD*%
%TA.AperFunction,SMDPad,CuDef*%
%ADD25R,3.250000X2.150000*%
%TD*%
%TA.AperFunction,SMDPad,CuDef*%
%ADD26RoundRect,0.237500X0.237500X-0.250000X0.237500X0.250000X-0.237500X0.250000X-0.237500X-0.250000X0*%
%TD*%
%TA.AperFunction,SMDPad,CuDef*%
%ADD27FreePoly0,90.000000*%
%TD*%
%TA.AperFunction,SMDPad,CuDef*%
%ADD28RoundRect,0.062500X0.062500X-0.362500X0.062500X0.362500X-0.062500X0.362500X-0.062500X-0.362500X0*%
%TD*%
%TA.AperFunction,SMDPad,CuDef*%
%ADD29FreePoly1,90.000000*%
%TD*%
%TA.AperFunction,SMDPad,CuDef*%
%ADD30FreePoly2,90.000000*%
%TD*%
%TA.AperFunction,SMDPad,CuDef*%
%ADD31RoundRect,0.062500X0.362500X-0.062500X0.362500X0.062500X-0.362500X0.062500X-0.362500X-0.062500X0*%
%TD*%
%TA.AperFunction,SMDPad,CuDef*%
%ADD32FreePoly3,90.000000*%
%TD*%
%TA.AperFunction,SMDPad,CuDef*%
%ADD33FreePoly4,90.000000*%
%TD*%
%TA.AperFunction,SMDPad,CuDef*%
%ADD34FreePoly5,90.000000*%
%TD*%
%TA.AperFunction,SMDPad,CuDef*%
%ADD35FreePoly6,90.000000*%
%TD*%
%TA.AperFunction,SMDPad,CuDef*%
%ADD36FreePoly7,90.000000*%
%TD*%
%TA.AperFunction,SMDPad,CuDef*%
%ADD37R,1.600000X1.600000*%
%TD*%
%TA.AperFunction,ViaPad*%
%ADD38C,0.550000*%
%TD*%
%TA.AperFunction,Conductor*%
%ADD39C,0.400000*%
%TD*%
%TA.AperFunction,Conductor*%
%ADD40C,0.300000*%
%TD*%
%TA.AperFunction,Conductor*%
%ADD41C,0.250000*%
%TD*%
%TA.AperFunction,Conductor*%
%ADD42C,0.200000*%
%TD*%
G04 APERTURE END LIST*
D10*
X40534000Y-34427000D03*
D11*
X40534000Y-36967000D03*
D10*
X30120000Y-50180000D03*
D11*
X30120000Y-52720000D03*
X30120000Y-55260000D03*
X30120000Y-57800000D03*
X30120000Y-60340000D03*
X30120000Y-62880000D03*
X30120000Y-65420000D03*
X30120000Y-67960000D03*
X30120000Y-70500000D03*
X30120000Y-73040000D03*
X30120000Y-75580000D03*
X30120000Y-78120000D03*
X30120000Y-80660000D03*
X30120000Y-83200000D03*
D10*
X36089000Y-19130000D03*
D11*
X36089000Y-21670000D03*
X36089000Y-24210000D03*
X36089000Y-26750000D03*
D10*
X32159300Y-19102400D03*
D11*
X32159300Y-21642400D03*
X32159300Y-24182400D03*
D10*
X14877200Y-83200000D03*
D11*
X14877200Y-80660000D03*
X14877200Y-78120000D03*
X14877200Y-75580000D03*
X14877200Y-73040000D03*
X14877200Y-70500000D03*
X14877200Y-67960000D03*
X14877200Y-65420000D03*
X14877200Y-62880000D03*
X14877200Y-60340000D03*
X14877200Y-57800000D03*
X14877200Y-55260000D03*
X14877200Y-52720000D03*
X14877200Y-50180000D03*
D10*
X38248000Y-50180000D03*
D11*
X38248000Y-52720000D03*
X38248000Y-55260000D03*
X38248000Y-57800000D03*
X38248000Y-60340000D03*
X38248000Y-62880000D03*
X38248000Y-65420000D03*
X38248000Y-67960000D03*
X38248000Y-70500000D03*
X38248000Y-73040000D03*
X38248000Y-75580000D03*
X38248000Y-78120000D03*
X38248000Y-80660000D03*
X38248000Y-83200000D03*
D10*
X6749200Y-83290400D03*
D11*
X6749200Y-80750400D03*
X6749200Y-78210400D03*
X6749200Y-75670400D03*
X6749200Y-73130400D03*
X6749200Y-70590400D03*
X6749200Y-68050400D03*
X6749200Y-65510400D03*
X6749200Y-62970400D03*
X6749200Y-60430400D03*
X6749200Y-57890400D03*
X6749200Y-55350400D03*
X6749200Y-52810400D03*
X6749200Y-50270400D03*
D12*
X39482000Y-9286000D03*
X5482000Y-9286000D03*
D13*
X14882000Y-12486000D03*
X14882000Y-6086000D03*
X15682000Y-12486000D03*
X15682000Y-6086000D03*
X16482000Y-12486000D03*
X16482000Y-6086000D03*
X17282000Y-12486000D03*
X17282000Y-6086000D03*
X18082000Y-12486000D03*
X18082000Y-6086000D03*
X18882000Y-12486000D03*
X18882000Y-6086000D03*
X19682000Y-12486000D03*
X19682000Y-6086000D03*
X20482000Y-12486000D03*
X20482000Y-6086000D03*
X21282000Y-12486000D03*
X21282000Y-6086000D03*
X22082000Y-12486000D03*
X22082000Y-6086000D03*
X22882000Y-12486000D03*
X22882000Y-6086000D03*
X23682000Y-12486000D03*
X23682000Y-6086000D03*
X24482000Y-12486000D03*
X24482000Y-6086000D03*
X25282000Y-12486000D03*
X25282000Y-6086000D03*
X26082000Y-12486000D03*
X26082000Y-6086000D03*
X26882000Y-12486000D03*
X26882000Y-6086000D03*
X27682000Y-12486000D03*
X27682000Y-6086000D03*
X28482000Y-12486000D03*
X28482000Y-6086000D03*
X29282000Y-12486000D03*
X29282000Y-6086000D03*
X30082000Y-12486000D03*
X30082000Y-6086000D03*
D14*
X30532000Y-9286000D03*
D15*
X25632000Y-9286000D03*
X19332000Y-9286000D03*
D16*
X14432000Y-9286000D03*
D17*
X2885200Y-17686400D03*
X2885200Y-15961400D03*
D18*
X16251600Y-33873200D03*
X16251600Y-35598200D03*
D19*
X9293000Y-8371800D03*
X11118000Y-8371800D03*
D20*
X33284000Y-16082000D03*
X31184000Y-16082000D03*
D21*
X5124700Y-19993600D03*
X6849700Y-19993600D03*
D17*
X4662100Y-17682200D03*
X4662100Y-15957200D03*
D22*
X6360100Y-17682200D03*
X6360100Y-16432200D03*
X6360100Y-15182200D03*
X8010100Y-15182200D03*
X8010100Y-16432200D03*
X8010100Y-17682200D03*
D17*
X27424800Y-37060200D03*
X27424800Y-35335200D03*
D18*
X24481200Y-33824600D03*
X24481200Y-35549600D03*
D17*
X35451200Y-37061300D03*
X35451200Y-35336300D03*
X11118000Y-37060200D03*
X11118000Y-35335200D03*
D23*
X4615600Y-30356800D03*
X2890600Y-30356800D03*
X6750000Y-5175000D03*
X5025000Y-5175000D03*
D24*
X2315600Y-22194600D03*
X4615600Y-22194600D03*
X6915600Y-22194600D03*
D25*
X4615600Y-27994600D03*
D17*
X19296800Y-37112100D03*
X19296800Y-35387100D03*
D18*
X8022000Y-33926200D03*
X8022000Y-35651200D03*
D26*
X9658700Y-16713200D03*
X9658700Y-14888200D03*
D27*
X11208000Y-6653000D03*
D28*
X10758000Y-6653000D03*
X10308000Y-6653000D03*
X9858000Y-6653000D03*
D29*
X9408000Y-6653000D03*
D30*
X8858000Y-6103000D03*
D31*
X8858000Y-5653000D03*
X8858000Y-5203000D03*
X8858000Y-4753000D03*
D32*
X8858000Y-4303000D03*
D33*
X9408000Y-3753000D03*
D28*
X9858000Y-3753000D03*
X10308000Y-3753000D03*
X10758000Y-3753000D03*
D34*
X11208000Y-3753000D03*
D35*
X11758000Y-4303000D03*
D31*
X11758000Y-4753000D03*
X11758000Y-5203000D03*
X11758000Y-5653000D03*
D36*
X11758000Y-6103000D03*
D37*
X10308000Y-5203000D03*
D18*
X32558400Y-33720800D03*
X32558400Y-35445800D03*
D38*
X13454800Y-35494600D03*
X3548800Y-19993600D03*
X3450000Y-3698000D03*
X5885600Y-13897600D03*
X1313600Y-20196800D03*
X17772800Y-10189200D03*
X31844400Y-8512800D03*
X29710800Y-35494600D03*
X13610000Y-8541873D03*
X21582800Y-35494600D03*
X3350000Y-5000000D03*
X1110400Y-30356800D03*
X5530000Y-35494600D03*
X2634400Y-14558000D03*
X7936972Y-5476000D03*
X26837927Y-8742102D03*
X11731000Y-7083100D03*
X5736000Y-650000D03*
X4339000Y-3698000D03*
X11070000Y-9540000D03*
X15442000Y-7563700D03*
X18026800Y-14913600D03*
X21074800Y-30306000D03*
X14572400Y-8309600D03*
X16096400Y-8512800D03*
X19144400Y-14964400D03*
X22446400Y-30306000D03*
X16083500Y-9248415D03*
X23056000Y-29442400D03*
X20058800Y-14710400D03*
X16150000Y-3952000D03*
X17874400Y-8258800D03*
X21300535Y-14891065D03*
X23767200Y-30306000D03*
X18890400Y-8258800D03*
X24427600Y-29442400D03*
X22046105Y-14856695D03*
X20516000Y-8309600D03*
X22766275Y-14796925D03*
X21328800Y-8055600D03*
X22090800Y-8055600D03*
X22903600Y-13948400D03*
X6088800Y-30052000D03*
X22903600Y-8055600D03*
X23665600Y-8055600D03*
X6749200Y-30610800D03*
X24478400Y-13948400D03*
X7409600Y-30001200D03*
X24478400Y-8055600D03*
X25291200Y-13948400D03*
X8070000Y-30610800D03*
X25291200Y-8055600D03*
X26053200Y-13948400D03*
X8730400Y-29950400D03*
X26104000Y-8004800D03*
X26852563Y-13934963D03*
X10051200Y-29950400D03*
X26866000Y-8004800D03*
X28900800Y-33720800D03*
X20722000Y-33771600D03*
X17521600Y-33822400D03*
X12594000Y-33822400D03*
X4415200Y-33720800D03*
X25649600Y-33771600D03*
X33828400Y-33720800D03*
X9342800Y-33720800D03*
X23716400Y-13948400D03*
X30882000Y-14366000D03*
X29358000Y-3190000D03*
X7412000Y-3190000D03*
X36822800Y-47628800D03*
X35603600Y-47094800D03*
X34376636Y-46593300D03*
X33165200Y-46091800D03*
X32098400Y-45590300D03*
X31031600Y-45088800D03*
X25240400Y-44580800D03*
X24326000Y-40313600D03*
X26050935Y-43712965D03*
X23716400Y-39805600D03*
X25646800Y-42599600D03*
X27120000Y-43209200D03*
X27729600Y-42548800D03*
X21836800Y-41990000D03*
X12437990Y-42041300D03*
X12946800Y-42498500D03*
X13505600Y-43006000D03*
X14013600Y-43514000D03*
X14572400Y-44022000D03*
X15086400Y-44524000D03*
X15557645Y-45009369D03*
X15994800Y-45546000D03*
X6088800Y-41329600D03*
X6749200Y-40974000D03*
X7409600Y-40669200D03*
X8070000Y-40313600D03*
X8679600Y-39958000D03*
X26106800Y-36870400D03*
X9800000Y-36972000D03*
X17877000Y-36972000D03*
X34234800Y-36870400D03*
X9546000Y-142000D03*
X12265000Y-6610300D03*
X3450000Y-650000D03*
X24986400Y-30458400D03*
X29666500Y-8512800D03*
X30168000Y-7801600D03*
X26307200Y-30407600D03*
D39*
X2939200Y-15980400D02*
X2634400Y-15675600D01*
D40*
X1110400Y-30356800D02*
X2786800Y-30356800D01*
D41*
X3345600Y-5007600D02*
X3345600Y-5004400D01*
D40*
X13454800Y-35494600D02*
X21582800Y-35494600D01*
D42*
X31844400Y-8512800D02*
X31071200Y-9286000D01*
D40*
X8190972Y-5222000D02*
X10308000Y-5222000D01*
D41*
X3345600Y-5004400D02*
X3350000Y-5000000D01*
D42*
X26837927Y-8742102D02*
X26294029Y-9286000D01*
D40*
X6345600Y-14357600D02*
X5885600Y-13897600D01*
D42*
X17772800Y-10189200D02*
X18687200Y-9274800D01*
D39*
X2380400Y-22228800D02*
X2380400Y-21263600D01*
D42*
X31071200Y-9286000D02*
X30532000Y-9286000D01*
D40*
X5530000Y-35494600D02*
X13454800Y-35494600D01*
D39*
X5123600Y-19993600D02*
X3548800Y-19993600D01*
X2634400Y-15675600D02*
X2634400Y-14558000D01*
D40*
X14354127Y-9286000D02*
X13610000Y-8541873D01*
D39*
X1872400Y-20755600D02*
X1313600Y-20196800D01*
D42*
X26294029Y-9286000D02*
X25632000Y-9286000D01*
D39*
X4666400Y-15980400D02*
X2939200Y-15980400D01*
X2380400Y-21263600D02*
X1872400Y-20755600D01*
D42*
X18687200Y-9274800D02*
X19347600Y-9274800D01*
D40*
X6345600Y-14829000D02*
X6345600Y-14357600D01*
X6345600Y-14829000D02*
X6345600Y-15193000D01*
X7936972Y-5476000D02*
X8190972Y-5222000D01*
D41*
X3345600Y-5007600D02*
X4920400Y-5007600D01*
D40*
X21582800Y-35494600D02*
X29710800Y-35494600D01*
X29710800Y-35494600D02*
X35545800Y-35494600D01*
D42*
X11208000Y-6653000D02*
X11638000Y-7083100D01*
X14882000Y-11904500D02*
X14882000Y-12486000D01*
X13864000Y-10556000D02*
X14882000Y-11574000D01*
X12594000Y-10556000D02*
X13864000Y-10556000D01*
X14882000Y-11574000D02*
X14882000Y-11904500D01*
X12068000Y-7420200D02*
X12068000Y-10030000D01*
X11731000Y-7083100D02*
X12068000Y-7420200D01*
X12068000Y-10030000D02*
X12594000Y-10556000D01*
X11638000Y-7083100D02*
X11731000Y-7083100D01*
X13356000Y-10048000D02*
X12848000Y-9540000D01*
X15682000Y-11358000D02*
X14372000Y-10048000D01*
X12388809Y-4315076D02*
X11771362Y-4315076D01*
X15682000Y-11781700D02*
X15682000Y-12486000D01*
X4339000Y-3698000D02*
X4339000Y-3952000D01*
X14372000Y-10048000D02*
X13356000Y-10048000D01*
X3864000Y-4427000D02*
X1639000Y-4427000D01*
X12848000Y-4774267D02*
X12388809Y-4315076D01*
X1639000Y-4427000D02*
X910000Y-3698000D01*
X8276000Y366000D02*
X2180000Y366000D01*
X4339000Y-3952000D02*
X3864000Y-4427000D01*
X12388809Y-3746809D02*
X12388809Y-4315076D01*
X8276000Y366000D02*
X12388809Y-3746809D01*
X910000Y-3698000D02*
X910000Y-904000D01*
X15682000Y-11781700D02*
X15682000Y-11358000D01*
X12848000Y-9540000D02*
X12848000Y-4774267D01*
X2180000Y366000D02*
X910000Y-904000D01*
X9419000Y-7127000D02*
X9419000Y-6873000D01*
X11070000Y-9540000D02*
X11070000Y-8270000D01*
X15442000Y-7563700D02*
X15682000Y-7324000D01*
X9419000Y-6746000D02*
X9408000Y-6735000D01*
X11070000Y-8270000D02*
X10308000Y-7508000D01*
X9800000Y-7508000D02*
X9419000Y-7127000D01*
X9419000Y-7127000D02*
X9419000Y-6873000D01*
X9408000Y-6735000D02*
X9408000Y-6653000D01*
X15682000Y-7324000D02*
X15682000Y-6086000D01*
X9419000Y-6873000D02*
X9419000Y-6619000D01*
X10308000Y-7508000D02*
X9800000Y-7508000D01*
X16502800Y-12576800D02*
X16502800Y-13313390D01*
X16502800Y-13338800D02*
X16502800Y-13389600D01*
X16502800Y-13389600D02*
X18026800Y-14913600D01*
X16502800Y-7344400D02*
X16502800Y-6074400D01*
X14572400Y-8309600D02*
X15537600Y-8309600D01*
X15537600Y-8309600D02*
X16502800Y-7344400D01*
X17315600Y-12526000D02*
X17315600Y-11716521D01*
X43262752Y-35854848D02*
X42156800Y-36960800D01*
X34897648Y-9986000D02*
X43262752Y-18351104D01*
X42156800Y-36960800D02*
X40531200Y-36960800D01*
X17315600Y-11356336D02*
X18685936Y-9986000D01*
X17315600Y-11713200D02*
X17315600Y-11356336D01*
X43262752Y-18351104D02*
X43262752Y-35854848D01*
X18685936Y-9986000D02*
X34897648Y-9986000D01*
X17264800Y-6023600D02*
X17264800Y-7344400D01*
X17264800Y-7344400D02*
X16096400Y-8512800D01*
D40*
X19144400Y-14913600D02*
X19144400Y-14964400D01*
D42*
X18077600Y-13846800D02*
X19144400Y-14913600D01*
X18077600Y-12526000D02*
X18077600Y-13846800D01*
X18077600Y-7254315D02*
X16083500Y-9248415D01*
X18077600Y-6023600D02*
X18077600Y-7254315D01*
X18839600Y-13440400D02*
X18839600Y-12526000D01*
D40*
X20008000Y-14659600D02*
X20058800Y-14710400D01*
D42*
X18839600Y-13491200D02*
X20008000Y-14659600D01*
D40*
X15540400Y-3952000D02*
X14880000Y-4612400D01*
X16150000Y-3952000D02*
X15540400Y-3952000D01*
X14880000Y-6238000D02*
X14880000Y-4612400D01*
D42*
X17874400Y-8258800D02*
X18839600Y-7293600D01*
X18839600Y-7293600D02*
X18839600Y-6023600D01*
X19703200Y-13313790D02*
X21227200Y-14837790D01*
X19703200Y-12475200D02*
X19703200Y-13313790D01*
D40*
X21247260Y-14837790D02*
X21300535Y-14891065D01*
X21227200Y-14837790D02*
X21247260Y-14837790D01*
D42*
X19703200Y-7446000D02*
X19703200Y-6074400D01*
X18890400Y-8258800D02*
X19703200Y-7446000D01*
X20465200Y-13275790D02*
X21989200Y-14799790D01*
D40*
X21989200Y-14799790D02*
X22046105Y-14856695D01*
D42*
X20465200Y-12475200D02*
X20465200Y-13275790D01*
X20516000Y-8309600D02*
X20516000Y-6074400D01*
D40*
X22750610Y-14761200D02*
X22750610Y-14781260D01*
D42*
X21278000Y-13288590D02*
X22750610Y-14761200D01*
X21278000Y-12475200D02*
X21278000Y-13288590D01*
D40*
X22750610Y-14781260D02*
X22766275Y-14796925D01*
D42*
X21328800Y-7446000D02*
X21328800Y-8055600D01*
X21328800Y-6074400D02*
X21328800Y-7446000D01*
X42935752Y-33286248D02*
X41750400Y-34471600D01*
X42935752Y-18486552D02*
X42935752Y-33286248D01*
X22090800Y-12627600D02*
X22090800Y-11741321D01*
X41750400Y-34471600D02*
X40632800Y-34471600D01*
X34841600Y-10392400D02*
X42935752Y-18486552D01*
X22090800Y-11741321D02*
X23439721Y-10392400D01*
X23439721Y-10392400D02*
X34841600Y-10392400D01*
X22090800Y-6074400D02*
X22090800Y-7446000D01*
X22090800Y-7446000D02*
X22090800Y-8055600D01*
X22903600Y-12526000D02*
X22903600Y-13948400D01*
X22903600Y-6074400D02*
X22903600Y-8055600D01*
X23665600Y-6074400D02*
X23665600Y-8055600D01*
X24478400Y-12475200D02*
X24478400Y-13948400D01*
X24478400Y-6074400D02*
X24478400Y-8055600D01*
X25291200Y-12475200D02*
X25291200Y-13948400D01*
X25291200Y-6074400D02*
X25291200Y-8055600D01*
X26053200Y-12424400D02*
X26053200Y-13948400D01*
X26104000Y-6074400D02*
X26104000Y-8004800D01*
X26866000Y-12424400D02*
X26866000Y-13921526D01*
D40*
X26866000Y-13921526D02*
X26852563Y-13934963D01*
D42*
X26866000Y-6074400D02*
X26866000Y-8004800D01*
X25894156Y-15602600D02*
X27882000Y-13614756D01*
X27882000Y-12686000D02*
X27682000Y-12486000D01*
X11626000Y-15602600D02*
X25894156Y-15602600D01*
X8019200Y-15167600D02*
X8527200Y-14659600D01*
X10683000Y-14659600D02*
X11626000Y-15602600D01*
X27882000Y-13614756D02*
X27882000Y-12686000D01*
X8527200Y-14659600D02*
X10683000Y-14659600D01*
D40*
X20722000Y-33771600D02*
X22246000Y-33771600D01*
X30424800Y-33720800D02*
X31339200Y-32806400D01*
X24125600Y-33822400D02*
X22601600Y-32298400D01*
X33828400Y-33771600D02*
X32304400Y-33771600D01*
D42*
X23160800Y-32856700D02*
X22932100Y-33085400D01*
X17471000Y-33873000D02*
X17522000Y-33822000D01*
D40*
X36064000Y-31384000D02*
X36064000Y-26804000D01*
D42*
X15032000Y-32908000D02*
X15032500Y-32907500D01*
D40*
X5939200Y-33720800D02*
X6853600Y-32806400D01*
X5490400Y-32247600D02*
X6294800Y-32247600D01*
X4415200Y-33720800D02*
X5939200Y-33720800D01*
X9342800Y-33771600D02*
X7818800Y-33771600D01*
X28900800Y-33720800D02*
X30424800Y-33720800D01*
D42*
X22932100Y-33085400D02*
X22931900Y-33085400D01*
X22931900Y-33085400D02*
X22931900Y-33085300D01*
D40*
X25649600Y-33822400D02*
X24125600Y-33822400D01*
X34438000Y-32248000D02*
X35200000Y-32248000D01*
X35200000Y-32248000D02*
X36064000Y-31384000D01*
X34438000Y-32247600D02*
X6294800Y-32247600D01*
D42*
X25600000Y-33822000D02*
X25650000Y-33772000D01*
D40*
X32304400Y-33771600D02*
X30780400Y-32247600D01*
X17521600Y-33873200D02*
X15997600Y-33873200D01*
X4615600Y-27969200D02*
X4615600Y-31372800D01*
X4615600Y-31372800D02*
X5490400Y-32247600D01*
X22246000Y-33771600D02*
X23160400Y-32857200D01*
D42*
X32558400Y-33720800D02*
X32558400Y-33772000D01*
D40*
X12594000Y-33822400D02*
X14118000Y-33822400D01*
X14118000Y-33822400D02*
X15032400Y-32908000D01*
X9342800Y-33771600D02*
X9342800Y-33720800D01*
X15997600Y-33873200D02*
X14473600Y-32349200D01*
X7818800Y-33771600D02*
X6294800Y-32247600D01*
D42*
X23716400Y-12475200D02*
X23716400Y-13948400D01*
X28282000Y-12686000D02*
X28482000Y-12486000D01*
X26059844Y-16002600D02*
X28282000Y-13780444D01*
X10683000Y-16945600D02*
X11626000Y-16002600D01*
X8019200Y-16437600D02*
X8527200Y-16945600D01*
X11626000Y-16002600D02*
X26059844Y-16002600D01*
X8527200Y-16945600D02*
X10683000Y-16945600D01*
X28282000Y-13780444D02*
X28282000Y-12686000D01*
D40*
X30082000Y-13467400D02*
X30082000Y-13566000D01*
X30082000Y-13467400D02*
X30082000Y-12486000D01*
X30082000Y-13566000D02*
X30882000Y-14366000D01*
X2180000Y-17682200D02*
X8022000Y-17682200D01*
D39*
X6190400Y-18876000D02*
X1974000Y-18876000D01*
X6850800Y-19587200D02*
X6850800Y-22178000D01*
X1212000Y-14151600D02*
X1212000Y-16844000D01*
X6190400Y-18876000D02*
X6850800Y-19536400D01*
X1212000Y-18114000D02*
X1212000Y-17961600D01*
X8490400Y-13034000D02*
X2329600Y-13034000D01*
X6752000Y-5222000D02*
X6752000Y-3850000D01*
X6752000Y-3850000D02*
X7412000Y-3190000D01*
X6752000Y-5222000D02*
X9292000Y-7762000D01*
X1974000Y-18876000D02*
X1212000Y-18114000D01*
X1212000Y-16844000D02*
X1212000Y-17961600D01*
X9292000Y-12232400D02*
X9292000Y-7762000D01*
D40*
X2050200Y-17682200D02*
X1212000Y-16844000D01*
D41*
X7224000Y-4750000D02*
X6752000Y-5222000D01*
D39*
X2329600Y-13034000D02*
X1212000Y-14151600D01*
X30120000Y-3952000D02*
X29358000Y-3190000D01*
D41*
X9000000Y-4750000D02*
X7224000Y-4750000D01*
D39*
X30120000Y-3952000D02*
X30120000Y-7000000D01*
X9292000Y-12232400D02*
X8490400Y-13034000D01*
D40*
X2180000Y-17682200D02*
X2050200Y-17682200D01*
D42*
X30082000Y-6086000D02*
X30120000Y-6086000D01*
X41220200Y-49733800D02*
X38245200Y-52708800D01*
X38296000Y-52708800D02*
X30168000Y-52708800D01*
X36822800Y-47628800D02*
X41039200Y-47628800D01*
X41220200Y-47809800D02*
X41220200Y-49733800D01*
X41039200Y-47628800D02*
X41220200Y-47809800D01*
X38245200Y-55248800D02*
X30168000Y-55248800D01*
X41547200Y-51946800D02*
X38245200Y-55248800D01*
X41216400Y-47094800D02*
X41547200Y-47425600D01*
X41547200Y-47425600D02*
X41547200Y-51946800D01*
X35603600Y-47094800D02*
X41216400Y-47094800D01*
X41953600Y-47324000D02*
X41953600Y-54080400D01*
X41953600Y-54080400D02*
X38245200Y-57788800D01*
X41222900Y-46593300D02*
X41953600Y-47324000D01*
X38245200Y-57839600D02*
X30117200Y-57839600D01*
X34376636Y-46593300D02*
X41222900Y-46593300D01*
X42360000Y-56264800D02*
X42360000Y-47222400D01*
X38245200Y-60379600D02*
X42360000Y-56264800D01*
X42360000Y-47222400D02*
X41229400Y-46091800D01*
X41229400Y-46091800D02*
X33165200Y-46091800D01*
X38296000Y-60430400D02*
X30117200Y-60430400D01*
X41383052Y-45590300D02*
X32098400Y-45590300D01*
X42763776Y-46971024D02*
X41383052Y-45590300D01*
X42738376Y-58477224D02*
X42738376Y-46996424D01*
X42738376Y-46996424D02*
X42763776Y-46971024D01*
X38296000Y-62919600D02*
X42738376Y-58477224D01*
X38296000Y-62919600D02*
X30117200Y-62919600D01*
X43122000Y-46866800D02*
X43122000Y-60532000D01*
X43122000Y-60532000D02*
X38245200Y-65408800D01*
X41344000Y-45088800D02*
X43122000Y-46866800D01*
X38245200Y-65408800D02*
X30117200Y-65408800D01*
X31031600Y-45088800D02*
X41344000Y-45088800D01*
X26046700Y-43717200D02*
X26050935Y-43712965D01*
X24326000Y-42040800D02*
X26002400Y-43717200D01*
X26002400Y-43717200D02*
X26046700Y-43717200D01*
X24326000Y-40313600D02*
X24326000Y-41380400D01*
X24326000Y-41380400D02*
X24326000Y-42040800D01*
X43477600Y-46714400D02*
X43477600Y-67847200D01*
X23716400Y-42244000D02*
X25719800Y-44247400D01*
X25719800Y-44247400D02*
X41010600Y-44247400D01*
X23716400Y-39805600D02*
X23716400Y-42244000D01*
X38296000Y-73028800D02*
X30218800Y-73028800D01*
X41010600Y-44247400D02*
X43477600Y-46714400D01*
X43477600Y-67847200D02*
X38296000Y-73028800D01*
X12437990Y-42041300D02*
X12437490Y-42040800D01*
X754800Y-81055200D02*
X2888400Y-83188800D01*
X2888400Y-83188800D02*
X14877200Y-83188800D01*
X12437490Y-42040800D02*
X5530000Y-42040800D01*
X754800Y-46816000D02*
X754800Y-81055200D01*
X5530000Y-42040800D02*
X754800Y-46816000D01*
X1212000Y-47019200D02*
X1212000Y-78616800D01*
X12946800Y-42498500D02*
X12902500Y-42542800D01*
X3345600Y-80750400D02*
X14826400Y-80750400D01*
X1212000Y-78616800D02*
X3345600Y-80750400D01*
X5688400Y-42542800D02*
X1212000Y-47019200D01*
X12902500Y-42542800D02*
X5688400Y-42542800D01*
X1618400Y-76076800D02*
X3650400Y-78108800D01*
X1618400Y-47222400D02*
X1618400Y-76076800D01*
X3650400Y-78108800D02*
X14877200Y-78108800D01*
X13505600Y-43006000D02*
X13499600Y-43000000D01*
X13499600Y-43000000D02*
X5840800Y-43000000D01*
X5840800Y-43000000D02*
X1618400Y-47222400D01*
X14013600Y-43514000D02*
X5885600Y-43514000D01*
X2075600Y-73587600D02*
X4107600Y-75619600D01*
X5885600Y-43514000D02*
X2075600Y-47324000D01*
X2075600Y-47324000D02*
X2075600Y-73587600D01*
X4107600Y-75619600D02*
X14775600Y-75619600D01*
X2482000Y-47527200D02*
X2482000Y-71149200D01*
X2482000Y-71149200D02*
X4361600Y-73028800D01*
X4361600Y-73028800D02*
X14928000Y-73028800D01*
X5987200Y-44022000D02*
X2482000Y-47527200D01*
X14572400Y-44022000D02*
X5987200Y-44022000D01*
X6044000Y-44524000D02*
X2939200Y-47628800D01*
X4818800Y-70438000D02*
X14775600Y-70438000D01*
X2939200Y-68558400D02*
X4818800Y-70438000D01*
X2939200Y-47628800D02*
X2939200Y-68558400D01*
X15086400Y-44524000D02*
X6044000Y-44524000D01*
X3294800Y-66323200D02*
X4920400Y-67948800D01*
X4920400Y-67948800D02*
X14877200Y-67948800D01*
X15541014Y-45026000D02*
X6050000Y-45026000D01*
X6050000Y-45026000D02*
X3294800Y-47781200D01*
X15557645Y-45009369D02*
X15541014Y-45026000D01*
X3294800Y-47781200D02*
X3294800Y-66323200D01*
X3701200Y-47882800D02*
X3701200Y-63884800D01*
X6088800Y-45546000D02*
X3752000Y-47882800D01*
X5225200Y-65408800D02*
X14928000Y-65408800D01*
X15994800Y-45546000D02*
X6088800Y-45546000D01*
X3701200Y-63884800D02*
X5225200Y-65408800D01*
X3752000Y-47882800D02*
X3701200Y-47882800D01*
D40*
X35860400Y-36870400D02*
X34234800Y-36870400D01*
X37740000Y-16082000D02*
X38756000Y-17098000D01*
X19706000Y-36972000D02*
X17877200Y-36972000D01*
X29307200Y-38648400D02*
X35860400Y-38648400D01*
X33470000Y-16082000D02*
X33216000Y-16082000D01*
X21382400Y-38648400D02*
X19706000Y-36972000D01*
X12797200Y-38648400D02*
X11120800Y-36972000D01*
X36724000Y-37784800D02*
X35860400Y-38648400D01*
X21382400Y-38648400D02*
X29307200Y-38648400D01*
X33470000Y-21670000D02*
X32200000Y-21670000D01*
X36724000Y-36007000D02*
X36724000Y-33772000D01*
X12797200Y-38648400D02*
X21382400Y-38648400D01*
X36724000Y-36006800D02*
X35860400Y-36870400D01*
X34232000Y-16844000D02*
X34232000Y-20908000D01*
X27529200Y-36870400D02*
X29307200Y-38648400D01*
X34232000Y-20908000D02*
X33470000Y-21670000D01*
X26106800Y-36870400D02*
X27529200Y-36870400D01*
X33470000Y-16082000D02*
X34232000Y-16844000D01*
X36724000Y-36006800D02*
X36724000Y-37784800D01*
X37740000Y-16082000D02*
X33470000Y-16082000D01*
X11120800Y-36972000D02*
X9800000Y-36972000D01*
X36724000Y-33772000D02*
X38756000Y-31740000D01*
X38756000Y-31740000D02*
X38756000Y-17098000D01*
D42*
X11758000Y-6103000D02*
X12265000Y-6610300D01*
X7973400Y-136700D02*
X3963300Y-136700D01*
X10308000Y-3753000D02*
X10308000Y-2471300D01*
X10308000Y-2471300D02*
X7973400Y-136700D01*
X3450000Y-650000D02*
X3963300Y-136700D01*
X29666500Y-8062100D02*
X29456800Y-7852400D01*
X27678800Y-7141200D02*
X27678800Y-6074400D01*
X29666500Y-8062100D02*
X29666500Y-8512800D01*
X28390000Y-7852400D02*
X27678800Y-7141200D01*
X29456800Y-7852400D02*
X28390000Y-7852400D01*
X28491600Y-7090400D02*
X28491600Y-6074400D01*
X30168000Y-7801600D02*
X29779400Y-7413000D01*
X28763400Y-7413000D02*
X28491600Y-7141200D01*
X29779400Y-7413000D02*
X28763400Y-7413000D01*
D40*
X30168000Y-16590000D02*
X30676000Y-16082000D01*
X30676000Y-16082000D02*
X31184000Y-16082000D01*
X30676000Y-19130000D02*
X30168000Y-18622000D01*
X32200000Y-19130000D02*
X30676000Y-19130000D01*
X30168000Y-18622000D02*
X30168000Y-16590000D01*
M02*
