%TF.GenerationSoftware,KiCad,Pcbnew,7.0.1*%
%TF.CreationDate,2023-09-03T17:39:20-04:00*%
%TF.ProjectId,syzygy-breakout-flash-LVL,73797a79-6779-42d6-9272-65616b6f7574,r1.0*%
%TF.SameCoordinates,PX66851e0PY4d70380*%
%TF.FileFunction,Copper,L2,Inr*%
%TF.FilePolarity,Positive*%
%FSLAX46Y46*%
G04 Gerber Fmt 4.6, Leading zero omitted, Abs format (unit mm)*
G04 Created by KiCad (PCBNEW 7.0.1) date 2023-09-03 17:39:20*
%MOMM*%
%LPD*%
G01*
G04 APERTURE LIST*
%TA.AperFunction,ComponentPad*%
%ADD10R,1.700000X1.700000*%
%TD*%
%TA.AperFunction,ComponentPad*%
%ADD11O,1.700000X1.700000*%
%TD*%
%TA.AperFunction,ComponentPad*%
%ADD12C,6.200000*%
%TD*%
%TA.AperFunction,ViaPad*%
%ADD13C,0.550000*%
%TD*%
%TA.AperFunction,Conductor*%
%ADD14C,0.200000*%
%TD*%
G04 APERTURE END LIST*
D10*
X40534000Y-34427000D03*
D11*
X40534000Y-36967000D03*
D10*
X30120000Y-50180000D03*
D11*
X30120000Y-52720000D03*
X30120000Y-55260000D03*
X30120000Y-57800000D03*
X30120000Y-60340000D03*
X30120000Y-62880000D03*
X30120000Y-65420000D03*
X30120000Y-67960000D03*
X30120000Y-70500000D03*
X30120000Y-73040000D03*
X30120000Y-75580000D03*
X30120000Y-78120000D03*
X30120000Y-80660000D03*
X30120000Y-83200000D03*
D10*
X36089000Y-19130000D03*
D11*
X36089000Y-21670000D03*
X36089000Y-24210000D03*
X36089000Y-26750000D03*
D10*
X32159300Y-19102400D03*
D11*
X32159300Y-21642400D03*
X32159300Y-24182400D03*
D10*
X14877200Y-83200000D03*
D11*
X14877200Y-80660000D03*
X14877200Y-78120000D03*
X14877200Y-75580000D03*
X14877200Y-73040000D03*
X14877200Y-70500000D03*
X14877200Y-67960000D03*
X14877200Y-65420000D03*
X14877200Y-62880000D03*
X14877200Y-60340000D03*
X14877200Y-57800000D03*
X14877200Y-55260000D03*
X14877200Y-52720000D03*
X14877200Y-50180000D03*
D10*
X38248000Y-50180000D03*
D11*
X38248000Y-52720000D03*
X38248000Y-55260000D03*
X38248000Y-57800000D03*
X38248000Y-60340000D03*
X38248000Y-62880000D03*
X38248000Y-65420000D03*
X38248000Y-67960000D03*
X38248000Y-70500000D03*
X38248000Y-73040000D03*
X38248000Y-75580000D03*
X38248000Y-78120000D03*
X38248000Y-80660000D03*
X38248000Y-83200000D03*
D10*
X6749200Y-83290400D03*
D11*
X6749200Y-80750400D03*
X6749200Y-78210400D03*
X6749200Y-75670400D03*
X6749200Y-73130400D03*
X6749200Y-70590400D03*
X6749200Y-68050400D03*
X6749200Y-65510400D03*
X6749200Y-62970400D03*
X6749200Y-60430400D03*
X6749200Y-57890400D03*
X6749200Y-55350400D03*
X6749200Y-52810400D03*
X6749200Y-50270400D03*
D12*
X39482000Y-9286000D03*
X5482000Y-9286000D03*
D13*
X13454800Y-35494600D03*
X3548800Y-19993600D03*
X3450000Y-3698000D03*
X5885600Y-13897600D03*
X1313600Y-20196800D03*
X17772800Y-10189200D03*
X31844400Y-8512800D03*
X29710800Y-35494600D03*
X13610000Y-8541873D03*
X21582800Y-35494600D03*
X3350000Y-5000000D03*
X1110400Y-30356800D03*
X5530000Y-35494600D03*
X2634400Y-14558000D03*
X7936972Y-5476000D03*
X26837927Y-8742102D03*
X11731000Y-7083100D03*
X5736000Y-650000D03*
X4339000Y-3698000D03*
X11070000Y-9540000D03*
X15442000Y-7563700D03*
X18026800Y-14913600D03*
X21074800Y-30306000D03*
X14572400Y-8309600D03*
X16096400Y-8512800D03*
X19144400Y-14964400D03*
X22446400Y-30306000D03*
X16083500Y-9248415D03*
X23056000Y-29442400D03*
X20058800Y-14710400D03*
X16150000Y-3952000D03*
X17874400Y-8258800D03*
X21300535Y-14891065D03*
X23767200Y-30306000D03*
X18890400Y-8258800D03*
X24427600Y-29442400D03*
X22046105Y-14856695D03*
X20516000Y-8309600D03*
X22766275Y-14796925D03*
X21328800Y-8055600D03*
X22090800Y-8055600D03*
X22903600Y-13948400D03*
X6088800Y-30052000D03*
X22903600Y-8055600D03*
X23665600Y-8055600D03*
X6749200Y-30610800D03*
X24478400Y-13948400D03*
X7409600Y-30001200D03*
X24478400Y-8055600D03*
X25291200Y-13948400D03*
X8070000Y-30610800D03*
X25291200Y-8055600D03*
X26053200Y-13948400D03*
X8730400Y-29950400D03*
X26104000Y-8004800D03*
X26852563Y-13934963D03*
X10051200Y-29950400D03*
X26866000Y-8004800D03*
X28900800Y-33720800D03*
X20722000Y-33771600D03*
X17521600Y-33822400D03*
X12594000Y-33822400D03*
X4415200Y-33720800D03*
X25649600Y-33771600D03*
X33828400Y-33720800D03*
X9342800Y-33720800D03*
X23716400Y-13948400D03*
X30882000Y-14366000D03*
X29358000Y-3190000D03*
X7412000Y-3190000D03*
X36822800Y-47628800D03*
X35603600Y-47094800D03*
X34376636Y-46593300D03*
X33165200Y-46091800D03*
X32098400Y-45590300D03*
X31031600Y-45088800D03*
X25240400Y-44580800D03*
X24326000Y-40313600D03*
X26050935Y-43712965D03*
X23716400Y-39805600D03*
X25646800Y-42599600D03*
X27120000Y-43209200D03*
X27729600Y-42548800D03*
X21836800Y-41990000D03*
X12437990Y-42041300D03*
X12946800Y-42498500D03*
X13505600Y-43006000D03*
X14013600Y-43514000D03*
X14572400Y-44022000D03*
X15086400Y-44524000D03*
X15557645Y-45009369D03*
X15994800Y-45546000D03*
X6088800Y-41329600D03*
X6749200Y-40974000D03*
X7409600Y-40669200D03*
X8070000Y-40313600D03*
X8679600Y-39958000D03*
X26106800Y-36870400D03*
X9800000Y-36972000D03*
X17877000Y-36972000D03*
X34234800Y-36870400D03*
X9546000Y-142000D03*
X12265000Y-6610300D03*
X3450000Y-650000D03*
X24986400Y-30458400D03*
X29666500Y-8512800D03*
X30168000Y-7801600D03*
X26307200Y-30407600D03*
D14*
X11731000Y-3343000D02*
X9038000Y-650000D01*
X11731000Y-7083100D02*
X11731000Y-3343000D01*
X9038000Y-650000D02*
X5736000Y-650000D01*
X12919300Y-7563700D02*
X12340000Y-8143000D01*
X14443000Y-7563700D02*
X15442000Y-7563700D01*
X12340000Y-8778000D02*
X11578000Y-9540000D01*
X12340000Y-8143000D02*
X12340000Y-8778000D01*
X14443000Y-7563700D02*
X12919300Y-7563700D01*
X11578000Y-9540000D02*
X11070000Y-9540000D01*
X18039505Y-14926305D02*
X21074800Y-17961600D01*
X18039505Y-14926305D02*
X18026800Y-14913600D01*
X21074800Y-17961600D02*
X21074800Y-30306000D01*
X19144400Y-14964400D02*
X22446400Y-18266400D01*
X22446400Y-18266400D02*
X22446400Y-30306000D01*
X20058800Y-14710400D02*
X23056000Y-17707600D01*
X23056000Y-17707600D02*
X23056000Y-29442400D01*
X21300535Y-14891065D02*
X23767200Y-17357730D01*
X23767200Y-17357730D02*
X23767200Y-30306000D01*
X24427600Y-17238190D02*
X24427600Y-29442400D01*
X22046105Y-14856695D02*
X24427600Y-17238190D01*
X17477400Y-12211800D02*
X6088800Y-23600400D01*
X22903600Y-8055600D02*
X18747400Y-12211800D01*
X6088800Y-23600400D02*
X6088800Y-30052000D01*
X18747400Y-12211800D02*
X17477400Y-12211800D01*
X19182400Y-12538800D02*
X17637408Y-12538800D01*
X17637408Y-12538800D02*
X6749200Y-23427008D01*
X6749200Y-23427008D02*
X6749200Y-30610800D01*
X23665600Y-8055600D02*
X19182400Y-12538800D01*
X7409600Y-23229056D02*
X7409600Y-30001200D01*
X24478400Y-8055600D02*
X19668200Y-12865800D01*
X17772856Y-12865800D02*
X7409600Y-23229056D01*
X19668200Y-12865800D02*
X17772856Y-12865800D01*
X20154000Y-13192800D02*
X17908304Y-13192800D01*
X17908304Y-13192800D02*
X8070000Y-23031104D01*
X25291200Y-8055600D02*
X20154000Y-13192800D01*
X8070000Y-23031104D02*
X8070000Y-30610800D01*
X20538200Y-13570600D02*
X17992952Y-13570600D01*
X17992952Y-13570600D02*
X8730400Y-22833152D01*
X26104000Y-8004800D02*
X20538200Y-13570600D01*
X8730400Y-22833152D02*
X8730400Y-29950400D01*
X20973200Y-13897600D02*
X18128400Y-13897600D01*
X18128400Y-13897600D02*
X10051200Y-21974800D01*
X10051200Y-21974800D02*
X10051200Y-29950400D01*
X26866000Y-8004800D02*
X20973200Y-13897600D01*
X30117200Y-50219600D02*
X38245200Y-50219600D01*
X41344000Y-47171600D02*
X38753200Y-44580800D01*
X41344000Y-64900800D02*
X41344000Y-47171600D01*
X38245200Y-67999600D02*
X41344000Y-64900800D01*
X30168000Y-67999600D02*
X38245200Y-67999600D01*
X38753200Y-44580800D02*
X25240400Y-44580800D01*
X38346800Y-70488800D02*
X41699600Y-67136000D01*
X26512370Y-44174400D02*
X26050935Y-43712965D01*
X41699600Y-67136000D02*
X41699600Y-46968400D01*
X41699600Y-46968400D02*
X38905600Y-44174400D01*
X30218800Y-70488800D02*
X38346800Y-70488800D01*
X38905600Y-44174400D02*
X26512370Y-44174400D01*
X26764400Y-43717200D02*
X25646800Y-42599600D01*
X30168000Y-75568800D02*
X38245200Y-75568800D01*
X42106000Y-46714400D02*
X39108800Y-43717200D01*
X38245200Y-75568800D02*
X42106000Y-71708000D01*
X42106000Y-71708000D02*
X42106000Y-46714400D01*
X39108800Y-43717200D02*
X26764400Y-43717200D01*
X39312000Y-43209200D02*
X42563200Y-46460400D01*
X27120000Y-43209200D02*
X39312000Y-43209200D01*
X30168000Y-78108800D02*
X38346800Y-78108800D01*
X42563200Y-46460400D02*
X42563200Y-73943200D01*
X42563200Y-73943200D02*
X38397600Y-78108800D01*
X27729600Y-42548800D02*
X39667600Y-42548800D01*
X42969600Y-45850800D02*
X42969600Y-75772000D01*
X38092800Y-80699600D02*
X30218800Y-80699600D01*
X42969600Y-75772000D02*
X38092800Y-80648800D01*
X39667600Y-42548800D02*
X42969600Y-45850800D01*
X39820000Y-41990000D02*
X43477600Y-45647600D01*
X43477600Y-77804000D02*
X38042000Y-83239600D01*
X21836800Y-41990000D02*
X39820000Y-41990000D01*
X38042000Y-83239600D02*
X30218800Y-83239600D01*
X43477600Y-45647600D02*
X43477600Y-77804000D01*
X3053600Y-47412800D02*
X3269400Y-47197000D01*
X14877200Y-62868800D02*
X6800000Y-62868800D01*
X6088800Y-41329600D02*
X6088800Y-44377600D01*
X5530000Y-62868800D02*
X6850800Y-62868800D01*
X3053600Y-60392400D02*
X5530000Y-62868800D01*
X6088800Y-44377600D02*
X3269400Y-47197000D01*
X3053600Y-60392400D02*
X3053600Y-47412800D01*
X3380600Y-47830022D02*
X3380600Y-58281000D01*
X3380600Y-58281000D02*
X5428400Y-60328800D01*
X6749200Y-44461422D02*
X3380600Y-47830022D01*
X6749200Y-40974000D02*
X6749200Y-44461422D01*
X5428400Y-60328800D02*
X14826400Y-60328800D01*
X3707600Y-56068000D02*
X5428400Y-57788800D01*
X7409600Y-44579536D02*
X3707600Y-48281536D01*
X3707600Y-48281536D02*
X3707600Y-56068000D01*
X5428400Y-57788800D02*
X14877200Y-57788800D01*
X7409600Y-40669200D02*
X7409600Y-44579536D01*
X8070000Y-44657040D02*
X4034600Y-48692440D01*
X4034600Y-48692440D02*
X4034600Y-53855000D01*
X5377600Y-55198000D02*
X14826400Y-55198000D01*
X8070000Y-40313600D02*
X8070000Y-44657040D01*
X4034600Y-53855000D02*
X5377600Y-55198000D01*
X8679600Y-39958000D02*
X8679600Y-44773233D01*
X4361600Y-49091233D02*
X4361600Y-50270400D01*
X4361600Y-50270400D02*
X6800000Y-52708800D01*
X8679600Y-44773233D02*
X4361600Y-49091233D01*
X6850800Y-52708800D02*
X14826400Y-52708800D01*
X14826400Y-50270400D02*
X6749200Y-50270400D01*
X12259556Y-2855556D02*
X12259556Y-6604856D01*
X12259556Y-6604856D02*
X12265000Y-6610300D01*
X12259556Y-2855556D02*
X9546000Y-142000D01*
X24986400Y-30102800D02*
X29666500Y-25422700D01*
X24986400Y-30458400D02*
X24986400Y-30102800D01*
X29666500Y-25422700D02*
X29666500Y-8512800D01*
X30168000Y-7801600D02*
X30168000Y-25937200D01*
X26307200Y-30407600D02*
X26307200Y-29798000D01*
X26307200Y-29798000D02*
X30168000Y-25937200D01*
M02*
