%TF.GenerationSoftware,KiCad,Pcbnew,7.0.1*%
%TF.CreationDate,2023-09-03T17:39:20-04:00*%
%TF.ProjectId,syzygy-breakout-flash-LVL,73797a79-6779-42d6-9272-65616b6f7574,r1.0*%
%TF.SameCoordinates,PX66851e0PY4d70380*%
%TF.FileFunction,Paste,Bot*%
%TF.FilePolarity,Positive*%
%FSLAX46Y46*%
G04 Gerber Fmt 4.6, Leading zero omitted, Abs format (unit mm)*
G04 Created by KiCad (PCBNEW 7.0.1) date 2023-09-03 17:39:20*
%MOMM*%
%LPD*%
G01*
G04 APERTURE LIST*
G04 Aperture macros list*
%AMRoundRect*
0 Rectangle with rounded corners*
0 $1 Rounding radius*
0 $2 $3 $4 $5 $6 $7 $8 $9 X,Y pos of 4 corners*
0 Add a 4 corners polygon primitive as box body*
4,1,4,$2,$3,$4,$5,$6,$7,$8,$9,$2,$3,0*
0 Add four circle primitives for the rounded corners*
1,1,$1+$1,$2,$3*
1,1,$1+$1,$4,$5*
1,1,$1+$1,$6,$7*
1,1,$1+$1,$8,$9*
0 Add four rect primitives between the rounded corners*
20,1,$1+$1,$2,$3,$4,$5,0*
20,1,$1+$1,$4,$5,$6,$7,0*
20,1,$1+$1,$6,$7,$8,$9,0*
20,1,$1+$1,$8,$9,$2,$3,0*%
%AMFreePoly0*
4,1,14,0.410355,0.110355,0.425000,0.075000,0.425000,0.045711,0.410355,0.010356,0.289644,-0.110355,0.254289,-0.125000,-0.375000,-0.125000,-0.410355,-0.110355,-0.425000,-0.075000,-0.425000,0.075000,-0.410355,0.110355,-0.375000,0.125000,0.375000,0.125000,0.410355,0.110355,0.410355,0.110355,$1*%
%AMFreePoly1*
4,1,14,0.289644,0.110355,0.410355,-0.010356,0.425000,-0.045711,0.425000,-0.075000,0.410355,-0.110355,0.375000,-0.125000,-0.375000,-0.125000,-0.410355,-0.110355,-0.425000,-0.075000,-0.425000,0.075000,-0.410355,0.110355,-0.375000,0.125000,0.254289,0.125000,0.289644,0.110355,0.289644,0.110355,$1*%
%AMFreePoly2*
4,1,14,0.110355,0.410355,0.125000,0.375000,0.125000,-0.375000,0.110355,-0.410355,0.075000,-0.425000,0.045711,-0.425000,0.010356,-0.410355,-0.110355,-0.289644,-0.125000,-0.254289,-0.125000,0.375000,-0.110355,0.410355,-0.075000,0.425000,0.075000,0.425000,0.110355,0.410355,0.110355,0.410355,$1*%
%AMFreePoly3*
4,1,14,0.110355,0.410355,0.125000,0.375000,0.125000,-0.254289,0.110355,-0.289644,-0.010356,-0.410355,-0.045711,-0.425000,-0.075000,-0.425000,-0.110355,-0.410355,-0.125000,-0.375000,-0.125000,0.375000,-0.110355,0.410355,-0.075000,0.425000,0.075000,0.425000,0.110355,0.410355,0.110355,0.410355,$1*%
%AMFreePoly4*
4,1,14,0.410355,0.110355,0.425000,0.075000,0.425000,-0.075000,0.410355,-0.110355,0.375000,-0.125000,-0.375000,-0.125000,-0.410355,-0.110355,-0.425000,-0.075000,-0.425000,-0.045711,-0.410355,-0.010355,-0.289643,0.110355,-0.254289,0.125000,0.375000,0.125000,0.410355,0.110355,0.410355,0.110355,$1*%
%AMFreePoly5*
4,1,14,0.410355,0.110355,0.425000,0.075000,0.425000,-0.075000,0.410355,-0.110355,0.375000,-0.125000,-0.254289,-0.125000,-0.289644,-0.110355,-0.410355,0.010356,-0.425000,0.045711,-0.425000,0.075000,-0.410355,0.110355,-0.375000,0.125000,0.375000,0.125000,0.410355,0.110355,0.410355,0.110355,$1*%
%AMFreePoly6*
4,1,14,-0.010356,0.410355,0.110355,0.289644,0.125000,0.254289,0.125000,-0.375000,0.110355,-0.410355,0.075000,-0.425000,-0.075000,-0.425000,-0.110355,-0.410355,-0.125000,-0.375000,-0.125000,0.375000,-0.110355,0.410355,-0.075000,0.425000,-0.045711,0.425000,-0.010356,0.410355,-0.010356,0.410355,$1*%
%AMFreePoly7*
4,1,14,0.110355,0.410355,0.125000,0.375000,0.125000,-0.375000,0.110355,-0.410355,0.075000,-0.425000,-0.075000,-0.425000,-0.110355,-0.410355,-0.125000,-0.375000,-0.125000,0.254289,-0.110355,0.289644,0.010356,0.410355,0.045711,0.425000,0.075000,0.425000,0.110355,0.410355,0.110355,0.410355,$1*%
G04 Aperture macros list end*
%ADD10RoundRect,0.060000X0.090000X1.040000X-0.090000X1.040000X-0.090000X-1.040000X0.090000X-1.040000X0*%
%ADD11RoundRect,0.100000X-1.100000X0.150000X-1.100000X-0.150000X1.100000X-0.150000X1.100000X0.150000X0*%
%ADD12RoundRect,0.100000X-2.075000X0.150000X-2.075000X-0.150000X2.075000X-0.150000X2.075000X0.150000X0*%
%ADD13RoundRect,0.100000X-1.150000X0.150000X-1.150000X-0.150000X1.150000X-0.150000X1.150000X0.150000X0*%
%ADD14RoundRect,0.237500X0.237500X-0.300000X0.237500X0.300000X-0.237500X0.300000X-0.237500X-0.300000X0*%
%ADD15RoundRect,0.237500X-0.237500X0.300000X-0.237500X-0.300000X0.237500X-0.300000X0.237500X0.300000X0*%
%ADD16RoundRect,0.237500X-0.250000X-0.237500X0.250000X-0.237500X0.250000X0.237500X-0.250000X0.237500X0*%
%ADD17RoundRect,0.112500X0.187500X0.112500X-0.187500X0.112500X-0.187500X-0.112500X0.187500X-0.112500X0*%
%ADD18RoundRect,0.237500X-0.300000X-0.237500X0.300000X-0.237500X0.300000X0.237500X-0.300000X0.237500X0*%
%ADD19RoundRect,0.150000X-0.250000X-0.150000X0.250000X-0.150000X0.250000X0.150000X-0.250000X0.150000X0*%
%ADD20RoundRect,0.237500X0.300000X0.237500X-0.300000X0.237500X-0.300000X-0.237500X0.300000X-0.237500X0*%
%ADD21R,0.950000X2.150000*%
%ADD22R,3.250000X2.150000*%
%ADD23RoundRect,0.237500X0.237500X-0.250000X0.237500X0.250000X-0.237500X0.250000X-0.237500X-0.250000X0*%
%ADD24RoundRect,0.160000X0.160000X-0.160000X0.160000X0.160000X-0.160000X0.160000X-0.160000X-0.160000X0*%
%ADD25FreePoly0,90.000000*%
%ADD26RoundRect,0.062500X0.062500X-0.362500X0.062500X0.362500X-0.062500X0.362500X-0.062500X-0.362500X0*%
%ADD27FreePoly1,90.000000*%
%ADD28FreePoly2,90.000000*%
%ADD29RoundRect,0.062500X0.362500X-0.062500X0.362500X0.062500X-0.362500X0.062500X-0.362500X-0.062500X0*%
%ADD30FreePoly3,90.000000*%
%ADD31FreePoly4,90.000000*%
%ADD32FreePoly5,90.000000*%
%ADD33FreePoly6,90.000000*%
%ADD34FreePoly7,90.000000*%
G04 APERTURE END LIST*
D10*
X14882000Y-12486000D03*
X14882000Y-6086000D03*
X15682000Y-12486000D03*
X15682000Y-6086000D03*
X16482000Y-12486000D03*
X16482000Y-6086000D03*
X17282000Y-12486000D03*
X17282000Y-6086000D03*
X18082000Y-12486000D03*
X18082000Y-6086000D03*
X18882000Y-12486000D03*
X18882000Y-6086000D03*
X19682000Y-12486000D03*
X19682000Y-6086000D03*
X20482000Y-12486000D03*
X20482000Y-6086000D03*
X21282000Y-12486000D03*
X21282000Y-6086000D03*
X22082000Y-12486000D03*
X22082000Y-6086000D03*
X22882000Y-12486000D03*
X22882000Y-6086000D03*
X23682000Y-12486000D03*
X23682000Y-6086000D03*
X24482000Y-12486000D03*
X24482000Y-6086000D03*
X25282000Y-12486000D03*
X25282000Y-6086000D03*
X26082000Y-12486000D03*
X26082000Y-6086000D03*
X26882000Y-12486000D03*
X26882000Y-6086000D03*
X27682000Y-12486000D03*
X27682000Y-6086000D03*
X28482000Y-12486000D03*
X28482000Y-6086000D03*
X29282000Y-12486000D03*
X29282000Y-6086000D03*
X30082000Y-12486000D03*
X30082000Y-6086000D03*
D11*
X30532000Y-9286000D03*
D12*
X25632000Y-9286000D03*
X19332000Y-9286000D03*
D13*
X14432000Y-9286000D03*
D14*
X2885200Y-17686400D03*
X2885200Y-15961400D03*
D15*
X16251600Y-33873200D03*
X16251600Y-35598200D03*
D16*
X9293000Y-8371800D03*
X11118000Y-8371800D03*
D17*
X33284000Y-16082000D03*
X31184000Y-16082000D03*
D18*
X5124700Y-19993600D03*
X6849700Y-19993600D03*
D14*
X4662100Y-17682200D03*
X4662100Y-15957200D03*
D19*
X6360100Y-17682200D03*
X6360100Y-16432200D03*
X6360100Y-15182200D03*
X8010100Y-15182200D03*
X8010100Y-16432200D03*
X8010100Y-17682200D03*
D14*
X27424800Y-37060200D03*
X27424800Y-35335200D03*
D15*
X24481200Y-33824600D03*
X24481200Y-35549600D03*
D14*
X35451200Y-37061300D03*
X35451200Y-35336300D03*
X11118000Y-37060200D03*
X11118000Y-35335200D03*
D20*
X4615600Y-30356800D03*
X2890600Y-30356800D03*
X6750000Y-5175000D03*
X5025000Y-5175000D03*
D21*
X2315600Y-22194600D03*
X4615600Y-22194600D03*
X6915600Y-22194600D03*
D22*
X4615600Y-27994600D03*
D14*
X19296800Y-37112100D03*
X19296800Y-35387100D03*
D15*
X8022000Y-33926200D03*
X8022000Y-35651200D03*
D23*
X9658700Y-16713200D03*
X9658700Y-14888200D03*
D24*
X9908000Y-5603000D03*
X10708000Y-5603000D03*
X9908000Y-4803000D03*
X10708000Y-4803000D03*
D25*
X11208000Y-6653000D03*
D26*
X10758000Y-6653000D03*
X10308000Y-6653000D03*
X9858000Y-6653000D03*
D27*
X9408000Y-6653000D03*
D28*
X8858000Y-6103000D03*
D29*
X8858000Y-5653000D03*
X8858000Y-5203000D03*
X8858000Y-4753000D03*
D30*
X8858000Y-4303000D03*
D31*
X9408000Y-3753000D03*
D26*
X9858000Y-3753000D03*
X10308000Y-3753000D03*
X10758000Y-3753000D03*
D32*
X11208000Y-3753000D03*
D33*
X11758000Y-4303000D03*
D29*
X11758000Y-4753000D03*
X11758000Y-5203000D03*
X11758000Y-5653000D03*
D34*
X11758000Y-6103000D03*
D15*
X32558400Y-33720800D03*
X32558400Y-35445800D03*
M02*
